<svg width="15" height="15" fill="none" xmlns="http://www.w3.org/2000/svg"><path d="M10.578 3.262c-.224 0-.444.05-.646.146v-.361a1.507 1.507 0 0 0-2.94-.463 1.506 1.506 0 0 0-2.225 1.324V7.35l-.206-.33a1.507 1.507 0 0 0-2.614 1.497c.86 1.817 1.556 3.106 2.352 3.911.804.816 1.716 1.163 3.05 1.163a4.74 4.74 0 0 0 4.735-4.734v-4.09a1.506 1.506 0 0 0-1.506-1.506Zm.645 5.596A3.878 3.878 0 0 1 7.35 12.73c-1.097 0-1.803-.262-2.44-.906-.711-.722-1.367-1.945-2.193-3.69a.341.341 0 0 0-.016-.03.646.646 0 1 1 1.126-.634l1.005 1.614a.43.43 0 0 0 .796-.227v-4.95a.646.646 0 0 1 1.291 0v3.228a.43.43 0 1 0 .861 0v-4.09a.646.646 0 0 1 1.291 0v4.09a.43.43 0 1 0 .861 0V4.769a.646.646 0 0 1 1.291 0v4.089Z" fill="#E8E9EA"/></svg>