<svg width="11" height="13" fill="none" xmlns="http://www.w3.org/2000/svg"><g clip-path="url('#clip0_1083_790')"><path d="M10.177 1.08H.905c-.425 0-.77.35-.77.78v9.254c0 .43.345.78.77.78h9.272c.425 0 .772-.35.772-.78V1.859c0-.43-.348-.78-.772-.78Zm-6.773 9.269H1.8V5.188h1.605v5.16h-.002Zm-.802-5.866a.93.93 0 1 1 .001-1.86.93.93 0 0 1 0 1.86Zm6.81 5.866H7.809v-2.51c0-.6-.012-1.37-.833-1.37-.835 0-.963.652-.963 1.326v2.554H4.41V5.188h1.538v.705h.021c.215-.406.739-.833 1.519-.833 1.622 0 1.924 1.07 1.924 2.46v2.829Z" fill="#7A7B85"/></g><defs><clipPath id="clip0_1083_790"><path fill="#fff" transform="translate(.135 .307)" d="M0 0h10.814v12.359H0z"/></clipPath></defs></svg>