<svg width="15" height="16" fill="none" xmlns="http://www.w3.org/2000/svg"><g clip-path="url('#clip0_1083_33')"><path d="M13.124 1.152H1.643a.96.96 0 0 0-.954.966v11.46a.96.96 0 0 0 .954.966h11.481a.963.963 0 0 0 .957-.966V2.118a.963.963 0 0 0-.957-.966ZM4.737 12.63H2.752V6.24H4.74v6.39h-.003Zm-.993-7.263a1.151 1.151 0 1 1 .001-2.303 1.151 1.151 0 0 1 0 2.303Zm8.433 7.263h-1.985V9.522c0-.741-.015-1.695-1.031-1.695-1.035 0-1.193.807-1.193 1.641v3.162H5.983V6.24h1.904v.873h.027c.266-.503.915-1.032 1.88-1.032 2.009 0 2.383 1.325 2.383 3.046v3.503Z" fill="#7A7B85"/></g><defs><clipPath id="clip0_1083_33"><path fill="#fff" transform="translate(.69 .196)" d="M0 0h13.391v15.304H0z"/></clipPath></defs></svg>