<svg width="115" height="26" fill="none" xmlns="http://www.w3.org/2000/svg"><g clip-path="url('#clip0_1083_866')" fill="#7A7B85"><path fill-rule="evenodd" clip-rule="evenodd" d="M36.482 2.017c0-.859.703-1.555 1.572-1.555h2.737a2.69 2.69 0 0 1 1.695.6l.832.675.021.019.058-.02c1.502-.475 3.325-.566 5.186-.566 1.86 0 3.684.09 5.186.567l.058.019.02-.02.834-.675a2.69 2.69 0 0 1 1.694-.599h2.738c.868 0 1.571.696 1.571 1.555v.96a2.63 2.63 0 0 1-.872 1.954l-.672.606c-.328.295-.721.51-1.15.628l-.158.043c.623 1.47.966 3.04.966 4.31 0 5.112-3.197 7.32-6.014 9.264-2.218 1.532-4.2 2.901-4.2 5.397 0-2.496-1.984-3.865-4.202-5.396-2.817-1.946-6.014-4.153-6.014-9.264 0-1.27.344-2.841.966-4.31l-.159-.044a2.838 2.838 0 0 1-1.149-.628l-.672-.606a2.63 2.63 0 0 1-.872-1.953v-.961Zm14.144 12.68a.877.877 0 0 1-.299.652 1.08 1.08 0 0 1-.722.27c-.234 0-.46-.073-.64-.204.307.814 1.093 1.585 2.29.345 1.056-1.152-.047-3.583-1.122-5.025-.358-.48-.946-.712-1.55-.712-.604 0-1.192.232-1.55.712-1.075 1.442-2.178 3.873-1.122 5.025 1.197 1.24 1.983.469 2.29-.345-.18.13-.406.203-.64.203-.27 0-.53-.097-.722-.27a.877.877 0 0 1-.299-.65h4.086Zm-5.955-7.194h-2.846l2.243 1.777c.494.39 1.215.266 1.52-.264.386-.668-.126-1.513-.917-1.513Zm7.824 0h2.846L53.098 9.28c-.493.39-1.215.266-1.52-.264-.386-.668.126-1.513.917-1.513Z"/><path d="M64.074 17.97h2.521V8.46h-2.52v9.51Zm0-10.993h2.521V4.715h-2.52v2.262ZM68.22 21.084h2.521v-4.19h.037c.538.817 1.41 1.354 2.744 1.354 2.447 0 4.115-1.946 4.115-5.024 0-2.966-1.612-5.023-4.133-5.023-1.298 0-2.188.611-2.8 1.446h-.055V8.46H68.22v12.624Zm4.764-4.93c-1.501 0-2.298-1.131-2.298-2.855 0-1.706.63-3.06 2.206-3.06 1.557 0 2.187 1.261 2.187 3.06 0 1.798-.815 2.854-2.094 2.854ZM82.667 18.248c2.373 0 4.004-1.15 4.004-3.059 0-2.224-1.761-2.67-3.355-3.003-1.353-.278-2.614-.352-2.614-1.168 0-.686.649-1.056 1.631-1.056 1.075 0 1.724.37 1.835 1.39h2.28c-.185-1.91-1.575-3.151-4.078-3.151-2.169 0-3.874.982-3.874 3.04 0 2.076 1.668 2.54 3.374 2.873 1.297.26 2.502.352 2.502 1.26 0 .668-.63 1.094-1.742 1.094-1.131 0-1.91-.482-2.076-1.575h-2.336c.148 2.02 1.687 3.355 4.449 3.355ZM96.243 17.97V8.46h-2.52v5.487c0 1.26-.724 2.15-1.91 2.15-1.076 0-1.576-.611-1.576-1.723V8.46h-2.503v6.34c0 2.076 1.187 3.43 3.3 3.43 1.335 0 2.076-.5 2.725-1.372h.056v1.112h2.428ZM97.874 17.97h2.522v-5.524c0-1.26.686-2.076 1.705-2.076.927 0 1.465.556 1.465 1.63v5.97h2.521v-5.524c0-1.26.649-2.076 1.705-2.076.927 0 1.465.556 1.465 1.63v5.97h2.521v-6.395c0-2.077-1.131-3.374-3.133-3.374-1.205 0-2.206.63-2.855 1.668h-.037c-.463-1.001-1.427-1.668-2.632-1.668-1.316 0-2.243.667-2.762 1.538h-.056V8.46h-2.428v9.51ZM.423 17.97h2.522V4.715H.423V17.97ZM9.11 18.248c2.947 0 4.968-2.187 4.968-5.024 0-2.836-2.021-5.023-4.969-5.023-2.947 0-4.968 2.187-4.968 5.023 0 2.837 2.02 5.024 4.968 5.024Zm0-1.928c-1.558 0-2.41-1.242-2.41-3.096 0-1.853.852-3.114 2.41-3.114 1.538 0 2.41 1.26 2.41 3.114 0 1.854-.872 3.096-2.41 3.096ZM19.44 21.214c1.408 0 2.632-.333 3.429-1.075.704-.649 1.13-1.557 1.13-2.892V8.46h-2.428v1.001h-.037c-.575-.797-1.446-1.26-2.632-1.26-2.41 0-4.116 1.816-4.116 4.653 0 2.873 2.076 4.541 4.19 4.541 1.205 0 1.928-.482 2.484-1.112h.055v1.038c0 1.298-.686 1.984-2.113 1.984-1.168 0-1.705-.464-1.91-1.057H14.99c.26 1.854 1.854 2.966 4.45 2.966Zm-.038-5.84c-1.298 0-2.15-.945-2.15-2.558 0-1.594.852-2.595 2.132-2.595 1.52 0 2.261 1.187 2.261 2.577 0 1.409-.649 2.577-2.243 2.577ZM30.127 18.248c2.948 0 4.969-2.187 4.969-5.024 0-2.836-2.021-5.023-4.969-5.023-2.947 0-4.968 2.187-4.968 5.023 0 2.837 2.02 5.024 4.968 5.024Zm0-1.928c-1.557 0-2.41-1.242-2.41-3.096 0-1.853.853-3.114 2.41-3.114 1.539 0 2.41 1.26 2.41 3.114 0 1.854-.871 3.096-2.41 3.096ZM111.664 6.384c0-.427.345-.773.772-.773h1.545a.773.773 0 1 1 0 1.545h-1.545a.772.772 0 0 1-.772-.772Z"/></g><defs><clipPath id="clip0_1083_866"><path fill="#fff" transform="translate(.001 .33)" d="M0 0h114.936v25.335H0z"/></clipPath></defs></svg>