<svg width="72" height="15" fill="none" xmlns="http://www.w3.org/2000/svg"><g clip-path="url('#clip0_1083_408')" fill="#7A7B85"><path d="M17.69 1.28h1.782v9.726h2.934v1.62H17.69V1.282ZM25.775 12.789c-.875 0-1.545-.249-2.01-.746-.464-.497-.697-1.2-.697-2.107V3.971c0-.907.233-1.61.697-2.107.465-.497 1.135-.746 2.01-.746.876 0 1.545.249 2.01.746.465.497.697 1.2.697 2.107v5.965c0 .908-.232 1.61-.697 2.107-.465.497-1.134.746-2.01.746Zm0-1.621c.616 0 .924-.373.924-1.119V3.858c0-.746-.308-1.119-.924-1.119-.616 0-.924.373-.924 1.119v6.191c0 .746.308 1.119.924 1.119ZM32.216 12.789c-.864 0-1.523-.243-1.977-.73-.454-.497-.68-1.204-.68-2.123V3.971c0-.918.226-1.62.68-2.107.454-.497 1.113-.746 1.977-.746.865 0 1.524.249 1.978.746.454.486.68 1.189.68 2.107v.973H33.19V3.858c0-.746-.308-1.119-.924-1.119-.616 0-.924.373-.924 1.119v6.208c0 .734.308 1.102.924 1.102.616 0 .924-.367.924-1.102v-2.22h-.892V6.223h2.578v3.712c0 .918-.227 1.626-.681 2.123-.454.487-1.113.73-1.978.73ZM38.596 12.789c-.875 0-1.545-.249-2.01-.746-.464-.497-.696-1.2-.696-2.107V3.971c0-.907.232-1.61.697-2.107.464-.497 1.134-.746 2.01-.746.875 0 1.545.249 2.01.746.464.497.696 1.2.696 2.107v5.965c0 .908-.232 1.61-.697 2.107-.464.497-1.134.746-2.01.746Zm0-1.621c.616 0 .924-.373.924-1.119V3.858c0-.746-.308-1.119-.924-1.119-.615 0-.923.373-.923 1.119v6.191c0 .746.308 1.119.923 1.119ZM42.512 1.28h1.783v11.347h-1.783V1.28ZM45.63 1.28h2.627c.886 0 1.55.238 1.993.714.444.475.665 1.172.665 2.09v1.119c0 .919-.221 1.615-.665 2.09-.443.476-1.107.714-1.993.714h-.843v4.62h-1.783V1.28Zm2.627 5.106c.291 0 .508-.08.648-.243.151-.162.227-.438.227-.827V3.971c0-.389-.075-.664-.227-.826-.14-.163-.357-.244-.648-.244h-.843v3.485h.843ZM54.264 12.789c-.864 0-1.518-.243-1.96-.73-.444-.497-.665-1.204-.665-2.123v-.648h1.685v.778c0 .734.308 1.102.924 1.102.303 0 .53-.087.681-.26.162-.183.243-.475.243-.875 0-.475-.108-.891-.324-1.248-.216-.367-.616-.805-1.2-1.313-.734-.648-1.247-1.232-1.54-1.75a3.635 3.635 0 0 1-.437-1.783c0-.897.227-1.589.68-2.075.455-.497 1.114-.746 1.979-.746.853 0 1.496.249 1.928.746.443.486.665 1.189.665 2.107v.47h-1.686v-.583c0-.39-.075-.67-.227-.843-.151-.184-.372-.276-.664-.276-.595 0-.892.362-.892 1.086 0 .41.108.795.324 1.151.227.357.632.789 1.216 1.297.746.648 1.259 1.237 1.54 1.767.28.53.421 1.15.421 1.864 0 .929-.232 1.642-.697 2.14-.454.496-1.118.745-1.994.745ZM60.571 12.789c-.865 0-1.524-.243-1.978-.73-.454-.497-.68-1.204-.68-2.123V1.28h1.783v8.785c0 .389.075.67.226.842.163.173.39.26.681.26.292 0 .513-.087.665-.26.162-.172.243-.453.243-.842V1.28h1.718v8.655c0 .918-.227 1.626-.68 2.123-.455.487-1.114.73-1.978.73ZM64.499 1.28h2.544l1.135 8.121h.032l1.135-8.12h2.545v11.346h-1.686V4.036h-.032l-1.297 8.59h-1.491l-1.297-8.59h-.032v8.59h-1.556V1.282ZM.477 12.627a3.972 3.972 0 0 0 0-7.944v2.78a1.192 1.192 0 0 1 0 2.383v2.78Z"/><path d="M13.716 6.007a7.116 7.116 0 0 0-9.173 7.943h4.42a2.846 2.846 0 0 1 4.752-3.022v-4.92Z"/><path d="M1.175.712a5.958 5.958 0 0 0 11.842 0h-4.26a1.788 1.788 0 0 1-3.322 0h-4.26Z"/></g><defs><clipPath id="clip0_1083_408"><path fill="#fff" transform="translate(.477 .712)" d="M0 0h71.413v13.39H0z"/></clipPath></defs></svg>