<svg width="91" height="19" fill="none" xmlns="http://www.w3.org/2000/svg"><g clip-path="url('#clip0_1083_357')" fill="#7A7B85"><path fill-rule="evenodd" clip-rule="evenodd" d="M11.86 5.695a4.463 4.463 0 0 0-2.48-.752V.48A8.927 8.927 0 1 1 .454 9.407h4.463a4.463 4.463 0 1 0 6.943-3.712Z"/><path fill-rule="evenodd" clip-rule="evenodd" d="M4.917.48A4.463 4.463 0 0 1 .454 4.943v4.464A8.927 8.927 0 0 0 9.38.48H4.917Z"/><path d="M56.522 6.93h-2.166v6.88h2.166V6.93ZM54.597 5.642c.226.227.51.34.849.34.34 0 .618-.113.835-.34a1.21 1.21 0 0 0 .326-.849c0-.34-.109-.623-.326-.849a1.106 1.106 0 0 0-.835-.34c-.34 0-.623.113-.85.34-.216.226-.325.51-.325.85 0 .33.108.613.326.848ZM23.286 13.81V3.817h2.222v8.04h4.43v1.953h-6.652Z"/><path fill-rule="evenodd" clip-rule="evenodd" d="M33.94 13.965a3.98 3.98 0 0 1-1.924-.467 3.635 3.635 0 0 1-1.345-1.302 3.492 3.492 0 0 1-.495-1.84c0-.68.165-1.288.495-1.826.33-.538.779-.963 1.345-1.274.566-.32 1.208-.481 1.925-.481.717 0 1.359.156 1.925.467.566.311 1.014.74 1.345 1.288.33.538.495 1.147.495 1.826 0 .68-.165 1.293-.495 1.84-.33.547-.779.981-1.345 1.302-.566.312-1.208.467-1.925.467Zm0-1.967c.312 0 .586-.066.822-.198.236-.142.415-.335.538-.58.132-.255.198-.543.198-.864 0-.32-.066-.6-.198-.835a1.388 1.388 0 0 0-.552-.566 1.49 1.49 0 0 0-.807-.213c-.302 0-.571.071-.807.213-.236.132-.42.32-.552.566a1.764 1.764 0 0 0-.198.85c0 .31.066.594.198.848.132.246.316.44.552.58.236.133.505.199.807.199ZM39.421 16.499c.576.264 1.241.396 1.996.396.736 0 1.392-.146 1.968-.439a3.399 3.399 0 0 0 1.358-1.217c.33-.519.496-1.132.496-1.84V6.931h-2.123v.462a2.288 2.288 0 0 0-.538-.335 2.84 2.84 0 0 0-1.26-.27c-.632 0-1.194.152-1.684.454-.491.292-.878.698-1.161 1.217-.283.51-.425 1.085-.425 1.727 0 .632.142 1.208.425 1.727.283.519.67.93 1.16 1.231.491.302 1.053.453 1.685.453.462 0 .882-.09 1.26-.269.183-.086.348-.189.495-.307v.435c0 .48-.156.854-.467 1.118-.302.264-.722.396-1.26.396-.434 0-.806-.075-1.118-.226a2.581 2.581 0 0 1-.82-.665l-1.331 1.33c.33.472.778.835 1.344 1.09Zm3.086-5.025a1.47 1.47 0 0 1-.779.198c-.302 0-.566-.066-.792-.198a1.397 1.397 0 0 1-.51-.538 1.603 1.603 0 0 1-.184-.75c0-.283.062-.538.184-.764.123-.227.297-.406.524-.538.226-.132.486-.198.778-.198.302 0 .562.066.779.198.226.132.396.311.51.538.122.226.183.48.183.764 0 .283-.06.538-.184.764a1.294 1.294 0 0 1-.509.524ZM49.796 13.965c-.708 0-1.35-.155-1.925-.467a3.634 3.634 0 0 1-1.345-1.302 3.492 3.492 0 0 1-.495-1.84c0-.68.165-1.288.495-1.826a3.56 3.56 0 0 1 1.345-1.274c.566-.32 1.208-.481 1.925-.481.717 0 1.359.156 1.925.467.566.311 1.014.74 1.344 1.288.33.538.496 1.147.496 1.826 0 .68-.165 1.293-.496 1.84-.33.547-.778.981-1.344 1.302-.566.312-1.208.467-1.925.467Zm0-1.967c.311 0 .585-.066.82-.198a1.39 1.39 0 0 0 .539-.58c.132-.255.198-.543.198-.864 0-.32-.066-.6-.198-.835a1.387 1.387 0 0 0-.552-.566 1.49 1.49 0 0 0-.807-.213c-.302 0-.571.071-.807.213-.236.132-.42.32-.552.566a1.764 1.764 0 0 0-.198.85c0 .31.066.594.198.848.132.246.316.44.552.58.236.133.505.199.807.199ZM61.727 13.951c-.462 0-.887-.09-1.274-.269a2.705 2.705 0 0 1-.551-.338v3.367h-2.138v-9.78h2.166v.474c.157-.128.331-.24.523-.333a2.867 2.867 0 0 1 1.274-.283c.651 0 1.227.156 1.727.467.51.311.906.736 1.19 1.274.292.538.438 1.151.438 1.84 0 .689-.146 1.302-.439 1.84a3.22 3.22 0 0 1-1.189 1.274c-.5.311-1.076.467-1.727.467Zm-.396-1.953a1.49 1.49 0 0 0 1.359-.793c.132-.245.198-.524.198-.835 0-.32-.066-.604-.198-.85a1.387 1.387 0 0 0-.552-.565 1.463 1.463 0 0 0-.793-.213c-.302 0-.57.071-.806.213-.227.132-.406.32-.538.566a1.764 1.764 0 0 0-.198.849c0 .311.06.59.184.835.132.245.316.439.552.58.235.142.5.213.792.213Z"/><path d="M67.201 13.824c.396.104.797.155 1.203.155.859 0 1.538-.198 2.038-.594.51-.396.764-.93.764-1.6 0-.434-.08-.783-.24-1.047a1.872 1.872 0 0 0-.623-.651 3.716 3.716 0 0 0-.807-.382 12.458 12.458 0 0 0-.806-.24 2.921 2.921 0 0 1-.623-.227c-.16-.085-.24-.198-.24-.34a.32.32 0 0 1 .183-.297c.123-.076.307-.113.552-.113.255 0 .514.051.778.155.274.104.52.283.737.538l1.23-1.245a2.843 2.843 0 0 0-1.216-.892 4.098 4.098 0 0 0-1.614-.312c-.556 0-1.042.095-1.457.283-.416.19-.737.449-.963.779-.226.32-.34.703-.34 1.146 0 .416.08.76.24 1.034.161.264.369.471.623.623.255.15.524.269.807.353.283.085.552.166.807.241.255.066.463.146.623.24.17.086.255.213.255.383 0 .132-.071.236-.213.311-.132.076-.325.113-.58.113a2.58 2.58 0 0 1-1.019-.198 2.481 2.481 0 0 1-.807-.58l-1.231 1.245c.236.255.519.482.85.68.339.189.702.335 1.089.439ZM75.156 13.965c-.632 0-1.194-.127-1.684-.382a2.956 2.956 0 0 1-1.133-1.076c-.274-.462-.41-.99-.41-1.585V6.931h2.165v3.963c0 .236.038.439.114.608.085.17.207.302.368.397.16.094.353.141.58.141.32 0 .575-.099.764-.297.19-.208.283-.49.283-.85V6.932h2.166v3.977c0 .604-.137 1.137-.41 1.6-.274.452-.651.81-1.133 1.075-.481.255-1.038.382-1.67.382ZM81.61 6.93h-2.165v6.88h2.166V9.79c0-.236.047-.434.141-.595.104-.16.241-.283.411-.368.17-.094.363-.141.58-.141.312 0 .571.099.779.297.217.189.325.458.325.807v4.02h2.166V9.79c0-.236.047-.434.142-.595.104-.16.24-.283.41-.368.17-.094.364-.141.58-.141.312 0 .571.099.779.297.217.189.325.458.325.807v4.02h2.166V9.55c0-.577-.122-1.067-.368-1.473a2.364 2.364 0 0 0-.977-.948c-.405-.227-.872-.34-1.401-.34-.538 0-1.024.118-1.458.354-.282.15-.528.344-.74.582a2.407 2.407 0 0 0-.718-.61 2.535 2.535 0 0 0-1.288-.326c-.51 0-.967.108-1.373.325-.176.09-.337.199-.481.325V6.93Z"/></g><defs><clipPath id="clip0_1083_357"><path fill="#fff" transform="translate(.454 .48)" d="M0 0h90.159v17.853H0z"/></clipPath></defs></svg>