<svg width="63" height="15" fill="none" xmlns="http://www.w3.org/2000/svg"><path d="M10.134 6.68a1.632 1.632 0 0 0-.467 1.307l-.008-.008a1.939 1.939 0 0 1-2.095 2.095l.008.008a1.642 1.642 0 1 0 1.482 1.48l.008.009a1.939 1.939 0 0 1 2.095-2.095l-.008-.008a1.639 1.639 0 1 0-1.014-2.788h-.001Z" fill="#7A7B85"/><path d="m6.841 9.03-.008-.008a1.62 1.62 0 0 0 1.775-1.774l.008.008a1.94 1.94 0 0 1 2.095-2.095l-.008-.008a1.641 1.641 0 1 0-1.481-1.481l-.008-.009a1.939 1.939 0 0 1-2.095 2.095l.008.009A1.62 1.62 0 0 0 5.352 7.54l-.008-.008a1.94 1.94 0 0 1-2.096 2.095l.009.008a1.641 1.641 0 1 0 1.48 1.48l.009.009A1.939 1.939 0 0 1 6.84 9.03Z" fill="#7A7B85"/><path d="M3.85 8.134a1.63 1.63 0 0 0 .466-1.308l.009.008A1.94 1.94 0 0 1 6.42 4.74l-.009-.008a1.641 1.641 0 1 0-1.48-1.48l-.009-.009a1.939 1.939 0 0 1-2.095 2.095l.008.008a1.638 1.638 0 1 0 1.015 2.789H3.85ZM17.676 3.682H19v6.45h-1.325v-6.45ZM19.753 7.924a2.342 2.342 0 1 1 2.341 2.333 2.315 2.315 0 0 1-2.341-2.333Zm3.358 0a1.017 1.017 0 1 0-1.017 1.045.992.992 0 0 0 1.017-1.045ZM29.72 5.715V9.91c0 1.485-1.159 2.112-2.334 2.112a2.26 2.26 0 0 1-2.094-1.071l1.131-.654a1.01 1.01 0 0 0 1.008.557.88.88 0 0 0 .998-.946v-.404a1.569 1.569 0 0 1-1.29.575 2.246 2.246 0 0 1 0-4.489 1.57 1.57 0 0 1 1.29.575v-.451h1.29Zm-1.29 2.12a1.07 1.07 0 1 0-1.07 1.027 1 1 0 0 0 1.07-1.027ZM30.47 7.924a2.342 2.342 0 1 1 2.342 2.333 2.315 2.315 0 0 1-2.342-2.333Zm3.358 0a1.017 1.017 0 1 0-1.016 1.045.991.991 0 0 0 1.017-1.045ZM35.772 4.53a.795.795 0 1 1 .795.796.804.804 0 0 1-.795-.796Zm.134 1.185h1.326v4.418h-1.328l.002-4.418ZM42.956 7.924a2.219 2.219 0 0 1-2.112 2.333 1.658 1.658 0 0 1-1.316-.54V11.9h-1.326V5.715h1.326v.415a1.659 1.659 0 0 1 1.316-.539 2.218 2.218 0 0 1 2.112 2.333Zm-1.326 0a1.05 1.05 0 1 0-1.05 1.078 1.009 1.009 0 0 0 1.05-1.078ZM47.047 8.807c0 1.017-.884 1.45-1.838 1.45a1.934 1.934 0 0 1-1.9-1.052l1.149-.654a.727.727 0 0 0 .75.521c.317 0 .477-.097.477-.273 0-.487-2.175-.23-2.175-1.759 0-.963.814-1.45 1.733-1.45a1.932 1.932 0 0 1 1.722.946l-1.13.61a.64.64 0 0 0-.592-.389c-.23 0-.372.09-.372.247.002.504 2.176.168 2.176 1.803ZM51.889 5.715v4.418h-1.326v-.415a1.51 1.51 0 0 1-1.263.539c-.893 0-1.652-.636-1.652-1.83V5.715h1.326v2.518a.724.724 0 0 0 .198.58.728.728 0 0 0 .57.223c.487 0 .822-.282.822-.91v-2.41l1.325-.001ZM59.49 7.42v2.713h-1.326V7.535c0-.442-.212-.725-.636-.725-.442 0-.69.31-.69.831v2.492h-1.325V7.535c0-.442-.212-.725-.636-.725-.442 0-.69.31-.69.831v2.492h-1.325V5.714h1.325v.406a1.358 1.358 0 0 1 1.185-.53 1.315 1.315 0 0 1 1.157.583 1.455 1.455 0 0 1 1.281-.582c1.015 0 1.68.724 1.68 1.829ZM60.61 5.687a.984.984 0 1 0 0-1.967.984.984 0 0 0 0 1.967Z" fill="#7A7B85"/></svg>