<svg width="70" height="19" fill="none" xmlns="http://www.w3.org/2000/svg"><g clip-path="url('#clip0_1083_421')"><path d="M23.427 5.07h-1.599v7.214h4.426v-1.413h-2.827V5.07ZM26.407 9.837c0 1.54 1.034 2.564 2.593 2.564 1.55 0 2.584-1.024 2.584-2.564S30.55 7.263 29 7.263c-1.56 0-2.593 1.034-2.593 2.574Zm1.511-.01c0-.73.43-1.218 1.082-1.218.644 0 1.073.487 1.073 1.218 0 .741-.43 1.229-1.073 1.229-.653 0-1.082-.488-1.082-1.229ZM31.825 9.76c0 1.471.956 2.466 2.31 2.466.654 0 1.22-.234 1.502-.615v.673c0 .673-.42 1.121-1.16 1.121-.663 0-1.121-.312-1.15-.867h-1.521c.136 1.335 1.17 2.232 2.583 2.232 1.667 0 2.72-1.082 2.72-2.798V7.41h-1.355l-.078.497c-.273-.4-.848-.663-1.511-.663-1.365 0-2.34 1.024-2.34 2.515Zm1.521-.04c0-.702.468-1.17 1.063-1.17.692 0 1.199.459 1.199 1.17 0 .712-.497 1.2-1.19 1.2-.594 0-1.072-.488-1.072-1.2ZM37.547 9.837c0 1.54 1.033 2.564 2.593 2.564 1.55 0 2.584-1.024 2.584-2.564S41.69 7.263 40.14 7.263c-1.56 0-2.593 1.034-2.593 2.574Zm1.511-.01c0-.73.429-1.218 1.082-1.218.643 0 1.072.487 1.072 1.218 0 .741-.429 1.229-1.072 1.229-.653 0-1.082-.488-1.082-1.229ZM44.018 6.65a.85.85 0 0 0 .848-.859.843.843 0 0 0-.848-.848.845.845 0 0 0-.858.848c0 .478.38.858.858.858Zm-.76 5.634h1.51V7.41h-1.51v4.874ZM45.648 14.624h1.482v-2.827c.283.37.926.624 1.599.624 1.452 0 2.33-1.112 2.291-2.652-.04-1.57-.946-2.515-2.3-2.515-.693 0-1.346.302-1.62.75l-.077-.594h-1.375v7.214Zm1.511-4.777c0-.731.488-1.219 1.19-1.219.711 0 1.16.498 1.16 1.219 0 .721-.449 1.219-1.16 1.219-.702 0-1.19-.488-1.19-1.22ZM51.18 10.744c.038.985.819 1.667 2.047 1.667 1.18 0 1.999-.624 1.999-1.628 0-.722-.43-1.2-1.23-1.394l-.866-.215c-.312-.078-.507-.156-.507-.41 0-.253.204-.418.507-.418.34 0 .565.224.555.555h1.355c-.039-1.014-.809-1.647-1.881-1.647-1.082 0-1.891.643-1.891 1.618 0 .653.36 1.19 1.325 1.443l.858.224c.254.068.36.185.36.351 0 .244-.223.4-.604.4-.438 0-.672-.205-.672-.546H51.18ZM57.524 12.41c.595 0 1.19-.272 1.491-.672l.098.546h1.414V7.41h-1.502v2.534c0 .732-.214 1.131-.906 1.131-.537 0-.888-.243-.888-1.15V7.41H55.73v3.06c0 1.161.644 1.94 1.794 1.94ZM62.907 12.284V9.623c0-.82.439-1.053.868-1.053.477 0 .79.292.79.897v2.817h1.481V9.623c0-.829.43-1.063.858-1.063.478 0 .8.293.8.907v2.817h1.462V9.096c0-1.111-.585-1.852-1.843-1.852-.701 0-1.277.341-1.53.868-.293-.527-.8-.868-1.609-.868-.536 0-1.033.244-1.325.634L62.8 7.41h-1.404v4.874h1.511ZM.404 9.407c0-4.208 0-6.313 1.308-7.62C3.019.48 5.122.48 9.33.48c4.208 0 6.312 0 7.62 1.307 1.307 1.307 1.307 3.412 1.307 7.62s0 6.312-1.308 7.619c-1.307 1.307-3.41 1.307-7.619 1.307-4.208 0-6.312 0-7.62-1.307C.405 15.719.405 13.615.405 9.406Z" fill="#7A7B85"/><path d="M11.117 12.085c.246 0 .45.201.401.443a2.23 2.23 0 0 1-4.374 0c-.049-.242.155-.443.402-.443h3.57ZM12.055 8.414c-.239.064-.384.313-.264.528a1.785 1.785 0 1 0 .28-2.122c-.172.176-.096.455.117.578l.227.13a.446.446 0 0 1-.108.818l-.252.068ZM6.607 8.414c.239.064.384.313.264.528a1.786 1.786 0 1 1-.28-2.122c.173.176.096.455-.117.578l-.227.13a.446.446 0 0 0 .108.818l.252.068Z" fill="#07070A"/></g><defs><clipPath id="clip0_1083_421"><path fill="#fff" transform="translate(.404 .48)" d="M0 0h69.182v17.853H0z"/></clipPath></defs></svg>