<svg width="96" height="26" fill="none" xmlns="http://www.w3.org/2000/svg"><g clip-path="url('#clip0_1083_903')"><path d="M31.981 6.995h-2.213v9.988h6.127v-1.958h-3.914v-8.03ZM36.106 13.595c0 2.132 1.431 3.55 3.59 3.55 2.147 0 3.577-1.418 3.577-3.55 0-2.133-1.43-3.564-3.576-3.564-2.16 0-3.59 1.431-3.59 3.563Zm2.093-.014c0-1.012.593-1.687 1.498-1.687.89 0 1.484.675 1.484 1.687 0 1.026-.593 1.7-1.484 1.7-.905 0-1.498-.674-1.498-1.7ZM43.608 13.487c0 2.038 1.323 3.414 3.199 3.414.904 0 1.687-.324 2.078-.85v.931c0 .932-.58 1.553-1.606 1.553-.918 0-1.552-.432-1.592-1.202H43.58c.189 1.85 1.62 3.091 3.577 3.091 2.308 0 3.765-1.498 3.765-3.874v-6.316h-1.876l-.108.688c-.377-.553-1.174-.918-2.092-.918-1.89 0-3.239 1.418-3.239 3.483Zm2.106-.054c0-.972.647-1.62 1.47-1.62.96 0 1.66.634 1.66 1.62 0 .985-.687 1.66-1.646 1.66-.823 0-1.484-.675-1.484-1.66ZM51.53 13.595c0 2.132 1.43 3.55 3.59 3.55 2.146 0 3.576-1.418 3.576-3.55 0-2.133-1.43-3.564-3.576-3.564-2.16 0-3.59 1.431-3.59 3.563Zm2.091-.014c0-1.012.594-1.687 1.499-1.687.89 0 1.484.675 1.484 1.687 0 1.026-.594 1.7-1.484 1.7-.905 0-1.499-.674-1.499-1.7ZM60.488 9.18c.648 0 1.174-.526 1.174-1.187s-.526-1.174-1.174-1.174A1.17 1.17 0 0 0 59.3 7.993a1.18 1.18 0 0 0 1.188 1.188Zm-1.053 7.802h2.092v-6.748h-2.092v6.748ZM62.746 20.221h2.051v-3.914c.391.513 1.282.864 2.214.864 2.01 0 3.225-1.539 3.172-3.671-.055-2.173-1.31-3.482-3.186-3.482-.958 0-1.862.418-2.24 1.039l-.109-.824h-1.902v9.988Zm2.091-6.613c0-1.013.675-1.687 1.647-1.687.985 0 1.606.688 1.606 1.687 0 .999-.62 1.687-1.606 1.687-.972 0-1.647-.675-1.647-1.687ZM70.404 14.85c.054 1.363 1.134 2.307 2.834 2.307 1.633 0 2.767-.863 2.767-2.254 0-.998-.593-1.66-1.7-1.93l-1.201-.296c-.432-.108-.702-.216-.702-.567s.283-.58.702-.58c.472 0 .782.31.769.769h1.876c-.054-1.404-1.12-2.281-2.605-2.281-1.498 0-2.619.89-2.619 2.24 0 .904.5 1.647 1.836 1.998l1.188.31c.35.095.499.256.499.486 0 .337-.31.553-.837.553-.607 0-.931-.283-.931-.755h-1.876ZM79.186 17.158c.824 0 1.647-.378 2.065-.931l.136.755h1.957v-6.748h-2.08v3.51c0 1.011-.296 1.565-1.254 1.565-.743 0-1.229-.338-1.229-1.593v-3.482h-2.078v4.238c0 1.606.89 2.686 2.483 2.686ZM86.64 16.982v-3.684c0-1.134.607-1.458 1.201-1.458.661 0 1.093.405 1.093 1.242v3.9h2.052v-3.684c0-1.148.593-1.472 1.187-1.472.662 0 1.107.405 1.107 1.256v3.9h2.025V12.57c0-1.539-.81-2.565-2.552-2.565-.97 0-1.767.473-2.118 1.202-.405-.73-1.107-1.202-2.227-1.202-.743 0-1.43.338-1.836.878l-.08-.648h-1.945v6.748h2.093ZM.107 12.998c0-5.826 0-8.739 1.81-10.548C3.727.64 6.64.64 12.466.64s8.739 0 10.549 1.81c1.81 1.81 1.81 4.722 1.81 10.548s0 8.74-1.81 10.55c-1.81 1.809-4.723 1.809-10.55 1.809-5.825 0-8.738 0-10.548-1.81-1.81-1.81-1.81-4.723-1.81-10.549Z" fill="#7A7B85"/><path d="M14.937 16.706c.341 0 .624.28.557.614a3.09 3.09 0 0 1-6.057 0c-.067-.335.215-.614.557-.614h4.943ZM16.236 11.624c-.33.089-.531.434-.364.731a2.47 2.47 0 0 0 3.845.594 2.472 2.472 0 1 0-3.458-3.531c-.239.244-.133.63.163.8l.313.18a.618.618 0 0 1-.149 1.133l-.35.093ZM8.694 11.624c.33.089.532.434.365.731a2.471 2.471 0 1 1-.387-2.937c.239.244.133.63-.163.8l-.313.18a.618.618 0 0 0 .149 1.133l.35.093Z" fill="#07070A"/></g><defs><clipPath id="clip0_1083_903"><path fill="#fff" transform="translate(.106 .64)" d="M0 0h95.78v24.717H0z"/></clipPath></defs></svg>