<svg width="98" height="19" fill="none" xmlns="http://www.w3.org/2000/svg"><g clip-path="url('#clip0_1083_396')" fill="#7A7B85"><path d="M55.272 13.657h2.081v-7.85h-2.081v7.85Zm0-9.074h2.081V2.716h-2.081v1.867ZM58.695 16.228h2.081V12.77h.03c.444.673 1.164 1.117 2.265 1.117 2.02 0 3.398-1.607 3.398-4.147 0-2.449-1.332-4.147-3.413-4.147-1.071 0-1.806.505-2.31 1.193h-.047v-.979h-2.004v10.421Zm3.932-4.07c-1.239 0-1.897-.934-1.897-2.357 0-1.408.52-2.525 1.821-2.525 1.286 0 1.806 1.04 1.806 2.525 0 1.485-.673 2.357-1.73 2.357ZM70.62 13.887c1.96 0 3.306-.949 3.306-2.525 0-1.836-1.454-2.204-2.77-2.48-1.117-.229-2.158-.29-2.158-.963 0-.566.536-.872 1.347-.872.888 0 1.423.306 1.515 1.147h1.882c-.153-1.576-1.3-2.601-3.366-2.601-1.791 0-3.199.81-3.199 2.51 0 1.713 1.378 2.096 2.785 2.371 1.072.215 2.066.291 2.066 1.041 0 .55-.52.903-1.438.903-.934 0-1.577-.398-1.714-1.3h-1.928c.122 1.667 1.392 2.769 3.672 2.769ZM81.827 13.657v-7.85h-2.082v4.53c0 1.04-.596 1.775-1.576 1.775-.887 0-1.3-.505-1.3-1.423V5.807h-2.066v5.234c0 1.713.979 2.83 2.724 2.83 1.102 0 1.714-.412 2.25-1.132h.045v.918h2.005ZM83.173 13.657h2.081v-4.56c0-1.04.566-1.714 1.408-1.714.765 0 1.209.46 1.209 1.347v4.927h2.081v-4.56c0-1.04.536-1.714 1.408-1.714.765 0 1.21.46 1.21 1.347v4.927h2.08v-5.28c0-1.713-.933-2.784-2.586-2.784-.995 0-1.821.52-2.357 1.377h-.03a2.343 2.343 0 0 0-2.173-1.377c-1.087 0-1.852.55-2.28 1.27h-.046V5.807h-2.005v7.85ZM1.03 13.657h2.08V2.716H1.03v10.941ZM8.199 13.887c2.433 0 4.101-1.806 4.101-4.147s-1.668-4.147-4.101-4.147S4.098 7.399 4.098 9.74s1.668 4.147 4.1 4.147Zm0-1.591c-1.286 0-1.99-1.026-1.99-2.556s.704-2.571 1.99-2.571c1.27 0 1.99 1.04 1.99 2.57 0 1.531-.72 2.556-1.99 2.556ZM16.726 16.335c1.163 0 2.173-.275 2.83-.887.582-.536.934-1.286.934-2.387V5.807h-2.004v.826h-.031c-.474-.658-1.194-1.04-2.173-1.04-1.99 0-3.397 1.5-3.397 3.84 0 2.373 1.714 3.75 3.458 3.75.995 0 1.592-.398 2.05-.918h.047v.857c0 1.071-.567 1.637-1.745 1.637-.964 0-1.408-.382-1.576-.872h-2.066c.214 1.53 1.53 2.448 3.673 2.448Zm-.03-4.82c-1.072 0-1.776-.78-1.776-2.112 0-1.316.704-2.142 1.76-2.142 1.255 0 1.867.98 1.867 2.127 0 1.163-.536 2.127-1.852 2.127ZM25.549 13.887c2.433 0 4.101-1.806 4.101-4.147s-1.668-4.147-4.101-4.147-4.101 1.806-4.101 4.147 1.668 4.147 4.1 4.147Zm0-1.591c-1.285 0-1.99-1.026-1.99-2.556s.704-2.571 1.99-2.571c1.27 0 1.99 1.04 1.99 2.57 0 1.531-.72 2.556-1.99 2.556ZM95.407 4.518c0-.352.285-.637.638-.637h1.275a.638.638 0 1 1 0 1.275h-1.275a.638.638 0 0 1-.638-.638Z"/><path fill-rule="evenodd" clip-rule="evenodd" d="M42.271.48a8.927 8.927 0 1 1 0 17.854 8.927 8.927 0 0 1 0-17.854Zm-.322.668c-1.019.143-1.988.962-2.741 2.33a9.287 9.287 0 0 0-.587 1.31 14.934 14.934 0 0 1 3.328-.433V1.148Zm-4.083 3.854c.214-.67.475-1.287.776-1.835.374-.678.816-1.264 1.315-1.714a8.299 8.299 0 0 0-5.64 5.64c.45-.5 1.036-.942 1.715-1.315a10.306 10.306 0 0 1 1.834-.776Zm-.214.754a14.937 14.937 0 0 0-.432 3.328h-3.207c.143-1.018.961-1.988 2.33-2.74a9.297 9.297 0 0 1 1.309-.588Zm.213 3.328c.027-1.288.212-2.497.519-3.565A14.048 14.048 0 0 1 41.949 5v1.394a4.75 4.75 0 0 1-2.69 2.69h-1.394Zm-.645.645h-3.207c.143 1.019.961 1.988 2.33 2.741.397.218.835.415 1.309.587a14.937 14.937 0 0 1-.432-3.328Zm1.164 3.565a14.048 14.048 0 0 1-.519-3.565h1.394a4.75 4.75 0 0 1 2.69 2.69v1.394a14.052 14.052 0 0 1-3.565-.519Zm-.518.518a10.309 10.309 0 0 1-1.834-.776c-.678-.374-1.264-.816-1.714-1.316a8.299 8.299 0 0 0 5.64 5.64c-.5-.45-.942-1.035-1.316-1.714a10.304 10.304 0 0 1-.776-1.834Zm4.083 3.853c-1.019-.143-1.988-.961-2.741-2.33a9.29 9.29 0 0 1-.587-1.309c1.023.257 2.148.409 3.328.432v3.207Zm2.636-.305c.5-.45.942-1.035 1.315-1.714.302-.548.563-1.164.776-1.834a10.31 10.31 0 0 0 1.835-.776c.678-.374 1.264-.816 1.714-1.316a8.3 8.3 0 0 1-5.64 5.64Zm1.337-3.334c-.172.473-.369.912-.587 1.31-.753 1.368-1.723 2.186-2.741 2.33v-3.208a14.94 14.94 0 0 0 3.328-.432Zm.969-.969a9.291 9.291 0 0 0 1.309-.587c1.369-.753 2.187-1.722 2.33-2.74h-3.207a14.96 14.96 0 0 1-.432 3.327Zm-.213-3.328a14.043 14.043 0 0 1-.52 3.565 14.05 14.05 0 0 1-3.564.519V12.42a4.75 4.75 0 0 1 2.69-2.69h1.394Zm.645-.645h3.207c-.143-1.018-.961-1.988-2.33-2.74a9.287 9.287 0 0 0-1.31-.588 14.96 14.96 0 0 1 .433 3.328ZM46.16 5.519c.307 1.068.492 2.277.519 3.565h-1.393a4.75 4.75 0 0 1-2.691-2.69V5c1.288.027 2.497.212 3.565.52Zm.517-.517c.67.213 1.287.474 1.835.776.678.373 1.264.816 1.714 1.315a8.3 8.3 0 0 0-5.64-5.64c.5.45.942 1.036 1.315 1.714a10.3 10.3 0 0 1 .776 1.835Zm-4.082-3.854c1.018.143 1.988.962 2.74 2.33.219.397.416.836.588 1.31a14.938 14.938 0 0 0-3.328-.433V1.148Z"/></g><defs><clipPath id="clip0_1083_396"><path fill="#fff" transform="translate(.661 .48)" d="M0 0h97.301v17.853H0z"/></clipPath></defs></svg>