<svg width="100" height="20" fill="none" xmlns="http://www.w3.org/2000/svg"><g clip-path="url('#clip0_1083_890')" fill="#7A7B85"><path d="M24.205 1.517h2.468V14.98h4.062v2.244h-6.53V1.517ZM35.399 17.45c-1.212 0-2.14-.345-2.783-1.033-.643-.688-.965-1.66-.965-2.917V5.242c0-1.257.322-2.23.965-2.917.644-.689 1.571-1.033 2.783-1.033s2.14.344 2.782 1.033c.644.688.965 1.66.965 2.917V13.5c0 1.257-.321 2.229-.965 2.917-.643.688-1.57 1.032-2.782 1.032Zm0-2.245c.853 0 1.279-.516 1.279-1.548V5.085c0-1.033-.426-1.549-1.28-1.549-.852 0-1.278.516-1.278 1.549v8.572c0 1.032.426 1.548 1.279 1.548ZM44.316 17.45c-1.196 0-2.109-.337-2.737-1.01-.629-.689-.943-1.669-.943-2.94V5.242c0-1.272.314-2.244.943-2.917.628-.689 1.54-1.033 2.737-1.033s2.11.344 2.738 1.033c.628.673.943 1.645.943 2.917v1.346h-2.334V5.085c0-1.033-.426-1.549-1.28-1.549-.852 0-1.278.516-1.278 1.549v8.594c0 1.018.426 1.526 1.279 1.526.852 0 1.279-.508 1.279-1.526v-3.074h-1.234V8.361h3.568V13.5c0 1.271-.315 2.251-.943 2.94-.628.673-1.54 1.01-2.738 1.01ZM53.15 17.45c-1.212 0-2.14-.345-2.783-1.033-.643-.688-.965-1.66-.965-2.917V5.242c0-1.257.322-2.23.965-2.917.643-.689 1.57-1.033 2.782-1.033s2.14.344 2.783 1.033c.643.688.965 1.66.965 2.917V13.5c0 1.257-.322 2.229-.965 2.917-.643.688-1.57 1.032-2.783 1.032Zm0-2.245c.852 0 1.279-.516 1.279-1.548V5.085c0-1.033-.427-1.549-1.28-1.549-.852 0-1.279.516-1.279 1.549v8.572c0 1.032.427 1.548 1.28 1.548ZM58.571 1.517h2.469v15.708H58.57V1.517ZM62.888 1.517h3.636c1.226 0 2.146.329 2.76.987.613.658.92 1.623.92 2.895v1.548c0 1.272-.307 2.237-.92 2.895-.614.658-1.534.987-2.76.987h-1.167v6.396h-2.469V1.517Zm3.636 7.068c.404 0 .703-.112.897-.336.21-.225.314-.606.314-1.145V5.242c0-.539-.104-.92-.314-1.145-.194-.224-.493-.336-.898-.336h-1.166v4.824h1.166ZM74.84 17.45c-1.195 0-2.1-.337-2.714-1.01-.613-.689-.92-1.669-.92-2.94v-.898h2.334v1.077c0 1.018.426 1.526 1.279 1.526.419 0 .733-.12.942-.359.224-.254.337-.658.337-1.212 0-.658-.15-1.234-.449-1.727-.299-.51-.853-1.115-1.66-1.818-1.018-.898-1.729-1.706-2.133-2.424-.403-.733-.605-1.556-.605-2.468 0-1.242.314-2.2.942-2.872.629-.689 1.541-1.033 2.738-1.033 1.182 0 2.072.344 2.67 1.033.614.673.92 1.645.92 2.917v.65h-2.334v-.807c0-.539-.104-.928-.314-1.167-.209-.255-.516-.382-.92-.382-.823 0-1.234.501-1.234 1.504 0 .568.15 1.1.449 1.593.314.494.875 1.092 1.683 1.795 1.032.898 1.743 1.713 2.132 2.446.389.733.583 1.594.583 2.581 0 1.287-.322 2.274-.965 2.962-.628.688-1.548 1.032-2.76 1.032ZM83.573 17.45c-1.197 0-2.11-.337-2.739-1.01-.628-.689-.942-1.669-.942-2.94V1.517h2.469v12.162c0 .539.104.928.314 1.167.224.24.538.36.942.36.404 0 .71-.12.92-.36.224-.239.337-.628.337-1.167V1.517h2.378V13.5c0 1.271-.314 2.251-.942 2.94-.629.673-1.541 1.01-2.737 1.01ZM89.01 1.517h3.524l1.57 11.242h.045L95.72 1.517h3.523v15.708H96.91V5.332h-.044l-1.796 11.893h-2.064L91.21 5.332h-.045v11.893H89.01V1.517ZM.374 17.225a5.499 5.499 0 1 0 0-10.997v3.849a1.65 1.65 0 1 1 0 3.299v3.849Z"/><path d="M18.702 8.06a9.846 9.846 0 0 0-2.978-.458c-5.441 0-9.852 4.411-9.852 9.852 0 .546.045 1.082.13 1.604h6.121a3.94 3.94 0 0 1 6.58-4.184V8.06Z"/><path d="M1.34.73a8.25 8.25 0 0 0 16.396 0h-5.899a2.475 2.475 0 0 1-4.598 0H1.34Z"/></g><defs><clipPath id="clip0_1083_890"><path fill="#fff" transform="translate(.374 .73)" d="M0 0h98.87v18.538H0z"/></clipPath></defs></svg>