<svg width="18" height="18" fill="none" xmlns="http://www.w3.org/2000/svg"><g clip-path="url('#clip0_1083_31')"><path d="M17.24 5.323c0-1.48-1.088-2.67-2.433-2.67-1.822-.085-3.68-.118-5.578-.118h-.592c-1.894 0-3.755.033-5.576.118C1.719 2.653.63 3.85.63 5.329a48.912 48.912 0 0 0-.115 3.512 50.91 50.91 0 0 0 .112 3.515c0 1.48 1.088 2.68 2.43 2.68 1.913.088 3.876.128 5.872.124 1.999.007 3.956-.035 5.872-.125 1.345 0 2.433-1.2 2.433-2.68.08-1.173.115-2.344.112-3.518a47.783 47.783 0 0 0-.107-3.514Zm-9.918 6.743v-6.46l4.768 3.228-4.768 3.232Z" fill="#7A7B85"/></g><defs><clipPath id="clip0_1083_31"><path fill="#fff" transform="translate(.516 .43)" d="M0 0h16.835v16.835H0z"/></clipPath></defs></svg>