<svg width="14" height="15" fill="none" xmlns="http://www.w3.org/2000/svg"><g clip-path="url('#clip0_1083_783')" fill="#7A7B85"><path d="M9.367 2.53a2.486 2.486 0 0 1 2.478 2.479v4.956a2.486 2.486 0 0 1-2.478 2.478H4.411a2.486 2.486 0 0 1-2.478-2.478V5.009A2.486 2.486 0 0 1 4.41 2.53h4.956Zm0-.99H4.411A3.48 3.48 0 0 0 .94 5.008v4.956a3.48 3.48 0 0 0 3.47 3.47h4.956a3.48 3.48 0 0 0 3.47-3.47V5.009a3.48 3.48 0 0 0-3.47-3.47Z"/><path d="M10.11 5.009a.743.743 0 1 1 0-1.487.743.743 0 0 1 0 1.487Zm-3.22.495a1.983 1.983 0 1 1 0 3.965 1.983 1.983 0 0 1 0-3.965Zm0-.991a2.974 2.974 0 1 0 0 5.947 2.974 2.974 0 0 0 0-5.947Z"/></g><defs><clipPath id="clip0_1083_783"><path fill="#fff" transform="translate(.092 .69)" d="M0 0h13.595v13.595H0z"/></clipPath></defs></svg>