<svg width="15" height="15" fill="none" xmlns="http://www.w3.org/2000/svg"><g clip-path="url('#clip0_1096_4560')"><path d="M14.212 4.684c0-1.195-.88-2.156-1.965-2.156a96.56 96.56 0 0 0-4.505-.095h-.477c-1.53 0-3.033.026-4.504.095C1.678 2.528.8 3.495.8 4.69.733 5.634.705 6.58.706 7.525c-.002.945.028 1.891.09 2.838 0 1.195.88 2.164 1.963 2.164 1.545.072 3.13.104 4.742.101a94.679 94.679 0 0 0 4.742-.1c1.086 0 1.965-.97 1.965-2.165.064-.948.093-1.893.09-2.84a38.626 38.626 0 0 0-.086-2.84Zm-8.01 5.446V4.912l3.85 2.608-3.85 2.61Z" fill="#7A7B85"/></g><defs><clipPath id="clip0_1096_4560"><path fill="#fff" transform="translate(.706 .733)" d="M0 0h13.595v13.595H0z"/></clipPath></defs></svg>