<svg width="126" height="26" fill="none" xmlns="http://www.w3.org/2000/svg"><g clip-path="url('#clip0_1083_839')" fill="#7A7B85"><path fill-rule="evenodd" clip-rule="evenodd" d="M16.732 7.86a6.18 6.18 0 0 0-3.433-1.041V.639A12.359 12.359 0 1 1 .939 13h6.18a6.18 6.18 0 1 0 9.613-5.139Z"/><path fill-rule="evenodd" clip-rule="evenodd" d="M7.12.64A6.18 6.18 0 0 1 .94 6.819v6.18A12.358 12.358 0 0 0 13.299.638h-6.18Z"/><path d="M78.564 9.57h-2.998v9.524h2.998V9.57ZM75.9 7.787c.313.314.705.47 1.175.47.47 0 .856-.156 1.156-.47.301-.326.451-.718.451-1.176 0-.47-.15-.862-.45-1.175-.301-.314-.687-.47-1.157-.47s-.862.156-1.175.47c-.301.313-.451.705-.451 1.175 0 .458.15.85.45 1.176ZM32.551 19.094V5.26h3.077V16.39h6.134v2.704h-9.21Z"/><path fill-rule="evenodd" clip-rule="evenodd" d="M47.302 19.31c-.98 0-1.868-.216-2.665-.647a5.032 5.032 0 0 1-1.862-1.803c-.457-.757-.686-1.606-.686-2.547 0-.94.229-1.783.686-2.528a4.932 4.932 0 0 1 1.862-1.764c.784-.444 1.672-.666 2.665-.666.993 0 1.881.216 2.665.647a4.884 4.884 0 0 1 1.862 1.783c.457.745.686 1.587.686 2.528 0 .94-.229 1.79-.686 2.547a5.032 5.032 0 0 1-1.862 1.803c-.784.431-1.672.647-2.665.647Zm0-2.724c.431 0 .81-.091 1.137-.274.326-.196.574-.464.744-.804.183-.352.275-.751.275-1.195 0-.444-.092-.83-.275-1.156a1.92 1.92 0 0 0-.764-.784c-.314-.196-.686-.294-1.117-.294-.418 0-.79.098-1.117.294a1.921 1.921 0 0 0-.764.784c-.183.34-.275.731-.275 1.175 0 .432.092.823.275 1.176.183.34.437.608.764.804.327.183.699.274 1.117.274ZM54.89 22.818c.796.365 1.717.548 2.762.548 1.02 0 1.927-.202 2.724-.607a4.707 4.707 0 0 0 1.881-1.685c.458-.719.687-1.568.687-2.548V9.571h-2.94v.64a3.168 3.168 0 0 0-.745-.464c-.51-.248-1.09-.372-1.744-.372-.875 0-1.653.209-2.332.627a4.338 4.338 0 0 0-1.607 1.685c-.392.705-.588 1.502-.588 2.39 0 .876.196 1.673.588 2.391a4.483 4.483 0 0 0 1.607 1.705c.68.418 1.457.627 2.332.627.64 0 1.221-.124 1.744-.372.253-.12.482-.262.686-.425v.601c0 .667-.216 1.183-.647 1.549-.418.365-1 .548-1.744.548-.6 0-1.117-.104-1.548-.313a3.572 3.572 0 0 1-1.136-.921l-1.842 1.842c.457.653 1.077 1.156 1.861 1.509Zm4.271-6.957c-.3.183-.66.274-1.078.274-.418 0-.784-.091-1.097-.274a1.933 1.933 0 0 1-.705-.745 2.219 2.219 0 0 1-.255-1.038c0-.392.085-.745.255-1.058a1.89 1.89 0 0 1 .724-.745A2.1 2.1 0 0 1 58.084 12c.418 0 .778.092 1.078.275.314.183.549.43.706.745.17.313.254.666.254 1.058s-.085.744-.254 1.058c-.157.3-.392.542-.706.725ZM69.253 19.31c-.98 0-1.868-.216-2.665-.647a5.03 5.03 0 0 1-1.862-1.803c-.457-.757-.686-1.606-.686-2.547 0-.94.23-1.783.686-2.528a4.93 4.93 0 0 1 1.862-1.764c.784-.444 1.672-.666 2.665-.666.993 0 1.881.216 2.665.647a4.884 4.884 0 0 1 1.862 1.783c.457.745.686 1.587.686 2.528 0 .94-.229 1.79-.686 2.547a5.031 5.031 0 0 1-1.862 1.803c-.784.431-1.672.647-2.665.647Zm0-2.724c.431 0 .81-.091 1.137-.274.326-.196.575-.464.744-.804.183-.352.275-.751.275-1.195 0-.444-.092-.83-.275-1.156a1.92 1.92 0 0 0-.764-.784c-.313-.196-.686-.294-1.117-.294-.418 0-.79.098-1.117.294a1.92 1.92 0 0 0-.764.784c-.183.34-.275.731-.275 1.175 0 .432.092.823.275 1.176.183.34.437.608.764.804.327.183.7.274 1.117.274ZM85.77 19.29c-.64 0-1.227-.124-1.763-.372a3.75 3.75 0 0 1-.764-.468v4.662h-2.96V9.57h2.999v.657c.217-.178.459-.332.725-.462a3.97 3.97 0 0 1 1.763-.391c.902 0 1.699.215 2.391.646a4.458 4.458 0 0 1 1.646 1.764c.406.745.608 1.594.608 2.547 0 .954-.202 1.803-.608 2.548a4.458 4.458 0 0 1-1.646 1.764c-.692.43-1.49.646-2.39.646Zm-.548-2.704c.43 0 .803-.098 1.117-.294.327-.196.581-.464.764-.803a2.4 2.4 0 0 0 .275-1.157c0-.444-.092-.836-.275-1.175a1.92 1.92 0 0 0-.764-.784 2.026 2.026 0 0 0-1.098-.294c-.417 0-.79.098-1.116.294a1.958 1.958 0 0 0-.745.784c-.183.34-.274.731-.274 1.175 0 .431.085.817.254 1.157.183.34.438.607.765.803a2.09 2.09 0 0 0 1.097.294Z"/><path d="M93.35 19.114a6.541 6.541 0 0 0 1.665.215c1.189 0 2.13-.274 2.822-.823.705-.549 1.058-1.287 1.058-2.214 0-.601-.11-1.085-.333-1.45a2.592 2.592 0 0 0-.862-.902 5.144 5.144 0 0 0-1.118-.529c-.391-.13-.764-.242-1.116-.333a4.043 4.043 0 0 1-.863-.314c-.222-.117-.333-.274-.333-.47 0-.183.086-.32.255-.411.17-.105.424-.157.764-.157.353 0 .712.072 1.078.215.379.144.718.392 1.019.745l1.705-1.724a3.936 3.936 0 0 0-1.685-1.235 5.674 5.674 0 0 0-2.234-.431c-.77 0-1.444.13-2.018.392-.576.261-1.02.62-1.333 1.078-.314.444-.47.973-.47 1.587 0 .575.11 1.052.332 1.43.222.366.51.654.862.863.353.209.726.372 1.118.49l1.117.333c.352.091.64.202.862.333.235.117.353.294.353.529 0 .183-.098.326-.294.431-.183.105-.45.157-.804.157-.51 0-.98-.092-1.41-.274a3.436 3.436 0 0 1-1.118-.804l-1.704 1.725c.326.352.718.666 1.175.94.47.261.974.464 1.51.608ZM104.363 19.31c-.875 0-1.653-.177-2.332-.53a4.083 4.083 0 0 1-1.567-1.489c-.38-.64-.569-1.372-.569-2.195V9.57h2.998v5.487c0 .327.052.608.157.843a1.3 1.3 0 0 0 .509.549c.223.13.49.196.804.196.444 0 .797-.138 1.058-.412.262-.287.392-.68.392-1.176V9.57h2.998v5.507c0 .836-.189 1.574-.568 2.214a4.092 4.092 0 0 1-1.568 1.49c-.666.352-1.437.529-2.312.529ZM113.299 9.57h-2.998v9.524h2.998V13.53c0-.327.066-.601.196-.823a1.43 1.43 0 0 1 .569-.51c.235-.13.503-.196.803-.196.432 0 .791.138 1.078.412.301.261.451.634.451 1.117v5.565h2.998V13.53c0-.327.066-.601.196-.823.144-.222.333-.392.569-.51.234-.13.503-.196.803-.196.431 0 .79.138 1.078.412.3.261.45.634.45 1.117v5.565h2.999v-5.898c0-.797-.17-1.476-.51-2.038a3.272 3.272 0 0 0-1.352-1.313c-.562-.314-1.209-.47-1.94-.47-.745 0-1.418.163-2.018.49a3.65 3.65 0 0 0-1.024.805 3.34 3.34 0 0 0-.995-.845c-.522-.3-1.117-.45-1.783-.45-.706 0-1.339.15-1.901.45a3.329 3.329 0 0 0-.667.45V9.57Z"/></g><defs><clipPath id="clip0_1083_839"><path fill="#fff" transform="translate(.94 .64)" d="M0 0h124.823v24.717H0z"/></clipPath></defs></svg>