<svg width="84" height="19" fill="none" xmlns="http://www.w3.org/2000/svg"><g clip-path="url('#clip0_1083_384')" fill="#7A7B85"><path fill-rule="evenodd" clip-rule="evenodd" d="M26.479 1.475c0-.62.508-1.123 1.135-1.123h1.978c.446 0 .878.153 1.223.433l.602.488.015.013a2.67 2.67 0 0 1 .042-.013c1.085-.344 2.402-.41 3.746-.41 1.344 0 2.66.066 3.746.41l.041.013.016-.013.601-.488c.345-.28.777-.433 1.224-.433h1.977c.627 0 1.135.503 1.135 1.123v.694a1.9 1.9 0 0 1-.63 1.41l-.485.438a2.049 2.049 0 0 1-.83.454l-.115.031c.45 1.062.698 2.196.698 3.114 0 3.692-2.31 5.286-4.344 6.691-1.602 1.106-3.034 2.095-3.034 3.898 0-1.803-1.432-2.792-3.035-3.898-2.035-1.405-4.344-3-4.344-6.691 0-.918.249-2.052.698-3.114l-.115-.031a2.05 2.05 0 0 1-.83-.454l-.485-.437a1.9 1.9 0 0 1-.63-1.411v-.694Zm10.216 9.16a.634.634 0 0 1-.216.47.781.781 0 0 1-.521.194.79.79 0 0 1-.463-.147c.222.588.79 1.145 1.655.25.762-.833-.035-2.588-.81-3.63-.26-.347-.684-.514-1.12-.514-.436 0-.861.167-1.12.514-.776 1.042-1.573 2.797-.81 3.63.864.895 1.432.338 1.654-.25a.79.79 0 0 1-.462.147.78.78 0 0 1-.522-.195.634.634 0 0 1-.216-.47h2.951Zm-4.3-5.197h-2.057l1.62 1.283c.357.282.878.192 1.099-.19.278-.483-.092-1.093-.663-1.093Zm5.65 0h2.056L38.48 6.72c-.357.282-.878.192-1.098-.19-.279-.483.091-1.093.662-1.093Z"/><path d="M46.41 12.998h1.82v-6.87h-1.82v6.87Zm0-7.94h1.82V3.424h-1.82v1.634ZM49.403 15.248h1.821V12.22h.027c.389.59 1.018.978 1.982.978 1.767 0 2.973-1.406 2.973-3.629 0-2.142-1.166-3.629-2.987-3.629-.937 0-1.58.442-2.021 1.045h-.04v-.857h-1.755v9.119Zm3.442-3.562c-1.085 0-1.66-.817-1.66-2.062 0-1.232.454-2.21 1.593-2.21 1.124 0 1.58.91 1.58 2.21 0 1.298-.59 2.062-1.513 2.062ZM59.839 13.199c1.714 0 2.892-.83 2.892-2.21 0-1.606-1.272-1.928-2.424-2.169-.977-.2-1.888-.254-1.888-.843 0-.496.469-.764 1.179-.764.776 0 1.245.268 1.325 1.005h1.647c-.134-1.38-1.138-2.277-2.946-2.277-1.566 0-2.798.71-2.798 2.196 0 1.5 1.205 1.835 2.437 2.076.937.187 1.808.254 1.808.91 0 .482-.456.79-1.26.79-.816 0-1.378-.348-1.499-1.138h-1.687c.107 1.46 1.218 2.424 3.214 2.424ZM69.645 12.998v-6.87h-1.822v3.964c0 .91-.522 1.553-1.379 1.553-.776 0-1.138-.441-1.138-1.245V6.13H63.5v4.58c0 1.499.857 2.476 2.383 2.476.964 0 1.5-.361 1.968-.99h.04v.803h1.755ZM70.823 12.998h1.82v-3.99c0-.91.496-1.5 1.233-1.5.67 0 1.057.402 1.057 1.178v4.312h1.821v-3.99c0-.91.47-1.5 1.232-1.5.67 0 1.058.402 1.058 1.178v4.312h1.821v-4.62c0-1.5-.816-2.437-2.263-2.437-.87 0-1.593.456-2.062 1.206h-.027a2.05 2.05 0 0 0-1.9-1.206c-.952 0-1.621.482-1.996 1.112h-.04v-.924h-1.754v6.869ZM.434 12.998h1.821V3.424H.435v9.574ZM6.708 13.199c2.129 0 3.588-1.58 3.588-3.629s-1.46-3.629-3.588-3.629c-2.13 0-3.589 1.58-3.589 3.63 0 2.048 1.46 3.628 3.589 3.628Zm0-1.393c-1.125 0-1.741-.897-1.741-2.236 0-1.339.616-2.25 1.74-2.25 1.112 0 1.741.911 1.741 2.25 0 1.34-.629 2.236-1.74 2.236ZM14.169 15.341c1.018 0 1.901-.24 2.477-.776.509-.47.817-1.125.817-2.09V6.13h-1.754v.723h-.027c-.415-.576-1.044-.91-1.901-.91-1.741 0-2.973 1.312-2.973 3.36 0 2.076 1.5 3.28 3.026 3.28.87 0 1.393-.347 1.795-.803h.04v.75c0 .938-.496 1.433-1.527 1.433-.843 0-1.232-.335-1.379-.763h-1.808c.188 1.339 1.34 2.142 3.214 2.142Zm-.027-4.218c-.937 0-1.553-.682-1.553-1.847 0-1.152.616-1.875 1.54-1.875 1.098 0 1.633.857 1.633 1.861 0 1.018-.468 1.861-1.62 1.861ZM21.89 13.199c2.128 0 3.588-1.58 3.588-3.629s-1.46-3.629-3.589-3.629-3.588 1.58-3.588 3.63c0 2.048 1.46 3.628 3.588 3.628Zm0-1.393c-1.125 0-1.741-.897-1.741-2.236 0-1.339.616-2.25 1.74-2.25 1.112 0 1.741.911 1.741 2.25 0 1.34-.63 2.236-1.74 2.236ZM80.783 4.63c0-.309.25-.559.558-.559h1.116a.558.558 0 0 1 0 1.116h-1.116a.558.558 0 0 1-.558-.558Z"/></g><defs><clipPath id="clip0_1083_384"><path fill="#fff" transform="translate(.129 .257)" d="M0 0h83.018v18.3H0z"/></clipPath></defs></svg>