<svg width="136" height="26" fill="none" xmlns="http://www.w3.org/2000/svg"><g clip-path="url('#clip0_1083_878')" fill="#7A7B85"><path d="M76.408 18.884h2.881V8.015h-2.881v10.869Zm0-12.564h2.881V3.735h-2.881V6.32ZM81.146 22.443h2.881v-4.788h.042c.615.932 1.61 1.546 3.136 1.546 2.797 0 4.704-2.224 4.704-5.741 0-3.39-1.844-5.742-4.725-5.742-1.483 0-2.5.7-3.2 1.653h-.063V8.015h-2.775v14.428Zm5.445-5.636c-1.716 0-2.627-1.292-2.627-3.262 0-1.95.72-3.496 2.521-3.496 1.78 0 2.5 1.44 2.5 3.495 0 2.056-.932 3.263-2.394 3.263ZM97.656 19.201c2.712 0 4.577-1.313 4.577-3.495 0-2.543-2.013-3.051-3.835-3.433-1.547-.317-2.987-.402-2.987-1.334 0-.784.741-1.208 1.864-1.208 1.229 0 1.97.424 2.097 1.589h2.606c-.211-2.182-1.801-3.602-4.66-3.602-2.48 0-4.429 1.123-4.429 3.475 0 2.373 1.907 2.902 3.856 3.284 1.483.296 2.86.402 2.86 1.44 0 .763-.72 1.25-1.99 1.25-1.294 0-2.183-.55-2.374-1.8h-2.67c.17 2.309 1.929 3.834 5.085 3.834ZM113.172 18.883V8.015h-2.882v6.27c0 1.441-.826 2.458-2.182 2.458-1.229 0-1.8-.699-1.8-1.97V8.015h-2.861v7.245c0 2.373 1.356 3.92 3.772 3.92 1.525 0 2.372-.572 3.114-1.568h.064v1.271h2.775ZM115.036 18.884h2.881V12.57c0-1.44.784-2.373 1.95-2.373 1.059 0 1.673.636 1.673 1.865v6.822h2.881V12.57c0-1.44.742-2.373 1.949-2.373 1.06 0 1.674.636 1.674 1.865v6.822h2.882v-7.31c0-2.373-1.293-3.856-3.581-3.856-1.377 0-2.521.72-3.263 1.907h-.042c-.529-1.144-1.631-1.907-3.009-1.907-1.504 0-2.563.763-3.156 1.759h-.064V8.015h-2.775v10.869ZM1.31 18.884h2.88V3.735H1.31v15.149ZM11.236 19.201c3.369 0 5.678-2.5 5.678-5.741 0-3.242-2.31-5.742-5.678-5.742-3.369 0-5.678 2.5-5.678 5.742 0 3.241 2.31 5.741 5.678 5.741Zm0-2.203c-1.78 0-2.754-1.42-2.754-3.538 0-2.119.974-3.56 2.754-3.56 1.758 0 2.754 1.441 2.754 3.56 0 2.118-.995 3.538-2.754 3.538ZM23.041 22.591c1.61 0 3.009-.381 3.92-1.229.805-.741 1.292-1.78 1.292-3.305V8.015h-2.775v1.144h-.043c-.656-.911-1.652-1.44-3.008-1.44-2.754 0-4.703 2.076-4.703 5.317 0 3.284 2.372 5.19 4.788 5.19 1.377 0 2.203-.55 2.839-1.27h.063v1.186c0 1.483-.784 2.267-2.415 2.267-1.335 0-1.95-.53-2.182-1.208h-2.86c.296 2.119 2.118 3.39 5.084 3.39ZM23 15.917c-1.483 0-2.458-1.08-2.458-2.923 0-1.822.975-2.966 2.437-2.966 1.737 0 2.585 1.355 2.585 2.944 0 1.61-.742 2.945-2.564 2.945ZM35.257 19.201c3.368 0 5.678-2.5 5.678-5.741 0-3.242-2.31-5.742-5.678-5.742-3.369 0-5.678 2.5-5.678 5.742 0 3.241 2.309 5.741 5.678 5.741Zm0-2.203c-1.78 0-2.755-1.42-2.755-3.538 0-2.119.975-3.56 2.755-3.56 1.758 0 2.754 1.441 2.754 3.56 0 2.118-.996 3.538-2.754 3.538ZM131.972 6.23c0-.487.396-.882.883-.882h1.766a.883.883 0 0 1 0 1.765h-1.766a.883.883 0 0 1-.883-.883Z"/><path fill-rule="evenodd" clip-rule="evenodd" d="M58.409.64c6.825 0 12.359 5.533 12.359 12.358 0 6.826-5.534 12.359-12.359 12.359S46.05 19.824 46.05 12.998C46.05 6.173 51.584.64 58.41.64Zm-.447.924c-1.41.199-2.752 1.332-3.794 3.227-.303.55-.575 1.156-.813 1.812a20.675 20.675 0 0 1 4.607-.599v-4.44ZM52.31 6.9a14.27 14.27 0 0 1 1.075-2.54c.517-.94 1.13-1.75 1.82-2.373a11.49 11.49 0 0 0-7.808 7.808c.623-.691 1.434-1.304 2.374-1.82A14.269 14.269 0 0 1 52.31 6.9Zm-.296 1.044a20.677 20.677 0 0 0-.599 4.608h-4.44c.198-1.41 1.331-2.753 3.226-3.795.55-.302 1.157-.575 1.813-.813Zm.295 4.608c.037-1.783.293-3.457.718-4.936 1.479-.424 3.152-.681 4.935-.718v1.93a6.575 6.575 0 0 1-3.724 3.724h-1.93Zm-.894.893h-4.44c.198 1.41 1.331 2.753 3.226 3.795.55.302 1.157.575 1.813.812a20.678 20.678 0 0 1-.599-4.607Zm1.612 4.935c-.425-1.478-.681-3.152-.718-4.935h1.929a6.576 6.576 0 0 1 3.724 3.724v1.93c-1.783-.037-3.456-.294-4.935-.719Zm-.717.717a14.272 14.272 0 0 1-2.54-1.075c-.939-.516-1.75-1.13-2.373-1.82a11.49 11.49 0 0 0 7.808 7.808c-.69-.623-1.303-1.434-1.82-2.373a14.267 14.267 0 0 1-1.075-2.54Zm5.652 5.335c-1.41-.198-2.752-1.331-3.794-3.226a12.852 12.852 0 0 1-.813-1.812c1.417.356 2.974.566 4.607.598v4.44Zm3.65-.422c.691-.623 1.304-1.434 1.821-2.373.417-.759.78-1.613 1.075-2.54.927-.296 1.78-.657 2.54-1.075.939-.516 1.75-1.13 2.373-1.82a11.49 11.49 0 0 1-7.809 7.808Zm1.851-4.616a12.91 12.91 0 0 1-.813 1.812c-1.042 1.895-2.384 3.028-3.794 3.226v-4.44a20.683 20.683 0 0 0 4.607-.598Zm1.341-1.342c.656-.237 1.263-.51 1.813-.812 1.895-1.042 3.027-2.385 3.226-3.795h-4.44a20.707 20.707 0 0 1-.599 4.607Zm-.295-4.607c-.037 1.783-.293 3.457-.718 4.935-1.479.425-3.153.682-4.935.719V17.17a6.576 6.576 0 0 1 3.724-3.725h1.93Zm.894-.893h4.44c-.199-1.41-1.331-2.753-3.226-3.795a12.855 12.855 0 0 0-1.813-.813c.356 1.417.566 2.974.599 4.608Zm-1.612-4.936c.425 1.48.681 3.153.718 4.936h-1.928a6.575 6.575 0 0 1-3.725-3.726V6.898c1.782.037 3.456.294 4.935.718Zm.717-.716c.927.295 1.78.657 2.54 1.074.939.517 1.75 1.13 2.373 1.82a11.49 11.49 0 0 0-7.809-7.807c.691.623 1.304 1.434 1.821 2.373.417.759.78 1.612 1.075 2.54Zm-5.652-5.336c1.41.199 2.752 1.332 3.794 3.227.302.55.575 1.156.813 1.812a20.681 20.681 0 0 0-4.607-.599v-4.44Z"/></g><defs><clipPath id="clip0_1083_878"><path fill="#fff" transform="translate(.8 .64)" d="M0 0h134.71v24.717H0z"/></clipPath></defs></svg>