<svg width="18" height="18" fill="none" xmlns="http://www.w3.org/2000/svg"><g filter="url('#filter0_d_1083_204')"><path d="M12.052 4.387H3.11a.894.894 0 0 0-.894.894v3.13c0 2.945 1.426 4.73 2.622 5.71 1.289 1.054 2.57 1.412 2.627 1.426.076.021.157.021.234 0 .056-.014 1.336-.372 2.627-1.426 1.193-.98 2.619-2.765 2.619-5.71V5.28a.894.894 0 0 0-.894-.894Zm-4.47 10.26a7.167 7.167 0 0 1-2.176-1.218c-1.299-1.063-2.05-2.448-2.245-4.125h4.42V5.281h4.47v3.13c0 .298-.016.597-.05.893h-4.42v5.344Z" fill="#96EA63"/></g><defs><filter id="filter0_d_1083_204" x=".76" y=".016" width="16.557" height="17.004" filterUnits="userSpaceOnUse" color-interpolation-filters="sRGB"><feFlood flood-opacity="0" result="BackgroundImageFix"/><feColorMatrix in="SourceAlpha" values="0 0 0 0 0 0 0 0 0 0 0 0 0 0 0 0 0 0 127 0" result="hardAlpha"/><feOffset dx="1.457" dy="-1.457"/><feGaussianBlur stdDeviation="1.457"/><feColorMatrix values="0 0 0 0 0.654902 0 0 0 0 0.941176 0 0 0 0 0.458824 0 0 0 0.2 0"/><feBlend in2="BackgroundImageFix" result="effect1_dropShadow_1083_204"/><feBlend in="SourceGraphic" in2="effect1_dropShadow_1083_204" result="shape"/></filter></defs></svg>