<svg width="23" height="16" fill="none" xmlns="http://www.w3.org/2000/svg"><path d="M18.334.775c0 .831-.115 1.604-.316 2.349a9.528 9.528 0 0 1-.887 2.062 7.113 7.113 0 0 1-1.375 1.69 9.482 9.482 0 0 1-1.747 1.289c.63.344 1.231.773 1.747 1.26a7.113 7.113 0 0 1 1.375 1.69c.372.63.687 1.317.887 2.034.23.744.316 1.518.316 2.348h-2.492c0-.745-.144-1.46-.43-2.205a5.895 5.895 0 0 0-1.232-1.976c-.515-.602-1.174-1.06-1.918-1.433-.745-.372-1.604-.544-2.521-.544V6.991c.888 0 1.69-.172 2.435-.516A6.313 6.313 0 0 0 14.123 5.1a5.97 5.97 0 0 0 1.26-1.976 5.92 5.92 0 0 0 .459-2.349h2.492Zm4.41 0c0 .688-.086 1.404-.229 2.12a11.906 11.906 0 0 1-.601 2.033c-.258.66-.573 1.232-.917 1.805a7.297 7.297 0 0 1-1.174 1.432c.458.372.86.86 1.231 1.403.373.545.66 1.146.917 1.805.258.659.43 1.317.573 2.033.143.716.2 1.432.2 2.148h-2.492c-.085-1.804-.43-3.322-1.06-4.496a7.446 7.446 0 0 0-2.663-2.836c1.146-.773 2.034-1.718 2.664-2.893.63-1.174.973-2.663 1.06-4.468h2.491V.775Z" fill="#000"/><path d="M5.315.775c0 .831.114 1.604.315 2.349.229.745.515 1.432.888 2.062.372.63.83 1.203 1.374 1.69A9.482 9.482 0 0 0 9.64 8.165a8.479 8.479 0 0 0-1.747 1.26 7.114 7.114 0 0 0-1.374 1.69 8.59 8.59 0 0 0-.888 2.034c-.23.744-.315 1.518-.315 2.348h2.491c0-.745.144-1.46.43-2.205a5.894 5.894 0 0 1 1.232-1.976c.515-.602 1.174-1.06 1.919-1.433.744-.372 1.604-.544 2.52-.544V6.991c-.888 0-1.69-.172-2.434-.516A6.313 6.313 0 0 1 9.524 5.1a5.97 5.97 0 0 1-1.26-1.976A5.921 5.921 0 0 1 7.806.775H5.315Zm-4.411 0c0 .688.086 1.404.229 2.12.143.716.344 1.375.601 2.033.258.66.573 1.232.917 1.805a7.296 7.296 0 0 0 1.174 1.432c-.458.372-.859.86-1.231 1.403-.373.545-.66 1.146-.917 1.805-.258.659-.43 1.317-.573 2.033-.143.716-.2 1.432-.2 2.148h2.492c.086-1.804.43-3.322 1.06-4.496a7.446 7.446 0 0 1 2.663-2.836C5.973 7.45 5.085 6.504 4.455 5.33c-.63-1.174-.973-2.663-1.06-4.468H.905V.775Z" fill="#000"/></svg>