<svg width="13" height="13" fill="none" xmlns="http://www.w3.org/2000/svg"><path d="M12.32 1.576a.94.94 0 0 0-.883-.883c-.74-.044-2.63.024-4.2 1.593l-.279.282h-3.43a.936.936 0 0 0-.669.276L.842 4.862a.941.941 0 0 0 .534 1.597l2.262.316 2.6 2.6.316 2.264a.937.937 0 0 0 .934.809.933.933 0 0 0 .664-.276l2.019-2.017a.935.935 0 0 0 .275-.668v-3.43l.28-.281c1.57-1.57 1.637-3.46 1.593-4.2ZM3.527 3.509h2.49L3.691 5.834l-2.185-.305 2.02-2.02Zm4.376-.555a4.508 4.508 0 0 1 3.476-1.322 4.496 4.496 0 0 1-1.319 3.48L6.683 8.49 4.525 6.332l3.379-3.378Zm1.601 6.533-2.019 2.02-.305-2.185 2.324-2.325v2.49Zm-4.361.559c-.265.58-1.15 1.932-3.637 1.932a.47.47 0 0 1-.47-.47c0-2.487 1.352-3.373 1.932-3.638a.47.47 0 0 1 .39.857c-.378.172-1.212.726-1.36 2.288 1.562-.147 2.118-.982 2.289-1.36a.47.47 0 0 1 .856.39Z" fill="#96EA63"/></svg>