<svg width="15" height="10" fill="none" xmlns="http://www.w3.org/2000/svg"><path d="M6.794 6.732a3.529 3.529 0 1 0-3.91 0A5.636 5.636 0 0 0 .105 8.95a.47.47 0 1 0 .788.514 4.705 4.705 0 0 1 7.889 0 .47.47 0 0 0 .788-.514 5.636 5.636 0 0 0-2.777-2.218ZM2.251 3.796a2.588 2.588 0 1 1 5.175 0 2.588 2.588 0 0 1-5.175 0ZM14.61 9.601a.47.47 0 0 1-.651-.137 4.695 4.695 0 0 0-3.945-2.14.47.47 0 1 1 0-.94 2.588 2.588 0 1 0-.961-4.992.47.47 0 1 1-.35-.873 3.529 3.529 0 0 1 3.267 6.213 5.636 5.636 0 0 1 2.776 2.218.47.47 0 0 1-.136.65Z" fill="#E8E9EA"/></svg>