<svg width="14" height="14" fill="none" xmlns="http://www.w3.org/2000/svg"><path d="M12.652 3.337 7.477.505a.937.937 0 0 0-.904 0L1.398 3.34a.94.94 0 0 0-.49.823v5.625a.941.941 0 0 0 .49.823l5.175 2.833a.934.934 0 0 0 .904 0l5.175-2.833a.94.94 0 0 0 .49-.823V4.162a.942.942 0 0 0-.49-.825ZM9.378 8.386v2.946l-1.882 1.03V7.253L12.2 4.677V6.56L9.623 7.971a.47.47 0 0 0-.244.415Zm-4.95-.412L1.85 6.563V4.68l4.705 2.576v5.109l-1.882-1.034V8.386a.47.47 0 0 0-.245-.412Zm-.041-5.2 2.411 1.321a.47.47 0 0 0 .452 0l2.411-1.32 2.028 1.11-4.664 2.553L2.36 3.883l2.028-1.108Zm2.638-1.446 1.659.909-1.659.908-1.658-.908 1.658-.909ZM1.85 7.635l1.882 1.03v2.153L1.85 9.787V7.634Zm8.469 3.183V8.665l1.881-1.03v2.152l-1.881 1.03Z" fill="#96EA63"/></svg>