<svg width="13" height="9" fill="none" xmlns="http://www.w3.org/2000/svg"><path d="M3.501 5.013a.193.193 0 0 1-.193.202H1.181a.386.386 0 0 1-.298-.631c.34-.452.792-.807 1.31-1.032a1.929 1.929 0 1 1 3.205-1.726.19.19 0 0 1-.11.201 3.09 3.09 0 0 0-1.787 2.986Zm8.776-.43c-.34-.45-.79-.806-1.307-1.03a1.93 1.93 0 1 0-3.205-1.727.19.19 0 0 0 .11.201A3.09 3.09 0 0 1 9.667 4.83c0 .062 0 .123-.006.184a.193.193 0 0 0 .193.202h2.127a.386.386 0 0 0 .298-.632h-.003ZM7.986 6.665a2.315 2.315 0 1 0-2.815 0 3.478 3.478 0 0 0-1.624 1.443.386.386 0 0 0 .334.579h5.4a.386.386 0 0 0 .335-.579 3.479 3.479 0 0 0-1.627-1.443h-.003Z" fill="#96EA63"/></svg>