<svg width="15" height="15" fill="none" xmlns="http://www.w3.org/2000/svg"><path d="M7.582.415a7.183 7.183 0 1 0 7.183 7.183A7.19 7.19 0 0 0 7.582.415Zm-4.67 3.296 1.18 1.18a4.397 4.397 0 0 0-.898 2.155H1.529A6.05 6.05 0 0 1 2.913 3.71ZM1.53 8.151h1.668c.1.786.41 1.531.898 2.155l-1.182 1.18A6.05 6.05 0 0 1 1.529 8.15Zm5.5 5.5a6.05 6.05 0 0 1-3.335-1.381l1.18-1.18c.624.487 1.37.795 2.155.893v1.668Zm0-10.437c-.786.1-1.531.41-2.156.898L3.694 2.929A6.05 6.05 0 0 1 7.03 1.548v1.666Zm6.605 3.832h-1.668a4.397 4.397 0 0 0-.894-2.156l1.179-1.179a6.05 6.05 0 0 1 1.383 3.335Zm-5.5-5.5a6.05 6.05 0 0 1 3.335 1.381l-1.18 1.181a4.397 4.397 0 0 0-2.155-.898V1.546Zm0 12.105v-1.668a4.397 4.397 0 0 0 2.156-.895l1.179 1.18a6.05 6.05 0 0 1-3.335 1.383Zm4.117-2.165-1.18-1.18c.488-.624.797-1.37.895-2.155h1.668a6.05 6.05 0 0 1-1.383 3.335Z" fill="#96EA63"/></svg>