<svg width="15" height="11" fill="none" xmlns="http://www.w3.org/2000/svg"><path d="M13.402 6.533a5.686 5.686 0 0 0-2.356-3.317h3.47a.47.47 0 1 0 0-.941H9.752a1.882 1.882 0 0 0-3.647 0H1.342a.47.47 0 0 0 0 .94h3.47a5.686 5.686 0 0 0-2.357 3.318 1.882 1.882 0 1 0 .95.094 4.74 4.74 0 0 1 2.818-3.092 1.882 1.882 0 0 0 3.415 0 4.74 4.74 0 0 1 2.814 3.092 1.882 1.882 0 1 0 .95-.093ZM3.694 8.391a.94.94 0 1 1-1.882 0 .94.94 0 0 1 1.882 0ZM7.93 3.686a.94.94 0 1 1 0-1.882.94.94 0 0 1 0 1.882Zm5.175 5.646a.94.94 0 1 1 0-1.881.94.94 0 0 1 0 1.88Z" fill="#E8E9EA"/></svg>