<svg width="11" height="12" fill="none" xmlns="http://www.w3.org/2000/svg"><path d="M5.502.951C2.633.995.29 3.325.226 6.193a5.33 5.33 0 0 0 .696 2.756.206.206 0 0 0 .366-.015 6.145 6.145 0 0 0 .587-2.625c0-.897.324-1.763.914-2.438a.423.423 0 0 1 .556-.082.412.412 0 0 1 .075.614 2.88 2.88 0 0 0-.72 1.906 6.96 6.96 0 0 1-.95 3.519.206.206 0 0 0 .03.25c.205.207.426.398.662.569a.205.205 0 0 0 .3-.062c.22-.363.413-.742.575-1.134a.413.413 0 0 1 .763.315 9.108 9.108 0 0 1-.61 1.212.207.207 0 0 0 .097.296 5.33 5.33 0 0 0 1.288.345.206.206 0 0 0 .21-.103 10.657 10.657 0 0 0 1.317-4.41.412.412 0 1 1 .821.06 11.48 11.48 0 0 1-1.111 4.16.206.206 0 0 0 .21.295 5.346 5.346 0 0 0 1.06-.255.207.207 0 0 0 .122-.115A12.74 12.74 0 0 0 8.469 6.4C8.48 4.82 7.264 3.48 5.687 3.426c-.277-.01-.555.02-.824.089a.412.412 0 0 1-.507-.32.424.424 0 0 1 .324-.484 3.712 3.712 0 0 1 4.613 3.598 13.643 13.643 0 0 1-.549 3.844.206.206 0 0 0 .333.214A5.358 5.358 0 0 0 5.502.951Zm.082 3.71a1.651 1.651 0 0 1 1.229.549.412.412 0 0 1-.064.607.425.425 0 0 1-.56-.069.824.824 0 0 0-.865-.221.844.844 0 0 0-.567.807 9.113 9.113 0 0 1-.164 1.7.412.412 0 0 1-.477.328.428.428 0 0 1-.325-.497 8.3 8.3 0 0 0 .145-1.556A1.648 1.648 0 0 1 5.584 4.66Z" fill="#96EA63"/></svg>