<svg width="86" height="14" fill="none" xmlns="http://www.w3.org/2000/svg"><path d="M8.616 10.663h.563l.4-1.017L13.829.29h3.27l-5.958 12.715H6.654L.732.291h3.27l4.215 9.355.4 1.017ZM18.527 13.006V.291h13.28v2.38H21.215v2.815h10.01v2.38h-10.01v2.76h10.663v2.38H18.527ZM38.872 12.988V2.87h-5.867V.272h14.55V2.87h-5.867v10.118h-2.816ZM51.962 2.78v3.36h6.648c1.472 0 2.108-.4 2.108-1.762 0-1.236-.491-1.599-2.108-1.599h-6.648Zm12.025 10.335h-3.47l-1.761-3.651c-.346-.745-.89-1.017-1.944-1.017h-4.85v4.56h-2.816V.29h9.846c3.324 0 4.814 1.09 4.814 3.487 0 2.162-1.2 3.379-3.506 3.543v.218c.872.218 1.417.726 1.943 1.852l1.744 3.724ZM65.502 13.006V.291h2.816v12.715h-2.816ZM82.564 7.884h2.98c.036 3.342-2.69 5.304-7.485 5.304-5.304 0-8.102-2.398-8.102-6.503 0-4.233 2.943-6.576 8.12-6.576 4.778 0 7.52 1.998 7.52 5.377h-3.069c-.109-2.035-1.235-2.743-4.432-2.743-3.833 0-5.05.908-5.05 3.942 0 2.597.962 3.869 4.977 3.869 3.197 0 4.541-.854 4.541-2.67Z" fill="#fff"/></svg>