<svg width="86" height="14" fill="none" xmlns="http://www.w3.org/2000/svg"><path d="M8.576 11.18h.563l.4-1.018 4.25-9.355h3.27l-5.958 12.716H6.614L.692.807h3.27l4.215 9.355.4 1.017ZM18.488 13.523V.807h13.278v2.38h-10.59v2.815h10.01v2.38h-10.01v2.761h10.663v2.38H18.488ZM38.832 13.505V3.386h-5.867V.79h14.55v2.597h-5.867v10.119h-2.816ZM51.922 3.296v3.36h6.648c1.472 0 2.107-.4 2.107-1.762 0-1.235-.49-1.598-2.107-1.598h-6.648Zm12.025 10.336h-3.47L58.717 9.98c-.346-.745-.89-1.018-1.944-1.018h-4.85v4.56h-2.816V.807h9.846c3.324 0 4.814 1.09 4.814 3.488 0 2.161-1.2 3.379-3.506 3.542v.218c.872.218 1.416.727 1.943 1.853l1.744 3.724ZM65.462 13.523V.807h2.816v12.716h-2.816ZM82.524 8.4h2.98c.036 3.343-2.69 5.304-7.485 5.304-5.304 0-8.102-2.397-8.102-6.503 0-4.232 2.943-6.576 8.12-6.576 4.778 0 7.52 1.999 7.52 5.377h-3.07c-.108-2.034-1.234-2.743-4.431-2.743-3.833 0-5.05.909-5.05 3.942 0 2.598.962 3.87 4.977 3.87 3.197 0 4.541-.854 4.541-2.67Z" fill="#fff"/></svg>