<svg width="4" height="6" viewBox="0 0 4 6" fill="none" xmlns="http://www.w3.org/2000/svg">
<path d="M3.62568 3.15693L0.922216 5.8604C0.897098 5.88551 0.867279 5.90544 0.834461 5.91903C0.801642 5.93262 0.766468 5.93962 0.730946 5.93962C0.695424 5.93962 0.660249 5.93262 0.627431 5.91903C0.594613 5.90544 0.564794 5.88551 0.539676 5.8604C0.514558 5.83528 0.494633 5.80546 0.481039 5.77264C0.467446 5.73982 0.460449 5.70465 0.460449 5.66912C0.460449 5.6336 0.467446 5.59843 0.481039 5.56561C0.494633 5.53279 0.514558 5.50297 0.539676 5.47785L3.05221 2.96566L0.539676 0.453466C0.488948 0.402738 0.460449 0.333936 0.460449 0.262196C0.460449 0.190456 0.488948 0.121654 0.539676 0.0709259C0.590404 0.0201979 0.659206 -0.00830078 0.730946 -0.00830078C0.802686 -0.00830078 0.871488 0.0201979 0.922216 0.0709259L3.62568 2.77439C3.65082 2.7995 3.67076 2.82931 3.68436 2.86213C3.69797 2.89495 3.70497 2.93013 3.70497 2.96566C3.70497 3.00119 3.69797 3.03637 3.68436 3.06919C3.67076 3.10201 3.65082 3.13182 3.62568 3.15693Z" fill="#1E2F14"/>
</svg>
