<svg width="15" height="15" viewBox="0 0 15 15" fill="none" xmlns="http://www.w3.org/2000/svg">
<path d="M10.5778 3.26209C10.3544 3.26177 10.1337 3.3116 9.93213 3.4079V3.04687C9.93227 2.68781 9.80415 2.34051 9.57088 2.06755C9.3376 1.79459 9.01451 1.61393 8.65982 1.55811C8.30512 1.5023 7.94215 1.575 7.63632 1.76312C7.33049 1.95124 7.1019 2.24241 6.99176 2.58416C6.76234 2.45972 6.50453 2.39702 6.24359 2.4022C5.98265 2.40738 5.72753 2.48026 5.50323 2.6137C5.27893 2.74714 5.09314 2.93656 4.96408 3.16341C4.83501 3.39025 4.76709 3.64674 4.76698 3.90773V7.35117L4.56145 7.02135C4.36181 6.67684 4.03391 6.42537 3.64942 6.32191C3.26493 6.21845 2.85511 6.27141 2.50955 6.46922C2.16399 6.66703 1.91079 6.9936 1.8053 7.37754C1.69981 7.76148 1.75061 8.17157 1.94659 8.51817C2.80745 10.3351 3.50313 11.6237 4.29888 12.4292C5.10271 13.2448 6.01522 13.5924 7.34955 13.5924C8.60484 13.591 9.80831 13.0917 10.6959 12.2041C11.5836 11.3164 12.0829 10.113 12.0843 8.85767V4.76859C12.0843 4.36904 11.9256 3.98586 11.643 3.70333C11.3605 3.42081 10.9773 3.26209 10.5778 3.26209ZM11.2234 8.85767C11.2223 9.88473 10.8138 10.8694 10.0875 11.5956C9.36129 12.3219 8.37662 12.7304 7.34955 12.7315C6.25303 12.7315 5.54659 12.469 4.91063 11.8249C4.19881 11.1034 3.54348 9.87994 2.71706 8.13563C2.71221 8.12495 2.70683 8.11454 2.70091 8.10442C2.6153 7.95609 2.59211 7.77982 2.63646 7.61439C2.6808 7.44896 2.78905 7.30793 2.93738 7.22231C3.08571 7.13669 3.26198 7.1135 3.42741 7.15785C3.59284 7.2022 3.73387 7.31044 3.81949 7.45878C3.82168 7.46309 3.8242 7.46722 3.82702 7.47115L4.83154 9.08526C4.88089 9.16488 4.95486 9.22624 5.04224 9.26001C5.12961 9.29378 5.22562 9.29812 5.31569 9.27238C5.40576 9.24663 5.48497 9.19221 5.54131 9.11737C5.59764 9.04252 5.62802 8.95135 5.62783 8.85767V3.90773C5.62783 3.7365 5.69586 3.57227 5.81694 3.45119C5.93802 3.33011 6.10224 3.26209 6.27348 3.26209C6.44471 3.26209 6.60894 3.33011 6.73002 3.45119C6.8511 3.57227 6.91912 3.7365 6.91912 3.90773V7.13595C6.91912 7.25011 6.96447 7.35959 7.04519 7.44031C7.12591 7.52103 7.2354 7.56638 7.34955 7.56638C7.46371 7.56638 7.57319 7.52103 7.65391 7.44031C7.73463 7.35959 7.77998 7.25011 7.77998 7.13595V3.04687C7.77998 2.87564 7.84801 2.71142 7.96909 2.59033C8.09017 2.46925 8.25439 2.40123 8.42563 2.40123C8.59686 2.40123 8.76108 2.46925 8.88216 2.59033C9.00325 2.71142 9.07127 2.87564 9.07127 3.04687V7.13595C9.07127 7.25011 9.11662 7.35959 9.19734 7.44031C9.27806 7.52103 9.38754 7.56638 9.5017 7.56638C9.61586 7.56638 9.72534 7.52103 9.80606 7.44031C9.88678 7.35959 9.93213 7.25011 9.93213 7.13595V4.76859C9.93213 4.59736 10.0002 4.43313 10.1212 4.31205C10.2423 4.19097 10.4065 4.12295 10.5778 4.12295C10.749 4.12295 10.9132 4.19097 11.0343 4.31205C11.1554 4.43313 11.2234 4.59736 11.2234 4.76859V8.85767Z" fill="#E8E9EA"/>
</svg>
