<svg width="15" height="16" viewBox="0 0 15 16" fill="none" xmlns="http://www.w3.org/2000/svg">
<g clip-path="url(#clip0_1083_33)">
<path d="M13.1241 1.15234H1.64297C1.11689 1.15234 0.689453 1.58576 0.689453 2.11782V13.578C0.689453 14.1101 1.11689 14.5435 1.64297 14.5435H13.1241C13.6502 14.5435 14.0806 14.1101 14.0806 13.578V2.11782C14.0806 1.58576 13.6502 1.15234 13.1241 1.15234ZM4.73669 12.6305H2.75193V6.23978H4.73968V12.6305H4.73669ZM3.74431 5.36697C3.10763 5.36697 2.59351 4.84985 2.59351 4.21616C2.59351 3.58248 3.10763 3.06536 3.74431 3.06536C4.37799 3.06536 4.89511 3.58248 4.89511 4.21616C4.89511 4.85284 4.38098 5.36697 3.74431 5.36697ZM12.1765 12.6305H10.1918V9.52181C10.1918 8.78051 10.1768 7.82699 9.16054 7.82699C8.12632 7.82699 7.9679 8.63405 7.9679 9.468V12.6305H5.98314V6.23978H7.88719V7.1126H7.91409C8.18012 6.61043 8.82876 6.08136 9.79423 6.08136C11.8029 6.08136 12.1765 7.40553 12.1765 9.12724V12.6305Z" fill="#7A7B85"/>
</g>
<defs>
<clipPath id="clip0_1083_33">
<rect width="13.3911" height="15.3042" fill="white" transform="translate(0.689453 0.195801)"/>
</clipPath>
</defs>
</svg>
