<svg width="136" height="26" viewBox="0 0 136 26" fill="none" xmlns="http://www.w3.org/2000/svg">
<g clip-path="url(#clip0_1083_878)">
<path d="M76.4077 18.8836H79.2891V8.01497H76.4077V18.8836ZM76.4077 6.32009H79.2891V3.73535H76.4077V6.32009Z" fill="#7A7B85"/>
<path d="M81.146 22.4428H84.0274V17.6547H84.0694C84.6837 18.5869 85.6798 19.2013 87.2049 19.2013C90.0016 19.2013 91.9086 16.9767 91.9086 13.4598C91.9086 10.0699 90.0653 7.71826 87.1838 7.71826C85.7008 7.71826 84.6837 8.41745 83.9848 9.3708H83.9211V8.01487H81.146V22.4428ZM86.5906 16.8072C84.8746 16.8072 83.9638 15.5149 83.9638 13.5445C83.9638 11.5954 84.6837 10.0488 86.485 10.0488C88.2646 10.0488 88.9845 11.4895 88.9845 13.5445C88.9845 15.5996 88.0527 16.8072 86.5906 16.8072Z" fill="#7A7B85"/>
<path d="M97.6561 19.2013C100.368 19.2013 102.233 17.8877 102.233 15.7055C102.233 13.1632 100.22 12.6547 98.3977 12.2734C96.851 11.9556 95.4106 11.8708 95.4106 10.9386C95.4106 10.1547 96.1521 9.731 97.2749 9.731C98.5039 9.731 99.2455 10.1547 99.3722 11.32H101.978C101.767 9.13778 100.177 7.71826 97.3175 7.71826C94.8384 7.71826 92.8894 8.84117 92.8894 11.1928C92.8894 13.5657 94.7963 14.0953 96.7453 14.4767C98.2283 14.7733 99.6051 14.8793 99.6051 15.9174C99.6051 16.6801 98.8852 17.1674 97.6141 17.1674C96.3214 17.1674 95.4316 16.6165 95.2413 15.3666H92.5718C92.7411 17.6758 94.4997 19.2013 97.6561 19.2013Z" fill="#7A7B85"/>
<path d="M113.172 18.8833V8.01465H110.29V14.2858C110.29 15.7265 109.464 16.7434 108.108 16.7434C106.879 16.7434 106.308 16.0443 106.308 14.7731V8.01465H103.447V15.2604C103.447 17.6332 104.803 19.1799 107.219 19.1799C108.744 19.1799 109.591 18.6078 110.333 17.6121H110.397V18.8833H113.172Z" fill="#7A7B85"/>
<path d="M115.036 18.8835H117.917V12.57C117.917 11.1293 118.701 10.1971 119.867 10.1971C120.926 10.1971 121.54 10.8327 121.54 12.0615V18.8835H124.421V12.57C124.421 11.1293 125.163 10.1971 126.37 10.1971C127.43 10.1971 128.044 10.8327 128.044 12.0615V18.8835H130.926V11.5742C130.926 9.2013 129.633 7.71826 127.345 7.71826C125.968 7.71826 124.824 8.43859 124.082 9.62502H124.04C123.511 8.48098 122.409 7.71826 121.031 7.71826C119.527 7.71826 118.468 8.48098 117.875 9.47672H117.811V8.01487H115.036V18.8835Z" fill="#7A7B85"/>
<path d="M1.30957 18.8836H4.19091V3.73535H1.30957V18.8836Z" fill="#7A7B85"/>
<path d="M11.2361 19.2013C14.6047 19.2013 16.914 16.7013 16.914 13.4598C16.914 10.2182 14.6047 7.71826 11.2361 7.71826C7.8674 7.71826 5.55811 10.2182 5.55811 13.4598C5.55811 16.7013 7.8674 19.2013 11.2361 19.2013ZM11.2361 16.9979C9.45642 16.9979 8.48181 15.5784 8.48181 13.4598C8.48181 11.3412 9.45642 9.9005 11.2361 9.9005C12.9945 9.9005 13.9903 11.3412 13.9903 13.4598C13.9903 15.5784 12.9945 16.9979 11.2361 16.9979Z" fill="#7A7B85"/>
<path d="M23.0414 22.5911C24.6515 22.5911 26.0499 22.2098 26.9608 21.3623C27.7659 20.6207 28.2532 19.5826 28.2532 18.0572V8.01487H25.4778V9.15898H25.4355C24.7787 8.24796 23.7829 7.71826 22.427 7.71826C19.6728 7.71826 17.7236 9.79452 17.7236 13.036C17.7236 16.3199 20.0965 18.2267 22.5118 18.2267C23.8888 18.2267 24.7151 17.6758 25.3507 16.9555H25.4143V18.142C25.4143 19.625 24.6304 20.4089 22.999 20.4089C21.6643 20.4089 21.0499 19.8792 20.8168 19.2013H17.9567C18.2533 21.3199 20.0753 22.5911 23.0414 22.5911ZM22.999 15.9174C21.516 15.9174 20.5414 14.8369 20.5414 12.9937C20.5414 11.1717 21.516 10.0276 22.9778 10.0276C24.7151 10.0276 25.5626 11.3835 25.5626 12.9725C25.5626 14.5827 24.821 15.9174 22.999 15.9174Z" fill="#7A7B85"/>
<path d="M35.2566 19.2013C38.6252 19.2013 40.9345 16.7013 40.9345 13.4598C40.9345 10.2182 38.6252 7.71826 35.2566 7.71826C31.888 7.71826 29.5786 10.2182 29.5786 13.4598C29.5786 16.7013 31.888 19.2013 35.2566 19.2013ZM35.2566 16.9979C33.4769 16.9979 32.5024 15.5784 32.5024 13.4598C32.5024 11.3412 33.4769 9.9005 35.2566 9.9005C37.015 9.9005 38.0108 11.3412 38.0108 13.4598C38.0108 15.5784 37.015 16.9979 35.2566 16.9979Z" fill="#7A7B85"/>
<path d="M131.972 6.23042C131.972 5.74288 132.368 5.34766 132.855 5.34766H134.621C135.108 5.34766 135.504 5.74288 135.504 6.23042C135.504 6.71796 135.108 7.11319 134.621 7.11319H132.855C132.368 7.11319 131.972 6.71796 131.972 6.23042Z" fill="#7A7B85"/>
<path fill-rule="evenodd" clip-rule="evenodd" d="M58.409 0.639648C65.2343 0.639648 70.7679 6.17283 70.7679 12.9983C70.7679 19.8239 65.2343 25.357 58.409 25.357C51.5835 25.357 46.0503 19.8239 46.0503 12.9983C46.0503 6.17283 51.5835 0.639648 58.409 0.639648ZM57.9623 1.56444C56.5523 1.76286 55.2098 2.89578 54.1677 4.79056C53.8654 5.34017 53.5926 5.94737 53.355 6.60299C54.772 6.24689 56.3286 6.03695 57.9623 6.00448V1.56444ZM52.3104 6.89982C52.606 5.97217 52.9676 5.11869 53.3849 4.36002C53.9015 3.42072 54.5146 2.60959 55.2054 1.9866C51.449 3.07754 48.4882 6.03841 47.3972 9.79478C48.0202 9.10399 48.8313 8.49088 49.7706 7.97429C50.5293 7.55699 51.3828 7.19538 52.3104 6.89982ZM52.0136 7.94432C51.6575 9.36136 51.4476 10.918 51.4151 12.5516H46.975C47.1734 11.1417 48.3064 9.79917 50.2012 8.75709C50.7508 8.45479 51.358 8.18204 52.0136 7.94432ZM52.3087 12.5516C52.3456 10.7688 52.6023 9.0951 53.0269 7.61625C54.5057 7.19161 56.1795 6.93492 57.9623 6.89803V8.82778C57.2972 10.5304 55.9407 11.8868 54.238 12.5516H52.3087ZM51.4151 13.445H46.975C47.1734 14.855 48.3064 16.1975 50.2012 17.2396C50.7508 17.5419 51.358 17.8146 52.0136 18.0524C51.6575 16.6353 51.4476 15.0787 51.4151 13.445ZM53.0269 18.3804C52.6023 16.9016 52.3456 15.2279 52.3087 13.445H54.238C55.9407 14.1099 57.2972 15.4663 57.9623 17.1689V19.0987C56.1795 19.0618 54.5057 18.8051 53.0269 18.3804ZM52.3104 19.0969C51.3828 18.8013 50.5293 18.4397 49.7706 18.0224C48.8313 17.5058 48.0202 16.8927 47.3972 16.2019C48.4882 19.9583 51.449 22.9192 55.2054 24.0101C54.5146 23.3871 53.9015 22.576 53.3849 21.6366C52.9676 20.878 52.606 20.0245 52.3104 19.0969ZM57.9623 24.4322C56.5523 24.2338 55.2098 23.1009 54.1677 21.2061C53.8654 20.6565 53.5926 20.0493 53.355 19.3937C54.772 19.7498 56.3286 19.9597 57.9623 19.9922V24.4322ZM61.6125 24.0101C62.3033 23.3871 62.9164 22.576 63.433 21.6366C63.8501 20.878 64.2122 20.0245 64.5076 19.0969C65.4351 18.8013 66.2885 18.4397 67.0473 18.0224C67.9865 17.5058 68.7979 16.8927 69.4208 16.2019C68.3295 19.9583 65.369 22.9192 61.6125 24.0101ZM63.4633 19.3937C63.2254 20.0493 62.9522 20.6565 62.6501 21.2061C61.6081 23.1009 60.2656 24.2338 58.8556 24.4322V19.9922C60.4893 19.9597 62.0459 19.7498 63.4633 19.3937ZM64.8042 18.0524C65.4598 17.8146 66.0672 17.5419 66.6166 17.2396C68.5118 16.1975 69.6445 14.855 69.8428 13.445H65.403C65.3702 15.0787 65.1601 16.6353 64.8042 18.0524ZM64.5094 13.445C64.4723 15.2279 64.2159 16.9016 63.7908 18.3804C62.3122 18.8051 60.6384 19.0618 58.8556 19.0987V17.1703C59.5205 15.4671 60.8773 14.1101 62.5805 13.445H64.5094ZM65.403 12.5516H69.8428C69.6445 11.1417 68.5118 9.79917 66.6166 8.75709C66.0672 8.45479 65.4598 8.18204 64.8042 7.94432C65.1601 9.36136 65.3702 10.918 65.403 12.5516ZM63.7908 7.61625C64.2159 9.0951 64.4723 10.7688 64.5094 12.5516H62.5805C60.8773 11.8866 59.5205 10.5296 58.8556 8.82636V6.89803C60.6384 6.93492 62.3122 7.19161 63.7908 7.61625ZM64.5076 6.89982C65.4351 7.19538 66.2885 7.55699 67.0473 7.97429C67.9865 8.49088 68.7979 9.10399 69.4208 9.79478C68.3295 6.03841 65.369 3.07754 61.6125 1.9866C62.3033 2.60959 62.9164 3.42072 63.433 4.36002C63.8501 5.11869 64.2122 5.97217 64.5076 6.89982ZM58.8556 1.56444C60.2656 1.76286 61.6081 2.89578 62.6501 4.79056C62.9522 5.34018 63.2254 5.94737 63.4633 6.60299C62.0459 6.24689 60.4893 6.03695 58.8556 6.00448V1.56444Z" fill="#7A7B85"/>
</g>
<defs>
<clipPath id="clip0_1083_878">
<rect width="134.71" height="24.7174" fill="white" transform="translate(0.800293 0.639648)"/>
</clipPath>
</defs>
</svg>
