<svg width="63" height="15" viewBox="0 0 63 15" fill="none" xmlns="http://www.w3.org/2000/svg">
<path d="M10.1336 6.67953C9.9644 6.84972 9.83487 7.05512 9.75417 7.28106C9.67348 7.50704 9.64362 7.74801 9.66669 7.98685L9.65866 7.97881C9.6824 8.25996 9.64447 8.54285 9.54757 8.80783C9.45067 9.07278 9.29713 9.3134 9.09766 9.51291C8.89815 9.71237 8.65753 9.86596 8.39254 9.96281C8.1276 10.0597 7.84467 10.0976 7.56357 10.0739L7.5716 10.0819C7.23533 10.0507 6.89759 10.1238 6.6044 10.2915C6.31124 10.4592 6.07692 10.7132 5.93342 11.0189C5.78992 11.3247 5.74418 11.6672 5.80247 11.9999C5.8608 12.3325 6.02028 12.6391 6.2592 12.8778C6.49812 13.1165 6.80484 13.2757 7.13754 13.3337C7.47028 13.3917 7.81276 13.3457 8.11836 13.2019C8.42396 13.0581 8.67775 12.8236 8.84517 12.5303C9.01259 12.2369 9.08548 11.8991 9.05388 11.5629L9.06236 11.5709C9.03861 11.2898 9.07651 11.0069 9.1734 10.7419C9.2703 10.4769 9.42389 10.2363 9.62335 10.0368C9.82287 9.83735 10.0635 9.68376 10.3284 9.58691C10.5934 9.49001 10.8763 9.45207 11.1574 9.47582L11.149 9.46778C11.4236 9.49247 11.7001 9.44743 11.9528 9.33683C12.2054 9.22623 12.4261 9.05363 12.5943 8.83506C12.7625 8.61649 12.8728 8.35896 12.9149 8.08642C12.9571 7.81385 12.9298 7.53507 12.8355 7.27584C12.7413 7.01665 12.5831 6.78545 12.3757 6.60366C12.1683 6.42187 11.9183 6.29537 11.649 6.23592C11.3797 6.17647 11.0997 6.18593 10.835 6.26346C10.5703 6.34103 10.3295 6.48413 10.1349 6.67953H10.1336Z" fill="#7A7B85"/>
<path d="M6.84104 9.02955L6.83256 9.02151C7.07149 9.04557 7.31278 9.01625 7.53902 8.93564C7.76522 8.85503 7.97072 8.72519 8.14059 8.55545C8.31042 8.38571 8.44048 8.18031 8.52122 7.95415C8.60201 7.72799 8.63151 7.48675 8.60764 7.24778L8.61611 7.25582C8.59237 6.97467 8.63031 6.69178 8.72716 6.4268C8.82406 6.16185 8.97765 5.92123 9.17711 5.72172C9.37662 5.52226 9.61724 5.36867 9.88219 5.27182C10.1472 5.1749 10.4301 5.13699 10.7112 5.16072L10.7027 5.15269C11.039 5.18429 11.3769 5.11134 11.6702 4.94385C11.9636 4.77636 12.1981 4.52245 12.3418 4.21677C12.4855 3.9111 12.5314 3.56852 12.4733 3.23577C12.4152 2.90303 12.2559 2.59632 12.017 2.35747C11.7782 2.11862 11.4714 1.95926 11.1387 1.90114C10.806 1.84301 10.4634 1.88894 10.1577 2.03267C9.85201 2.1764 9.59814 2.41092 9.43063 2.70426C9.26312 2.99759 9.19019 3.33545 9.22179 3.67175L9.21376 3.66327C9.23755 3.94442 9.1997 4.22736 9.10284 4.49236C9.00599 4.75736 8.8524 4.99802 8.65294 5.19755C8.45343 5.39701 8.21276 5.5506 7.94777 5.64745C7.68274 5.74431 7.39981 5.78216 7.11866 5.75837L7.1267 5.76685C6.88778 5.74279 6.64644 5.77211 6.42024 5.85272C6.19404 5.93328 5.98855 6.06317 5.81867 6.23291C5.6488 6.40265 5.51878 6.60805 5.43799 6.83421C5.35725 7.06037 5.32775 7.30161 5.35163 7.54058L5.34359 7.53254C5.36725 7.81365 5.32927 8.09653 5.23237 8.36148C5.13542 8.62638 4.98188 8.86699 4.78242 9.06646C4.58293 9.26593 4.34234 9.41947 4.07741 9.51641C3.81249 9.61331 3.52961 9.65129 3.2485 9.62764L3.25654 9.63567C2.92023 9.60407 2.58237 9.677 2.28903 9.84451C1.9957 10.012 1.76118 10.2659 1.61745 10.5716C1.47373 10.8773 1.42779 11.2198 1.48591 11.5526C1.54404 11.8853 1.7034 12.192 1.94225 12.4309C2.1811 12.6698 2.48781 12.8291 2.82056 12.8872C3.1533 12.9453 3.49588 12.8994 3.80156 12.7557C4.10723 12.612 4.36114 12.3775 4.52863 12.0841C4.69614 11.7908 4.76907 11.4529 4.73747 11.1166L4.74595 11.1246C4.72221 10.8435 4.76015 10.5606 4.85704 10.2956C4.9539 10.0307 5.10748 9.79006 5.30695 9.59055C5.50646 9.39108 5.74708 9.2375 6.01202 9.14064C6.27701 9.04374 6.5599 9.0058 6.84104 9.02955Z" fill="#7A7B85"/>
<path d="M3.84974 8.13371C4.01891 7.96356 4.14843 7.75816 4.22905 7.53218C4.30968 7.3062 4.33942 7.06518 4.31616 6.82639L4.32463 6.83443C4.30089 6.55324 4.33881 6.27022 4.43576 6.00518C4.53271 5.74015 4.68635 5.49949 4.88595 5.29998C5.08555 5.10047 5.32626 4.94694 5.59133 4.85011C5.85641 4.75327 6.13943 4.71547 6.42062 4.73934L6.41214 4.7313C6.74832 4.7628 7.08606 4.68983 7.37926 4.52235C7.67246 4.35487 7.90683 4.10103 8.0505 3.79544C8.19413 3.48986 8.24002 3.14741 8.1819 2.81478C8.12379 2.48216 7.96445 2.17557 7.7257 1.9368C7.48696 1.69804 7.18033 1.53874 6.84772 1.48062C6.51511 1.42249 6.17264 1.46838 5.86708 1.61202C5.56148 1.75566 5.30765 1.99006 5.14018 2.28326C4.97267 2.57645 4.8997 2.91418 4.93121 3.25037L4.92317 3.24233C4.94692 3.52346 4.90898 3.80637 4.81208 4.07133C4.71518 4.3363 4.56165 4.57692 4.36216 4.77641C4.16267 4.97591 3.92204 5.12946 3.65708 5.22633C3.39212 5.32323 3.1092 5.36117 2.82808 5.33742L2.83611 5.34546C2.56143 5.32082 2.28496 5.36594 2.03235 5.47659C1.77973 5.58724 1.55913 5.75988 1.39099 5.97849C1.22285 6.19706 1.11262 6.4546 1.07049 6.72713C1.02837 6.99971 1.05573 7.27849 1.15002 7.53763C1.24432 7.79681 1.40252 8.02797 1.60994 8.20972C1.81737 8.39151 2.06731 8.51796 2.33662 8.57741C2.60593 8.63681 2.88588 8.62731 3.15054 8.54978C3.4152 8.47221 3.656 8.32911 3.85063 8.13371H3.84974Z" fill="#7A7B85"/>
<path d="M17.6758 3.68201H19.0014V10.1329H17.6758V3.68201Z" fill="#7A7B85"/>
<path d="M19.7525 7.92392C19.7507 7.46035 19.8864 7.00661 20.1426 6.62026C20.3988 6.23392 20.7639 5.93228 21.1917 5.75362C21.6195 5.5749 22.0906 5.52719 22.5455 5.6165C23.0004 5.70581 23.4186 5.92809 23.7471 6.25525C24.0755 6.58237 24.2995 6.99965 24.3906 7.45419C24.4818 7.90874 24.4359 8.38011 24.259 8.80859C24.082 9.23703 23.7818 9.60338 23.3965 9.86109C23.0111 10.1189 22.558 10.2565 22.0944 10.2565C21.7867 10.26 21.4814 10.2021 21.1963 10.0862C20.9111 9.97036 20.652 9.79883 20.434 9.58169C20.2159 9.3645 20.0433 9.10603 19.9264 8.8214C19.8093 8.53678 19.7502 8.23166 19.7525 7.92392ZM23.1107 7.92392C23.1052 7.72409 23.0409 7.53034 22.9259 7.36685C22.8108 7.2034 22.6501 7.07744 22.4639 7.00482C22.2776 6.93216 22.0742 6.916 21.8788 6.95841C21.6834 7.00081 21.5049 7.0998 21.3655 7.24312C21.2262 7.3864 21.1321 7.56761 21.0952 7.76408C21.0582 7.96052 21.0799 8.16351 21.1577 8.34767C21.2355 8.53182 21.3659 8.68893 21.5324 8.7994C21.6991 8.90987 21.8946 8.96878 22.0944 8.96878C22.2313 8.97244 22.3675 8.94767 22.4944 8.89608C22.6212 8.84448 22.736 8.76717 22.8315 8.66903C22.927 8.57083 23.0011 8.45394 23.0491 8.32571C23.0972 8.19747 23.1182 8.06067 23.1107 7.92392Z" fill="#7A7B85"/>
<path d="M29.7193 5.71464V9.91018C29.7193 11.3947 28.5615 12.0222 27.3863 12.0222C26.9726 12.0532 26.5582 11.9696 26.1888 11.7807C25.8194 11.5917 25.5092 11.3047 25.2921 10.951L26.4231 10.2972C26.5143 10.4815 26.6597 10.6336 26.8397 10.733C27.0198 10.8325 27.2259 10.8746 27.4305 10.8537C27.5613 10.8719 27.6945 10.8603 27.8202 10.82C27.9459 10.7797 28.0609 10.7117 28.1568 10.6209C28.2527 10.5301 28.3269 10.419 28.374 10.2956C28.4211 10.1723 28.4399 10.04 28.4289 9.9084V9.50447C28.2737 9.69438 28.0762 9.84529 27.8521 9.94504C27.6279 10.0448 27.3836 10.0906 27.1386 10.0789C26.5556 10.0605 26.0026 9.81601 25.5967 9.39708C25.1908 8.97819 24.9639 8.41778 24.9639 7.83451C24.9639 7.25124 25.1908 6.69082 25.5967 6.27194C26.0026 5.85301 26.5556 5.60851 27.1386 5.59012C27.3836 5.57838 27.6279 5.62422 27.8521 5.72397C28.0762 5.82373 28.2737 5.97463 28.4289 6.16455V5.71375L29.7193 5.71464ZM28.4294 7.83518C28.4383 7.62156 28.3831 7.41013 28.2708 7.22816C28.1585 7.04615 27.9944 6.90194 27.7995 6.81405C27.6046 6.72613 27.3878 6.69859 27.1771 6.73492C26.9664 6.77125 26.7714 6.8698 26.6171 7.01794C26.4629 7.16603 26.3566 7.35689 26.3117 7.56595C26.2669 7.77501 26.2856 7.99273 26.3656 8.19104C26.4456 8.38935 26.583 8.55922 26.7603 8.67875C26.9376 8.79828 27.1466 8.86201 27.3604 8.86175C27.4997 8.87148 27.6395 8.85193 27.7707 8.80435C27.902 8.75677 28.0218 8.68219 28.1225 8.58551C28.2232 8.48879 28.3026 8.37207 28.3554 8.24281C28.4083 8.1136 28.4335 7.97475 28.4294 7.83518Z" fill="#7A7B85"/>
<path d="M30.4703 7.92392C30.4684 7.46035 30.6042 7.00661 30.8604 6.62026C31.1166 6.23392 31.4817 5.93228 31.9095 5.75362C32.3372 5.5749 32.8084 5.52719 33.2633 5.6165C33.7182 5.70581 34.1364 5.92809 34.4648 6.25525C34.7933 6.58237 35.0173 6.99965 35.1084 7.45419C35.1995 7.90874 35.1537 8.38011 34.9767 8.80859C34.7998 9.23703 34.4996 9.60338 34.1143 9.86109C33.7289 10.1189 33.2758 10.2565 32.8122 10.2565C32.5045 10.26 32.1991 10.2021 31.914 10.0862C31.6289 9.97036 31.3698 9.79883 31.1517 9.58169C30.9337 9.3645 30.7611 9.10603 30.6441 8.8214C30.5271 8.53678 30.468 8.23166 30.4703 7.92392ZM33.8285 7.92392C33.823 7.72409 33.7586 7.53034 33.6436 7.36685C33.5286 7.2034 33.3679 7.07744 33.1817 7.00482C32.9954 6.93216 32.7919 6.916 32.5966 6.95841C32.4012 7.00081 32.2227 7.0998 32.0833 7.24312C31.9439 7.3864 31.8498 7.56761 31.8129 7.76408C31.7759 7.96052 31.7977 8.16351 31.8755 8.34767C31.9533 8.53182 32.0836 8.68893 32.2502 8.7994C32.4168 8.90987 32.6123 8.96878 32.8122 8.96878C32.9491 8.97244 33.0853 8.94767 33.2121 8.89608C33.339 8.84448 33.4538 8.76717 33.5493 8.66903C33.6447 8.57083 33.7189 8.45394 33.7669 8.32571C33.815 8.19747 33.8359 8.06067 33.8285 7.92392Z" fill="#7A7B85"/>
<path d="M35.772 4.53048C35.772 4.37317 35.8186 4.21939 35.906 4.0886C35.9934 3.9578 36.1177 3.85585 36.263 3.79565C36.4083 3.73545 36.5682 3.7197 36.7225 3.75039C36.8768 3.78108 37.0185 3.85683 37.1298 3.96807C37.241 4.0793 37.3167 4.22102 37.3474 4.37531C37.3781 4.52959 37.3623 4.68951 37.3022 4.83485C37.242 4.98018 37.14 5.1044 37.0092 5.19181C36.8784 5.2792 36.7247 5.32584 36.5673 5.32584C36.3571 5.32375 36.156 5.2393 36.0072 5.09057C35.8586 4.94186 35.7741 4.74077 35.772 4.53048ZM35.9059 5.7146H37.2319V10.1333H35.9041L35.9059 5.7146Z" fill="#7A7B85"/>
<path d="M42.9561 7.92395C42.9714 8.21599 42.9288 8.50816 42.8308 8.78368C42.7328 9.0592 42.5814 9.31263 42.3851 9.52941C42.1888 9.74615 41.9516 9.92201 41.6871 10.0468C41.4226 10.1716 41.1361 10.2428 40.844 10.2565C40.5983 10.2699 40.3528 10.2285 40.1251 10.1352C39.8975 10.0419 39.6934 9.8992 39.5278 9.71732V11.9003H38.2021V5.7146H39.5278V6.12969C39.6935 5.94794 39.8976 5.80529 40.1252 5.71214C40.3529 5.61895 40.5984 5.57757 40.844 5.59096C41.1362 5.60457 41.4228 5.67581 41.6873 5.8006C41.9518 5.9254 42.1891 6.10126 42.3854 6.31808C42.5817 6.53491 42.7332 6.78843 42.8311 7.06404C42.929 7.33961 42.9715 7.63187 42.9561 7.92395ZM41.6304 7.92395C41.6253 7.71716 41.5592 7.51649 41.4405 7.34702C41.3218 7.17759 41.1559 7.0469 40.9633 6.97138C40.7707 6.89582 40.5601 6.87872 40.3579 6.92229C40.1557 6.9658 39.9708 7.06802 39.8264 7.21611C39.6819 7.36425 39.5844 7.55162 39.546 7.75492C39.5075 7.95818 39.5299 8.16823 39.6103 8.35886C39.6906 8.54949 39.8255 8.71213 39.9978 8.82653C40.1702 8.94088 40.3724 9.00189 40.5793 9.00185C40.7213 9.00818 40.8631 8.9844 40.9953 8.93208C41.1275 8.87982 41.2471 8.80015 41.3463 8.69838C41.4456 8.59658 41.5222 8.47499 41.5712 8.34154C41.6201 8.20809 41.6403 8.06575 41.6304 7.92395Z" fill="#7A7B85"/>
<path d="M47.0467 8.80722C47.0467 9.82352 46.1634 10.2565 45.2091 10.2565C44.8235 10.2914 44.4364 10.2099 44.0977 10.0224C43.7589 9.8349 43.4843 9.55014 43.3091 9.2049L44.4575 8.55102C44.504 8.71058 44.6038 8.84944 44.7402 8.94429C44.8766 9.03918 45.0418 9.08439 45.2073 9.07234C45.5251 9.07234 45.6845 8.97504 45.6845 8.79874C45.6845 8.31223 43.5104 8.56887 43.5104 7.04018C43.5104 6.07654 44.3236 5.59093 45.2426 5.59093C45.5881 5.58 45.93 5.66194 46.233 5.8282C46.5361 5.99451 46.7891 6.23901 46.9655 6.53627L45.8344 7.14596C45.7849 7.03023 45.7023 6.93163 45.597 6.86249C45.4917 6.79336 45.3685 6.75676 45.2426 6.7572C45.0127 6.7572 44.8713 6.84647 44.8713 7.00447C44.873 7.50838 47.0467 7.17229 47.0467 8.80722Z" fill="#7A7B85"/>
<path d="M51.8886 5.7146V10.1333H50.563V9.71777C50.4099 9.90112 50.2158 10.0456 49.9962 10.1393C49.7766 10.2331 49.5382 10.2734 49.2999 10.2569C48.4072 10.2569 47.6484 9.62092 47.6484 8.42697V5.7146H48.9741V8.23282C48.9629 8.33806 48.9749 8.44447 49.0093 8.54458C49.0432 8.64474 49.099 8.73624 49.1722 8.81269C49.2454 8.88915 49.3342 8.94874 49.4329 8.98734C49.5311 9.02595 49.6369 9.04264 49.7426 9.03622C50.2287 9.03622 50.5643 8.75369 50.5643 8.12614V5.71594L51.8886 5.7146Z" fill="#7A7B85"/>
<path d="M59.4894 7.42004V10.1329H58.1638V7.53474C58.1638 7.09287 57.9518 6.81034 57.5278 6.81034C57.0859 6.81034 56.8382 7.11965 56.8382 7.64097V10.1329H55.513V7.53474C55.513 7.09287 55.301 6.81034 54.8766 6.81034C54.4347 6.81034 54.1874 7.11965 54.1874 7.64097V10.1329H52.8618V5.71415H54.1874V6.12031C54.3249 5.94013 54.5052 5.79721 54.7119 5.70468C54.919 5.61211 55.1457 5.57288 55.3716 5.59051C55.5983 5.5794 55.8241 5.62729 56.0272 5.72946C56.2299 5.83158 56.4026 5.98458 56.5289 6.17342C56.6757 5.97583 56.8703 5.81872 57.0944 5.71678C57.3185 5.61484 57.5648 5.57141 57.8103 5.59051C58.8248 5.59096 59.4894 6.31536 59.4894 7.42004Z" fill="#7A7B85"/>
<path d="M60.6107 5.68735C61.1539 5.68735 61.5944 5.24691 61.5944 4.70363C61.5944 4.16033 61.1539 3.71991 60.6107 3.71991C60.0675 3.71991 59.627 4.16033 59.627 4.70363C59.627 5.24691 60.0675 5.68735 60.6107 5.68735Z" fill="#7A7B85"/>
</svg>
