<svg width="115" height="26" viewBox="0 0 115 26" fill="none" xmlns="http://www.w3.org/2000/svg">
<g clip-path="url(#clip0_1083_866)">
<path fill-rule="evenodd" clip-rule="evenodd" d="M36.4819 2.01653C36.4819 1.15797 37.1855 0.461975 38.0535 0.461975H40.7913C41.4091 0.461975 42.0078 0.673741 42.4855 1.06122L43.3183 1.7368L43.3392 1.75559C43.3584 1.74918 43.3776 1.74291 43.3969 1.7368C44.8994 1.26075 46.7225 1.17022 48.5831 1.17022C50.4438 1.17022 52.2668 1.26075 53.7694 1.7368C53.7887 1.74291 53.8079 1.74918 53.8271 1.75559L53.8479 1.7368L54.6808 1.06122C55.1585 0.673741 55.7572 0.461975 56.3749 0.461975H59.1127C59.9808 0.461975 60.6843 1.15797 60.6843 2.01653V2.97753C60.6843 3.72106 60.3677 4.43019 59.8121 4.93097L59.1402 5.53654C58.8122 5.83217 58.4185 6.04732 57.9909 6.16462L57.8319 6.20822C58.4545 7.67762 58.7985 9.24829 58.7985 10.5189C58.7985 15.6301 55.6013 17.8375 52.7843 19.7825C50.5658 21.3143 48.5831 22.6832 48.5831 25.1794C48.5831 22.6832 46.6004 21.3143 44.382 19.7825C41.5649 17.8375 38.3678 15.6301 38.3678 10.5189C38.3678 9.24829 38.7117 7.67762 39.3343 6.20822L39.1754 6.16462C38.7478 6.04732 38.3541 5.83217 38.0261 5.53654L37.3542 4.93097C36.7986 4.43019 36.4819 3.72106 36.4819 2.97753V2.01653ZM50.6262 14.6975C50.6262 14.9417 50.5186 15.1758 50.327 15.3485C50.1354 15.5212 49.8756 15.6182 49.6046 15.6182C49.3708 15.6182 49.1451 15.5458 48.9645 15.415C49.2719 16.2288 50.0585 16.9999 51.2548 15.7598C52.311 14.6076 51.2079 12.1773 50.1332 10.7352C49.7749 10.2545 49.1869 10.0231 48.5831 10.0231C47.9794 10.0231 47.3913 10.2545 47.0331 10.7352C45.9584 12.1773 44.8553 14.6076 45.9114 15.7598C47.1078 16.9999 47.8944 16.2288 48.2017 15.415C48.0212 15.5458 47.7955 15.6182 47.5616 15.6182C47.2907 15.6182 47.0308 15.5212 46.8393 15.3485C46.6477 15.1758 46.5401 14.9417 46.5401 14.6975H50.6262ZM44.6712 7.50343H41.8253L44.0681 9.2798C44.5617 9.67065 45.2831 9.5457 45.5884 9.01644C45.974 8.34821 45.4619 7.50343 44.6712 7.50343ZM52.4951 7.50343H55.3409L53.0981 9.2798C52.6046 9.67065 51.8832 9.5457 51.5778 9.01644C51.1922 8.34821 51.7044 7.50343 52.4951 7.50343Z" fill="#7A7B85"/>
<path d="M64.0742 17.9701H66.5954V8.46008H64.0742V17.9701ZM64.0742 6.97704H66.5954V4.71539H64.0742V6.97704Z" fill="#7A7B85"/>
<path d="M68.2202 21.0845H70.7414V16.8949H70.7785C71.3161 17.7106 72.1874 18.2482 73.5221 18.2482C75.9691 18.2482 77.6375 16.3017 77.6375 13.2244C77.6375 10.2583 76.0247 8.20056 73.5036 8.20056C72.2059 8.20056 71.3161 8.81232 70.7043 9.64653H70.6487V8.46009H68.2202V21.0845ZM72.9845 16.1534C71.4829 16.1534 70.6858 15.0226 70.6858 13.2985C70.6858 11.593 71.3161 10.2397 72.8918 10.2397C74.449 10.2397 75.0793 11.5003 75.0793 13.2985C75.0793 15.0967 74.2636 16.1534 72.9845 16.1534Z" fill="#7A7B85"/>
<path d="M82.6669 18.2482C85.0398 18.2482 86.6711 17.0988 86.6711 15.1894C86.6711 12.9648 84.91 12.5199 83.3157 12.1862C81.9625 11.9082 80.7019 11.834 80.7019 11.0183C80.7019 10.3324 81.3507 9.96168 82.3332 9.96168C83.4084 9.96168 84.0573 10.3324 84.1685 11.352H86.4487C86.2633 9.44261 84.8729 8.20056 82.3703 8.20056C80.2013 8.20056 78.4958 9.18308 78.4958 11.2408C78.4958 13.3171 80.1643 13.7805 81.8698 14.1142C83.1674 14.3737 84.3724 14.4664 84.3724 15.3748C84.3724 16.0422 83.7421 16.4685 82.6298 16.4685C81.499 16.4685 80.7204 15.9865 80.5536 14.8928H78.2178C78.3661 16.9134 79.9047 18.2482 82.6669 18.2482Z" fill="#7A7B85"/>
<path d="M96.2433 17.9701V8.46008H93.7222V13.9473C93.7222 15.2079 92.9992 16.0978 91.8127 16.0978C90.7375 16.0978 90.237 15.486 90.237 14.3737V8.46008H87.7344V14.8001C87.7344 16.8764 88.9208 18.2296 91.0341 18.2296C92.3689 18.2296 93.1104 17.7291 93.7592 16.8578H93.8149V17.9701H96.2433Z" fill="#7A7B85"/>
<path d="M97.8745 17.9701H100.396V12.4458C100.396 11.1852 101.082 10.3695 102.101 10.3695C103.028 10.3695 103.566 10.9257 103.566 12.0009V17.9701H106.087V12.4458C106.087 11.1852 106.736 10.3695 107.792 10.3695C108.719 10.3695 109.257 10.9257 109.257 12.0009V17.9701H111.778V11.5745C111.778 9.49822 110.647 8.20056 108.645 8.20056C107.44 8.20056 106.439 8.83085 105.79 9.86899H105.753C105.29 8.86793 104.326 8.20056 103.121 8.20056C101.805 8.20056 100.878 8.86793 100.359 9.73922H100.303V8.46009H97.8745V17.9701Z" fill="#7A7B85"/>
<path d="M0.42334 17.9701H2.94451V4.71539H0.42334V17.9701Z" fill="#7A7B85"/>
<path d="M9.10934 18.2482C12.0569 18.2482 14.0775 16.0607 14.0775 13.2244C14.0775 10.3881 12.0569 8.20056 9.10934 8.20056C6.16176 8.20056 4.14111 10.3881 4.14111 13.2244C4.14111 16.0607 6.16176 18.2482 9.10934 18.2482ZM9.10934 16.3202C7.55214 16.3202 6.69939 15.0782 6.69939 13.2244C6.69939 11.3706 7.55214 10.11 9.10934 10.11C10.648 10.11 11.5193 11.3706 11.5193 13.2244C11.5193 15.0782 10.648 16.3202 9.10934 16.3202Z" fill="#7A7B85"/>
<path d="M19.4392 21.2143C20.8481 21.2143 22.0716 20.8806 22.8687 20.1391C23.5732 19.4902 23.9995 18.5819 23.9995 17.2471V8.46009H21.5711V9.46115H21.534C20.9593 8.66401 20.088 8.20056 18.9016 8.20056C16.4916 8.20056 14.7861 10.0173 14.7861 12.8536C14.7861 15.727 16.8624 17.3954 18.9757 17.3954C20.1807 17.3954 20.9037 16.9134 21.4598 16.2831H21.5154V17.3213C21.5154 18.6189 20.8295 19.3048 19.4021 19.3048C18.2342 19.3048 17.6966 18.8414 17.4927 18.2482H14.9901C15.2496 20.102 16.8439 21.2143 19.4392 21.2143ZM19.4021 15.3748C18.1044 15.3748 17.2517 14.4293 17.2517 12.8165C17.2517 11.2223 18.1044 10.2212 19.3836 10.2212C20.9037 10.2212 21.6452 11.4076 21.6452 12.798C21.6452 14.2069 20.9964 15.3748 19.4021 15.3748Z" fill="#7A7B85"/>
<path d="M30.1274 18.2482C33.0749 18.2482 35.0956 16.0607 35.0956 13.2244C35.0956 10.3881 33.0749 8.20056 30.1274 8.20056C27.1798 8.20056 25.1592 10.3881 25.1592 13.2244C25.1592 16.0607 27.1798 18.2482 30.1274 18.2482ZM30.1274 16.3202C28.5702 16.3202 27.7174 15.0782 27.7174 13.2244C27.7174 11.3706 28.5702 10.11 30.1274 10.11C31.666 10.11 32.5373 11.3706 32.5373 13.2244C32.5373 15.0782 31.666 16.3202 30.1274 16.3202Z" fill="#7A7B85"/>
<path d="M111.664 6.38387C111.664 5.95727 112.009 5.61145 112.436 5.61145H113.981C114.408 5.61145 114.754 5.95727 114.754 6.38387C114.754 6.81044 114.408 7.15629 113.981 7.15629H112.436C112.009 7.15629 111.664 6.81044 111.664 6.38387Z" fill="#7A7B85"/>
</g>
<defs>
<clipPath id="clip0_1083_866">
<rect width="114.936" height="25.3353" fill="white" transform="translate(0.000976562 0.330383)"/>
</clipPath>
</defs>
</svg>
