<svg width="96" height="26" viewBox="0 0 96 26" fill="none" xmlns="http://www.w3.org/2000/svg">
<g clip-path="url(#clip0_1083_903)">
<path d="M31.9811 6.99463H29.7676V16.9825H35.8953V15.0254H31.9811V6.99463Z" fill="#7A7B85"/>
<path d="M36.1064 13.5945C36.1064 15.7271 37.5371 17.1442 39.6966 17.1442C41.8427 17.1442 43.2734 15.7271 43.2734 13.5945C43.2734 11.462 41.8427 10.0312 39.6966 10.0312C37.5371 10.0312 36.1064 11.462 36.1064 13.5945ZM38.1985 13.581C38.1985 12.5687 38.7924 11.8939 39.6966 11.8939C40.5875 11.8939 41.1814 12.5687 41.1814 13.581C41.1814 14.6068 40.5875 15.2817 39.6966 15.2817C38.7924 15.2817 38.1985 14.6068 38.1985 13.581Z" fill="#7A7B85"/>
<path d="M43.6081 13.4866C43.6081 15.5247 44.9308 16.9013 46.8069 16.9013C47.7112 16.9013 48.494 16.5774 48.8854 16.0511V16.9824C48.8854 17.9137 48.305 18.5345 47.2793 18.5345C46.3614 18.5345 45.7271 18.1026 45.6866 17.3333H43.5811C43.77 19.1824 45.2007 20.4241 47.1578 20.4241C49.4658 20.4241 50.9235 18.926 50.9235 16.5504V10.2338H49.0474L48.9394 10.9222C48.5615 10.3688 47.7652 10.0044 46.8474 10.0044C44.9577 10.0044 43.6081 11.4216 43.6081 13.4866ZM45.7136 13.4326C45.7136 12.4608 46.3614 11.813 47.1848 11.813C48.1431 11.813 48.8449 12.4473 48.8449 13.4326C48.8449 14.4179 48.1566 15.0928 47.1983 15.0928C46.375 15.0928 45.7136 14.4179 45.7136 13.4326Z" fill="#7A7B85"/>
<path d="M51.5293 13.5945C51.5293 15.7271 52.96 17.1442 55.1196 17.1442C57.2656 17.1442 58.6962 15.7271 58.6962 13.5945C58.6962 11.462 57.2656 10.0312 55.1196 10.0312C52.96 10.0312 51.5293 11.462 51.5293 13.5945ZM53.6214 13.581C53.6214 12.5687 54.2152 11.8939 55.1196 11.8939C56.0103 11.8939 56.6042 12.5687 56.6042 13.581C56.6042 14.6068 56.0103 15.2817 55.1196 15.2817C54.2152 15.2817 53.6214 14.6068 53.6214 13.581Z" fill="#7A7B85"/>
<path d="M60.488 9.18084C61.1359 9.18084 61.6623 8.65442 61.6623 7.99311C61.6623 7.33173 61.1359 6.81885 60.488 6.81885C59.8266 6.81885 59.3003 7.33173 59.3003 7.99311C59.3003 8.65442 59.8266 9.18084 60.488 9.18084ZM59.4352 16.9821H61.5273V10.2336H59.4352V16.9821Z" fill="#7A7B85"/>
<path d="M62.7456 20.2213H64.7972V16.3072C65.1883 16.8201 66.0794 17.171 67.0106 17.171C69.0214 17.171 70.2362 15.6324 70.1825 13.4998C70.1281 11.3268 68.873 10.0176 66.997 10.0176C66.0386 10.0176 65.1345 10.436 64.7564 11.0569L64.6482 10.2335H62.7456V20.2213ZM64.8373 13.6078C64.8373 12.5955 65.5121 11.9207 66.4841 11.9207C67.4691 11.9207 68.0901 12.609 68.0901 13.6078C68.0901 14.6066 67.4691 15.2949 66.4841 15.2949C65.5121 15.2949 64.8373 14.6201 64.8373 13.6078Z" fill="#7A7B85"/>
<path d="M70.4038 14.8495C70.4576 16.2127 71.5377 17.1575 73.2383 17.1575C74.8715 17.1575 76.0054 16.2937 76.0054 14.9035C76.0054 13.9048 75.4115 13.2434 74.3042 12.9734L73.1036 12.6765C72.6716 12.5685 72.4016 12.4605 72.4016 12.1096C72.4016 11.7587 72.6846 11.5292 73.1036 11.5292C73.5757 11.5292 73.8859 11.8397 73.8729 12.2986H75.7489C75.6946 10.8949 74.6286 10.0176 73.1437 10.0176C71.6459 10.0176 70.5255 10.9084 70.5255 12.2581C70.5255 13.1624 71.0248 13.9048 72.3608 14.2557L73.5485 14.5661C73.8995 14.6606 74.0478 14.8225 74.0478 15.052C74.0478 15.3894 73.7376 15.6054 73.2111 15.6054C72.6037 15.6054 72.2799 15.3219 72.2799 14.8495H70.4038Z" fill="#7A7B85"/>
<path d="M79.1861 17.1578C80.0098 17.1578 80.8329 16.7799 81.2512 16.2266L81.3866 16.9824H83.3436V10.2339H81.2648V13.7431C81.2648 14.7554 80.9682 15.3087 80.0098 15.3087C79.2671 15.3087 78.7814 14.9713 78.7814 13.7161V10.2339H76.7026V14.4719C76.7026 16.0781 77.5937 17.1578 79.1861 17.1578Z" fill="#7A7B85"/>
<path d="M86.6397 16.9824V13.2977C86.6397 12.1639 87.2471 11.84 87.841 11.84C88.5021 11.84 88.9341 12.2449 88.9341 13.0817V16.9824H90.9856V13.2977C90.9856 12.1504 91.5795 11.8265 92.1733 11.8265C92.8345 11.8265 93.28 12.2314 93.28 13.0817V16.9824H95.305V12.5688C95.305 11.0302 94.4949 10.0044 92.7535 10.0044C91.7821 10.0044 90.9856 10.4767 90.6346 11.2056C90.2299 10.4767 89.5279 10.0044 88.4076 10.0044C87.6655 10.0044 86.9771 10.3418 86.5723 10.8817L86.4914 10.2338H84.5474V16.9824H86.6397Z" fill="#7A7B85"/>
<path d="M0.106934 12.9983C0.106934 7.17239 0.106934 4.25942 1.91682 2.44954C3.72671 0.639648 6.63968 0.639648 12.4656 0.639648C18.2916 0.639648 21.2045 0.639648 23.0145 2.44954C24.8243 4.25942 24.8243 7.17239 24.8243 12.9983C24.8243 18.8243 24.8243 21.7372 23.0145 23.5472C21.2045 25.357 18.2916 25.357 12.4656 25.357C6.63968 25.357 3.72671 25.357 1.91682 23.5472C0.106934 21.7372 0.106934 18.8243 0.106934 12.9983Z" fill="#7A7B85"/>
<path d="M14.9372 16.7061C15.2785 16.7061 15.5614 16.9854 15.4936 17.3199C15.3737 17.9107 15.0827 18.4582 14.6501 18.8908C14.0708 19.4702 13.2849 19.7957 12.4654 19.7957C11.646 19.7957 10.8602 19.4702 10.2807 18.8908C9.84818 18.4582 9.55713 17.9107 9.43737 17.3199C9.36952 16.9854 9.65241 16.7061 9.9937 16.7061H14.9372Z" fill="#07070A"/>
<path d="M16.2364 11.6244C15.9067 11.7127 15.7048 12.0576 15.872 12.3551C16.0479 12.6683 16.2912 12.9416 16.5873 13.1537C17.0521 13.4868 17.618 13.6485 18.1887 13.611C18.7593 13.5736 19.2993 13.3396 19.7166 12.9486C20.134 12.5577 20.4029 12.0342 20.4776 11.4672C20.5522 10.9003 20.428 10.325 20.126 9.83933C19.824 9.35375 19.363 8.98787 18.8215 8.80404C18.28 8.6202 17.6915 8.62984 17.1563 8.83129C16.8155 8.95957 16.5097 9.16059 16.2587 9.41752C16.0203 9.66167 16.126 10.0471 16.4216 10.2177L16.735 10.3987C17.2118 10.674 17.1178 11.3882 16.586 11.5307L16.2364 11.6244Z" fill="#07070A"/>
<path d="M8.69448 11.6244C9.02415 11.7127 9.22603 12.0576 9.05888 12.3551C8.88295 12.6683 8.63961 12.9416 8.34362 13.1537C7.87881 13.4868 7.31284 13.6485 6.74224 13.611C6.17159 13.5736 5.63158 13.3396 5.21421 12.9486C4.79684 12.5577 4.52792 12.0342 4.45328 11.4672C4.37864 10.9003 4.50289 10.325 4.80487 9.83933C5.10684 9.35375 5.56785 8.98787 6.10936 8.80404C6.65085 8.6202 7.23937 8.62984 7.77456 8.83129C8.11535 8.95957 8.42117 9.16059 8.67217 9.41752C8.91063 9.66167 8.80484 10.0471 8.50929 10.2177L8.19581 10.3987C7.71907 10.674 7.81312 11.3882 8.34485 11.5307L8.69448 11.6244Z" fill="#07070A"/>
</g>
<defs>
<clipPath id="clip0_1083_903">
<rect width="95.7799" height="24.7174" fill="white" transform="translate(0.106445 0.639648)"/>
</clipPath>
</defs>
</svg>
