<svg width="14" height="15" viewBox="0 0 14 15" fill="none" xmlns="http://www.w3.org/2000/svg">
<g clip-path="url(#clip0_1083_783)">
<path d="M9.36712 2.53024C10.0238 2.53221 10.6531 2.79395 11.1174 3.2583C11.5818 3.72266 11.8435 4.3519 11.8455 5.0086V9.96477C11.8435 10.6215 11.5818 11.2507 11.1174 11.7151C10.6531 12.1794 10.0238 12.4412 9.36712 12.4431H4.41094C3.75424 12.4412 3.125 12.1794 2.66065 11.7151C2.19629 11.2507 1.93455 10.6215 1.93259 9.96477V5.0086C1.93455 4.3519 2.19629 3.72266 2.66065 3.2583C3.125 2.79395 3.75424 2.53221 4.41094 2.53024H9.36712ZM9.36712 1.53906H4.41094C2.50266 1.53906 0.941406 3.10031 0.941406 5.0086V9.96477C0.941406 11.8731 2.50266 13.4343 4.41094 13.4343H9.36712C11.2754 13.4343 12.8366 11.8731 12.8366 9.96477V5.0086C12.8366 3.10031 11.2754 1.53906 9.36712 1.53906Z" fill="#7A7B85"/>
<path d="M10.1109 5.00863C9.96384 5.00863 9.8201 4.96503 9.69784 4.88334C9.57558 4.80165 9.48029 4.68554 9.42402 4.54969C9.36775 4.41384 9.35303 4.26436 9.38171 4.12014C9.4104 3.97593 9.48121 3.84345 9.58518 3.73948C9.68915 3.63551 9.82162 3.5647 9.96584 3.53601C10.1101 3.50733 10.2595 3.52205 10.3954 3.57832C10.5312 3.63459 10.6473 3.72988 10.729 3.85214C10.8107 3.9744 10.8543 4.11814 10.8543 4.26518C10.8545 4.36287 10.8355 4.45964 10.7982 4.54994C10.7609 4.64023 10.7061 4.72227 10.637 4.79135C10.568 4.86043 10.4859 4.91518 10.3956 4.95247C10.3053 4.98976 10.2086 5.00884 10.1109 5.00863ZM6.88934 5.50409C7.28147 5.50409 7.66479 5.62037 7.99083 5.83823C8.31687 6.05608 8.57099 6.36572 8.72105 6.728C8.87111 7.09028 8.91037 7.48892 8.83387 7.87351C8.75737 8.2581 8.56855 8.61138 8.29127 8.88865C8.01399 9.16593 7.66072 9.35475 7.27613 9.43125C6.89154 9.50775 6.4929 9.46849 6.13062 9.31843C5.76834 9.16837 5.4587 8.91425 5.24084 8.58821C5.02299 8.26217 4.90671 7.87885 4.90671 7.48672C4.90727 6.96107 5.11634 6.4571 5.48803 6.08541C5.85972 5.71372 6.36369 5.50465 6.88934 5.50409ZM6.88934 4.51291C6.30118 4.51291 5.72622 4.68732 5.23718 5.01409C4.74814 5.34085 4.36698 5.8053 4.1419 6.34869C3.91682 6.89209 3.85792 7.49002 3.97267 8.06688C4.08741 8.64375 4.37064 9.17363 4.78654 9.58952C5.20243 10.0054 5.73232 10.2886 6.30918 10.4034C6.88604 10.5181 7.48397 10.4592 8.02737 10.2342C8.57076 10.0091 9.03521 9.62792 9.36197 9.13888C9.68874 8.64984 9.86315 8.07488 9.86315 7.48672C9.86315 6.69802 9.54984 5.94162 8.99214 5.38392C8.43444 4.82622 7.67804 4.51291 6.88934 4.51291Z" fill="#7A7B85"/>
</g>
<defs>
<clipPath id="clip0_1083_783">
<rect width="13.5946" height="13.5946" fill="white" transform="translate(0.0917969 0.689453)"/>
</clipPath>
</defs>
</svg>
