<svg width="84" height="19" viewBox="0 0 84 19" fill="none" xmlns="http://www.w3.org/2000/svg">
<g clip-path="url(#clip0_1083_384)">
<path fill-rule="evenodd" clip-rule="evenodd" d="M26.479 1.47466C26.479 0.854527 26.9872 0.351807 27.6142 0.351807H29.5917C30.0379 0.351807 30.4703 0.504765 30.8154 0.784644L31.4169 1.27261L31.432 1.28619C31.4459 1.28155 31.4597 1.27703 31.4737 1.27261C32.559 0.928761 33.8757 0.863368 35.2197 0.863368C36.5637 0.863368 37.8804 0.928761 38.9657 1.27261C38.9797 1.27703 38.9935 1.28155 39.0074 1.28619L39.0225 1.27261L39.624 0.784644C39.969 0.504765 40.4015 0.351807 40.8477 0.351807H42.8252C43.4522 0.351807 43.9604 0.854527 43.9604 1.47466V2.16879C43.9604 2.70584 43.7317 3.21805 43.3303 3.57976L42.845 4.01716C42.6081 4.2307 42.3238 4.3861 42.0149 4.47082L41.9001 4.50232C42.3498 5.56367 42.5982 6.69816 42.5982 7.61591C42.5982 11.3077 40.2889 12.9022 38.2542 14.307C36.6518 15.4134 35.2197 16.4022 35.2197 18.2052C35.2197 16.4022 33.7876 15.4134 32.1852 14.307C30.1505 12.9022 27.8412 11.3077 27.8412 7.61591C27.8412 6.69816 28.0896 5.56367 28.5393 4.50232L28.4245 4.47082C28.1156 4.3861 27.8313 4.2307 27.5943 4.01716L27.109 3.57976C26.7077 3.21805 26.479 2.70584 26.479 2.16879V1.47466ZM36.6954 10.6341C36.6954 10.8105 36.6177 10.9796 36.4793 11.1044C36.3409 11.2291 36.1532 11.2992 35.9575 11.2992C35.7886 11.2992 35.6256 11.2469 35.4952 11.1524C35.7172 11.7402 36.2853 12.2972 37.1495 11.4015C37.9123 10.5692 37.1155 8.81378 36.3393 7.77213C36.0805 7.42493 35.6558 7.25782 35.2197 7.25782C34.7836 7.25782 34.3589 7.42493 34.1001 7.77213C33.3238 8.81378 32.5271 10.5692 33.2899 11.4015C34.1541 12.2972 34.7222 11.7402 34.9442 11.1524C34.8138 11.2469 34.6508 11.2992 34.4819 11.2992C34.2861 11.2992 34.0985 11.2291 33.9601 11.1044C33.8217 10.9796 33.744 10.8105 33.744 10.6341H36.6954ZM32.3941 5.43785H30.3385L31.9585 6.72092C32.315 7.00323 32.8361 6.91298 33.0566 6.5307C33.3351 6.04803 32.9652 5.43785 32.3941 5.43785ZM38.0453 5.43785H40.1009L38.4809 6.72092C38.1244 7.00323 37.6033 6.91298 37.3828 6.5307C37.1043 6.04803 37.4742 5.43785 38.0453 5.43785Z" fill="#7A7B85"/>
<path d="M46.4092 12.9979H48.2302V6.12886H46.4092V12.9979ZM46.4092 5.05766H48.2302V3.42407H46.4092V5.05766Z" fill="#7A7B85"/>
<path d="M49.4033 15.2475H51.2244V12.2213H51.2511C51.6395 12.8105 52.2688 13.1988 53.2329 13.1988C55.0003 13.1988 56.2055 11.7928 56.2055 9.5701C56.2055 7.4277 55.0405 5.94141 53.2195 5.94141C52.2822 5.94141 51.6395 6.38328 51.1976 6.98583H51.1574V6.12887H49.4033V15.2475ZM52.8446 11.6857C51.76 11.6857 51.1842 10.8689 51.1842 9.62366C51.1842 8.39178 51.6395 7.41431 52.7776 7.41431C53.9024 7.41431 54.3576 8.32483 54.3576 9.62366C54.3576 10.9225 53.7685 11.6857 52.8446 11.6857Z" fill="#7A7B85"/>
<path d="M59.8386 13.1988C61.5525 13.1988 62.7308 12.3686 62.7308 10.9894C62.7308 9.38264 61.4588 9.06128 60.3073 8.82026C59.3298 8.61941 58.4193 8.56585 58.4193 7.97669C58.4193 7.48126 58.8879 7.21346 59.5976 7.21346C60.3742 7.21346 60.8429 7.48126 60.9232 8.21771H62.5702C62.4363 6.83854 61.432 5.94141 59.6244 5.94141C58.0577 5.94141 56.8258 6.65108 56.8258 8.13737C56.8258 9.63705 58.031 9.9718 59.2628 10.2128C60.2001 10.4003 61.0705 10.4672 61.0705 11.1233C61.0705 11.6054 60.6152 11.9134 59.8118 11.9134C58.995 11.9134 58.4327 11.5652 58.3121 10.7752H56.625C56.7321 12.2347 57.8435 13.1988 59.8386 13.1988Z" fill="#7A7B85"/>
<path d="M69.6446 12.9979V6.12885H67.8235V10.0923C67.8235 11.0028 67.3013 11.6455 66.4443 11.6455C65.6677 11.6455 65.3062 11.2037 65.3062 10.4003V6.12885H63.4985V10.7082C63.4985 12.2079 64.3555 13.1854 65.882 13.1854C66.846 13.1854 67.3816 12.8239 67.8503 12.1945H67.8905V12.9979H69.6446Z" fill="#7A7B85"/>
<path d="M70.8228 12.9979H72.6438V9.00772C72.6438 8.0972 73.1392 7.50804 73.8757 7.50804C74.5452 7.50804 74.9335 7.90974 74.9335 8.68636V12.9979H76.7545V9.00772C76.7545 8.0972 77.2232 7.50804 77.9864 7.50804C78.6559 7.50804 79.0442 7.90974 79.0442 8.68636V12.9979H80.8653V8.37839C80.8653 6.87871 80.0485 5.94141 78.6024 5.94141C77.732 5.94141 77.0089 6.39667 76.5403 7.14651H76.5135C76.1788 6.42345 75.4825 5.94141 74.6121 5.94141C73.6614 5.94141 72.9919 6.42345 72.617 7.05278H72.5768V6.12887H70.8228V12.9979Z" fill="#7A7B85"/>
<path d="M0.434082 12.9979H2.25512V3.42407H0.434082V12.9979Z" fill="#7A7B85"/>
<path d="M6.70769 13.1988C8.8367 13.1988 10.2962 11.6188 10.2962 9.5701C10.2962 7.52143 8.8367 5.94141 6.70769 5.94141C4.57865 5.94141 3.11914 7.52143 3.11914 9.5701C3.11914 11.6188 4.57865 13.1988 6.70769 13.1988ZM6.70769 11.8062C5.58293 11.8062 4.96699 10.9091 4.96699 9.5701C4.96699 8.2311 5.58293 7.32058 6.70769 7.32058C7.81906 7.32058 8.44839 8.2311 8.44839 9.5701C8.44839 10.9091 7.81906 11.8062 6.70769 11.8062Z" fill="#7A7B85"/>
<path d="M14.169 15.3412C15.1866 15.3412 16.0704 15.1002 16.6462 14.5646C17.155 14.0959 17.4629 13.4398 17.4629 12.4757V6.12887H15.7089V6.85193H15.6821C15.267 6.27616 14.6377 5.94141 13.7807 5.94141C12.04 5.94141 10.8081 7.25363 10.8081 9.3023C10.8081 11.3778 12.3078 12.5829 13.8343 12.5829C14.7046 12.5829 15.2268 12.2347 15.6285 11.7795H15.6687V12.5293C15.6687 13.4666 15.1733 13.962 14.1422 13.962C13.2986 13.962 12.9103 13.6273 12.763 13.1988H10.9554C11.1429 14.5378 12.2944 15.3412 14.169 15.3412ZM14.1422 11.1233C13.2049 11.1233 12.589 10.4405 12.589 9.27552C12.589 8.12398 13.2049 7.40092 14.1288 7.40092C15.2268 7.40092 15.7624 8.25788 15.7624 9.26213C15.7624 10.2798 15.2938 11.1233 14.1422 11.1233Z" fill="#7A7B85"/>
<path d="M21.8893 13.1988C24.0183 13.1988 25.4778 11.6188 25.4778 9.5701C25.4778 7.52143 24.0183 5.94141 21.8893 5.94141C19.7603 5.94141 18.3008 7.52143 18.3008 9.5701C18.3008 11.6188 19.7603 13.1988 21.8893 13.1988ZM21.8893 11.8062C20.7645 11.8062 20.1486 10.9091 20.1486 9.5701C20.1486 8.2311 20.7645 7.32058 21.8893 7.32058C23.0007 7.32058 23.63 8.2311 23.63 9.5701C23.63 10.9091 23.0007 11.8062 21.8893 11.8062Z" fill="#7A7B85"/>
<path d="M80.7832 4.62915C80.7832 4.32101 81.0327 4.07123 81.3411 4.07123H82.457C82.7649 4.07123 83.0149 4.32101 83.0149 4.62915C83.0149 4.93725 82.7649 5.18707 82.457 5.18707H81.3411C81.0327 5.18707 80.7832 4.93725 80.7832 4.62915Z" fill="#7A7B85"/>
</g>
<defs>
<clipPath id="clip0_1083_384">
<rect width="83.0181" height="18.2997" fill="white" transform="translate(0.128906 0.256775)"/>
</clipPath>
</defs>
</svg>
