<svg width="126" height="26" viewBox="0 0 126 26" fill="none" xmlns="http://www.w3.org/2000/svg">
<g clip-path="url(#clip0_1083_839)">
<path fill-rule="evenodd" clip-rule="evenodd" d="M16.7317 7.8604C15.7155 7.18141 14.5208 6.819 13.2986 6.819V0.639648C15.7429 0.639648 18.1324 1.36447 20.1648 2.72247C22.1971 4.08045 23.7812 6.01062 24.7166 8.26886C25.652 10.5271 25.8967 13.0121 25.4199 15.4094C24.943 17.8067 23.766 20.0089 22.0375 21.7372C20.3092 23.4657 18.107 24.6427 15.7097 25.1196C13.3124 25.5964 10.8274 25.3517 8.56915 24.4163C6.31091 23.4809 4.38074 21.8969 3.02276 19.8645C1.66477 17.8321 0.939941 15.4426 0.939941 12.9983H7.11929C7.11929 14.2205 7.48171 15.4152 8.16069 16.4314C8.83968 17.4476 9.80477 18.2396 10.9339 18.7073C12.063 19.175 13.3055 19.2974 14.5042 19.0589C15.7028 18.8205 16.8039 18.232 17.6681 17.3678C18.5323 16.5036 19.1208 15.4025 19.3592 14.2039C19.5977 13.0052 19.4753 11.7627 19.0076 10.6336C18.5399 9.50448 17.7479 8.53939 16.7317 7.8604Z" fill="#7A7B85"/>
<path fill-rule="evenodd" clip-rule="evenodd" d="M7.11929 0.639652C7.11929 1.45113 6.95946 2.25467 6.64891 3.00439C6.33837 3.7541 5.88321 4.4353 5.3094 5.00911C4.7356 5.58292 4.05439 6.03808 3.30468 6.34863C2.55496 6.65916 1.75142 6.819 0.939942 6.819L0.939941 12.9983C2.56291 12.9983 4.16998 12.6787 5.66941 12.0576C7.16884 11.4365 8.53127 10.5262 9.67883 9.37855C10.8265 8.23098 11.7368 6.86856 12.3579 5.36912C12.979 3.86969 13.2986 2.26261 13.2986 0.639648L7.11929 0.639652Z" fill="#7A7B85"/>
<path d="M78.5641 9.57031H75.5659V19.0941H78.5641V9.57031Z" fill="#7A7B85"/>
<path d="M75.8998 7.78719C76.2131 8.10073 76.6049 8.2575 77.0751 8.2575C77.5454 8.2575 77.931 8.10073 78.2313 7.78719C78.5322 7.46061 78.6824 7.06866 78.6824 6.61142C78.6824 6.14112 78.5322 5.74918 78.2313 5.43565C77.931 5.1221 77.5454 4.96533 77.0751 4.96533C76.6049 4.96533 76.2131 5.1221 75.8998 5.43565C75.5989 5.74918 75.4487 6.14112 75.4487 6.61142C75.4487 7.06866 75.5989 7.46061 75.8998 7.78719Z" fill="#7A7B85"/>
<path d="M32.5513 19.0943V5.25928H35.6279V16.39H41.7616V19.0943H32.5513Z" fill="#7A7B85"/>
<path fill-rule="evenodd" clip-rule="evenodd" d="M47.3019 19.3099C46.3221 19.3099 45.4338 19.0944 44.6369 18.6632C43.853 18.2191 43.2325 17.6181 42.7752 16.8604C42.318 16.1026 42.0894 15.2535 42.0894 14.3129C42.0894 13.3722 42.318 12.5296 42.7752 11.7849C43.2325 11.0403 43.853 10.4524 44.6369 10.0213C45.4207 9.57707 46.3091 9.35498 47.3019 9.35498C48.2948 9.35498 49.1832 9.57058 49.967 10.0016C50.7509 10.4328 51.3715 11.0272 51.8287 11.7849C52.286 12.5296 52.5146 13.3722 52.5146 14.3129C52.5146 15.2535 52.286 16.1026 51.8287 16.8604C51.3715 17.6181 50.7509 18.2191 49.967 18.6632C49.1832 19.0944 48.2948 19.3099 47.3019 19.3099ZM47.3019 16.5861C47.7331 16.5861 48.1119 16.4946 48.4386 16.3117C48.7651 16.1157 49.0134 15.8479 49.1832 15.5083C49.3661 15.1555 49.4575 14.757 49.4575 14.3129C49.4575 13.8687 49.3661 13.4833 49.1832 13.1567C49.0003 12.817 48.7456 12.5558 48.4189 12.3729C48.1054 12.1768 47.7331 12.0789 47.3019 12.0789C46.8839 12.0789 46.5116 12.1768 46.185 12.3729C45.8584 12.5558 45.6036 12.817 45.4207 13.1567C45.2378 13.4964 45.1464 13.8883 45.1464 14.3324C45.1464 14.7636 45.2378 15.1555 45.4207 15.5083C45.6036 15.8479 45.8584 16.1157 46.185 16.3117C46.5116 16.4946 46.8839 16.5861 47.3019 16.5861Z" fill="#7A7B85"/>
<path fill-rule="evenodd" clip-rule="evenodd" d="M54.8891 22.8176C55.686 23.1834 56.607 23.3663 57.6522 23.3663C58.6712 23.3663 59.5792 23.1638 60.3761 22.7588C61.173 22.3538 61.8 21.7921 62.2573 21.0736C62.7145 20.355 62.9435 19.5059 62.9435 18.526V9.57052H60.0037V10.2104C59.7851 10.0264 59.5368 9.87189 59.2591 9.74688C58.7495 9.49865 58.1682 9.37451 57.515 9.37451C56.6397 9.37451 55.8624 9.58356 55.1831 10.0016C54.5036 10.4066 53.9681 10.9684 53.5761 11.6869C53.1842 12.3924 52.9883 13.1893 52.9883 14.0777C52.9883 14.953 53.1842 15.7499 53.5761 16.4684C53.9681 17.1869 54.5036 17.7553 55.1831 18.1733C55.8624 18.5913 56.6397 18.8004 57.515 18.8004C58.1551 18.8004 58.7365 18.6763 59.2591 18.4281C59.5122 18.3078 59.7408 18.1661 59.9449 18.0029V18.6044C59.9449 19.2707 59.7294 19.7867 59.2983 20.1525C58.8802 20.5183 58.2989 20.7012 57.5542 20.7012C56.9533 20.7012 56.4372 20.5967 56.0061 20.3877C55.5881 20.1787 55.2091 19.8716 54.8695 19.4666L53.0275 21.3087C53.4847 21.9619 54.1053 22.4649 54.8891 22.8176ZM59.1611 15.8609C58.8606 16.0438 58.5014 16.1353 58.0833 16.1353C57.6652 16.1353 57.2994 16.0438 56.9859 15.8609C56.6854 15.678 56.4503 15.4298 56.2805 15.1162C56.1106 14.7897 56.0257 14.4434 56.0257 14.0777C56.0257 13.6857 56.1106 13.333 56.2805 13.0195C56.4503 12.7059 56.6919 12.4577 57.0055 12.2748C57.319 12.0919 57.6783 12.0004 58.0833 12.0004C58.5014 12.0004 58.8606 12.0919 59.1611 12.2748C59.4746 12.4577 59.7097 12.7059 59.8666 13.0195C60.0364 13.333 60.1213 13.6857 60.1213 14.0777C60.1213 14.4696 60.0364 14.8223 59.8666 15.1358C59.7097 15.4363 59.4746 15.678 59.1611 15.8609Z" fill="#7A7B85"/>
<path fill-rule="evenodd" clip-rule="evenodd" d="M69.2534 19.3099C68.2734 19.3099 67.3848 19.0944 66.5883 18.6632C65.8041 18.2191 65.1837 17.6181 64.7264 16.8604C64.2692 16.1026 64.0405 15.2535 64.0405 14.3129C64.0405 13.3722 64.2692 12.5296 64.7264 11.7849C65.1837 11.0403 65.8041 10.4524 66.5883 10.0213C67.3718 9.57707 68.2604 9.35498 69.2534 9.35498C70.2458 9.35498 71.1344 9.57058 71.918 10.0016C72.7021 10.4328 73.3225 11.0272 73.7798 11.7849C74.2371 12.5296 74.4657 13.3722 74.4657 14.3129C74.4657 15.2535 74.2371 16.1026 73.7798 16.8604C73.3225 17.6181 72.7021 18.2191 71.918 18.6632C71.1344 19.0944 70.2458 19.3099 69.2534 19.3099ZM69.2534 16.5861C69.6841 16.5861 70.0629 16.4946 70.3898 16.3117C70.7161 16.1157 70.9645 15.8479 71.1344 15.5083C71.3173 15.1555 71.4088 14.757 71.4088 14.3129C71.4088 13.8687 71.3173 13.4833 71.1344 13.1567C70.9515 12.817 70.6969 12.5558 70.37 12.3729C70.0567 12.1768 69.6841 12.0789 69.2534 12.0789C68.8351 12.0789 68.4625 12.1768 68.1362 12.3729C67.8093 12.5558 67.5547 12.817 67.3718 13.1567C67.1889 13.4964 67.0974 13.8883 67.0974 14.3324C67.0974 14.7636 67.1889 15.1555 67.3718 15.5083C67.5547 15.8479 67.8093 16.1157 68.1362 16.3117C68.4625 16.4946 68.8351 16.5861 69.2534 16.5861Z" fill="#7A7B85"/>
<path fill-rule="evenodd" clip-rule="evenodd" d="M85.7703 19.2903C85.1308 19.2903 84.5425 19.1662 84.0068 18.918C83.725 18.7873 83.4704 18.6314 83.243 18.4501V23.1116H80.2837V9.57052H83.2819V10.2278C83.4994 10.0499 83.741 9.89611 84.0068 9.76647C84.5425 9.50514 85.1308 9.37451 85.7703 9.37451C86.6719 9.37451 87.469 9.59011 88.1611 10.0212C88.8668 10.4523 89.4155 11.0402 89.8073 11.7849C90.2127 12.5296 90.4147 13.3787 90.4147 14.3324C90.4147 15.2861 90.2127 16.1353 89.8073 16.8799C89.4155 17.6246 88.8668 18.2125 88.1611 18.6436C87.469 19.0747 86.6719 19.2903 85.7703 19.2903ZM85.2222 16.586C85.6529 16.586 86.0255 16.488 86.3388 16.292C86.6657 16.0961 86.9203 15.8282 87.1032 15.4886C87.2861 15.1489 87.3776 14.7635 87.3776 14.3324C87.3776 13.8882 87.2861 13.4963 87.1032 13.1566C86.9203 12.817 86.6657 12.5557 86.3388 12.3728C86.0255 12.1768 85.6597 12.0788 85.2414 12.0788C84.8237 12.0788 84.451 12.1768 84.1248 12.3728C83.8109 12.5557 83.5631 12.817 83.3802 13.1566C83.1973 13.4963 83.1058 13.8882 83.1058 14.3324C83.1058 14.7635 83.1905 15.1489 83.3604 15.4886C83.5433 15.8282 83.7979 16.0961 84.1248 16.292C84.451 16.488 84.8169 16.586 85.2222 16.586Z" fill="#7A7B85"/>
<path d="M93.3495 19.1136C93.8982 19.2574 94.4531 19.3292 95.0148 19.3292C96.2037 19.3292 97.1442 19.0549 97.8369 18.5062C98.542 17.9575 98.8948 17.2194 98.8948 16.2918C98.8948 15.6908 98.7842 15.2074 98.5618 14.8417C98.3399 14.4628 98.0526 14.1623 97.6997 13.9402C97.3469 13.7181 96.9743 13.5417 96.5825 13.4111C96.1907 13.2805 95.8181 13.1694 95.4659 13.078C95.1131 12.9865 94.8257 12.882 94.6033 12.7644C94.3814 12.6468 94.2702 12.4901 94.2702 12.2941C94.2702 12.1112 94.3555 11.974 94.5248 11.8826C94.6947 11.7781 94.9493 11.7259 95.2892 11.7259C95.642 11.7259 96.001 11.7977 96.3669 11.9414C96.7456 12.0851 97.0855 12.3334 97.3858 12.6861L99.0907 10.9616C98.66 10.4129 98.0983 10.0013 97.4056 9.72703C96.7265 9.43963 95.9819 9.2959 95.1718 9.2959C94.4012 9.2959 93.7283 9.42653 93.1536 9.68779C92.5783 9.94912 92.134 10.3084 91.8207 10.7656C91.5074 11.2098 91.3505 11.7389 91.3505 12.3529C91.3505 12.9277 91.4617 13.4046 91.6835 13.7835C91.9054 14.1492 92.1933 14.4367 92.5455 14.6457C92.8984 14.8547 93.271 15.018 93.6628 15.1356C94.0545 15.2532 94.4271 15.3642 94.78 15.4688C95.1322 15.5602 95.4202 15.6713 95.642 15.8019C95.8774 15.9195 95.9949 16.0958 95.9949 16.331C95.9949 16.5139 95.8966 16.6575 95.7007 16.7621C95.5178 16.8666 95.2502 16.9189 94.8974 16.9189C94.3876 16.9189 93.9174 16.8274 93.4867 16.6445C93.0553 16.4486 92.6827 16.1807 92.3694 15.8411L90.6646 17.5655C90.9914 17.9183 91.3832 18.2319 91.8405 18.5062C92.3107 18.7674 92.8137 18.9699 93.3495 19.1136Z" fill="#7A7B85"/>
<path d="M104.363 19.3096C103.488 19.3096 102.71 19.1333 102.031 18.7806C101.364 18.4148 100.842 17.9183 100.464 17.2912C100.084 16.6511 99.895 15.9195 99.895 15.0964V9.57031H102.893V15.0573C102.893 15.3838 102.945 15.6648 103.05 15.8999C103.168 16.1351 103.338 16.318 103.559 16.4486C103.782 16.5792 104.049 16.6446 104.363 16.6446C104.807 16.6446 105.16 16.5074 105.421 16.233C105.683 15.9456 105.813 15.5537 105.813 15.0573V9.57031H108.811V15.0769C108.811 15.913 108.622 16.6511 108.243 17.2912C107.864 17.9183 107.342 18.4148 106.675 18.7806C106.009 19.1333 105.238 19.3096 104.363 19.3096Z" fill="#7A7B85"/>
<path d="M113.299 9.57052H110.301V19.0943H113.299V13.5289C113.299 13.2024 113.365 12.928 113.495 12.7059C113.639 12.4838 113.829 12.314 114.064 12.1964C114.299 12.0657 114.567 12.0004 114.867 12.0004C115.299 12.0004 115.658 12.1376 115.945 12.412C116.246 12.6732 116.396 13.0456 116.396 13.5289V19.0943H119.394V13.5289C119.394 13.2024 119.46 12.928 119.59 12.7059C119.734 12.4838 119.923 12.314 120.159 12.1964C120.393 12.0657 120.662 12.0004 120.962 12.0004C121.393 12.0004 121.752 12.1376 122.04 12.412C122.34 12.6732 122.49 13.0456 122.49 13.5289V19.0943H125.489V13.1958C125.489 12.3989 125.319 11.7196 124.979 11.1578C124.652 10.5829 124.202 10.1453 123.627 9.84488C123.065 9.53128 122.418 9.37451 121.687 9.37451C120.942 9.37451 120.269 9.53783 119.669 9.86447C119.278 10.0725 118.937 10.3411 118.645 10.6701C118.372 10.3259 118.041 10.0444 117.65 9.82523C117.128 9.52479 116.533 9.37451 115.867 9.37451C115.161 9.37451 114.528 9.52479 113.966 9.82523C113.722 9.95024 113.5 10.1 113.299 10.2744V9.57052Z" fill="#7A7B85"/>
</g>
<defs>
<clipPath id="clip0_1083_839">
<rect width="124.823" height="24.7174" fill="white" transform="translate(0.939941 0.639648)"/>
</clipPath>
</defs>
</svg>
