<svg width="88" height="20" viewBox="0 0 88 20" fill="none" xmlns="http://www.w3.org/2000/svg">
<path d="M14.4801 8.99125C14.2459 9.22686 14.0665 9.51124 13.9548 9.82404C13.8431 10.1369 13.8018 10.4705 13.8337 10.8012L13.8226 10.7901C13.8555 11.1793 13.8029 11.5709 13.6688 11.9378C13.5346 12.3046 13.3221 12.6377 13.0459 12.914C12.7697 13.1901 12.4366 13.4027 12.0697 13.5368C11.7029 13.671 11.3112 13.7235 10.922 13.6906L10.9331 13.7018C10.4676 13.6584 9.99998 13.7597 9.59406 13.9919C9.1882 14.224 8.86378 14.5757 8.66512 14.999C8.46645 15.4223 8.40311 15.8965 8.48381 16.3571C8.56458 16.8176 8.78536 17.2421 9.11615 17.5726C9.44693 17.903 9.87157 18.1235 10.3322 18.2037C10.7928 18.2841 11.267 18.2203 11.6901 18.0212C12.1132 17.8222 12.4645 17.4975 12.6963 17.0914C12.9281 16.6853 13.029 16.2176 12.9853 15.7521L12.997 15.7632C12.9641 15.374 13.0166 14.9823 13.1508 14.6154C13.2849 14.2486 13.4975 13.9155 13.7737 13.6393C14.0499 13.3631 14.3831 13.1505 14.7499 13.0164C15.1167 12.8823 15.5084 12.8297 15.8976 12.8626L15.8859 12.8515C16.2661 12.8857 16.649 12.8233 16.9988 12.6702C17.3485 12.5171 17.654 12.2781 17.8869 11.9755C18.1197 11.6729 18.2725 11.3163 18.3308 10.939C18.3892 10.5617 18.3514 10.1757 18.2209 9.81681C18.0903 9.45797 17.8714 9.13788 17.5842 8.8862C17.297 8.63451 16.951 8.45939 16.5781 8.37708C16.2053 8.29477 15.8176 8.30787 15.4512 8.41521C15.0848 8.5226 14.7514 8.72071 14.4819 8.99125H14.4801Z" fill="#7A7B85"/>
<path d="M9.92154 12.2447L9.9098 12.2336C10.2406 12.2669 10.5746 12.2263 10.8879 12.1147C11.201 12.0031 11.4855 11.8234 11.7207 11.5884C11.9558 11.3534 12.1359 11.069 12.2477 10.7559C12.3595 10.4428 12.4004 10.1088 12.3673 9.77795L12.3791 9.78908C12.3462 9.39984 12.3987 9.00819 12.5328 8.64132C12.667 8.27452 12.8796 7.94139 13.1557 7.66517C13.432 7.38902 13.7651 7.17639 14.1319 7.0423C14.4988 6.90812 14.8904 6.85564 15.2796 6.88849L15.2679 6.87737C15.7335 6.92112 16.2012 6.82012 16.6073 6.58824C17.0135 6.35635 17.3382 6.00483 17.5371 5.58162C17.7361 5.15842 17.7997 4.68414 17.7193 4.22346C17.6388 3.76279 17.4182 3.33815 17.0875 3.00747C16.7568 2.6768 16.3322 2.45617 15.8715 2.3757C15.4108 2.29523 14.9366 2.35882 14.5133 2.55781C14.0901 2.75679 13.7386 3.08148 13.5067 3.4876C13.2748 3.8937 13.1738 4.36146 13.2176 4.82706L13.2065 4.81532C13.2394 5.20455 13.187 5.59628 13.0529 5.96317C12.9188 6.33005 12.7062 6.66323 12.43 6.93947C12.1538 7.21563 11.8206 7.42826 11.4538 7.56235C11.0868 7.69644 10.6951 7.74884 10.3059 7.71591L10.317 7.72765C9.98623 7.69434 9.65212 7.73494 9.33895 7.84654C9.02578 7.95808 8.74128 8.13789 8.50609 8.37289C8.27091 8.60789 8.0909 8.89227 7.97906 9.20538C7.86727 9.51848 7.82643 9.85248 7.85949 10.1833L7.84837 10.1722C7.88112 10.5614 7.82853 10.953 7.69438 11.3198C7.56016 11.6866 7.34759 12.0197 7.07144 12.2959C6.79526 12.572 6.46216 12.7846 6.09538 12.9188C5.7286 13.0529 5.33696 13.1055 4.94778 13.0728L4.9589 13.0839C4.4933 13.0402 4.02554 13.1411 3.61943 13.373C3.21332 13.6049 2.88863 13.9564 2.68965 14.3797C2.49066 14.8029 2.42706 15.2771 2.50754 15.7378C2.58801 16.1985 2.80864 16.6231 3.13931 16.9538C3.46999 17.2845 3.89463 17.5051 4.3553 17.5856C4.81598 17.666 5.29026 17.6024 5.71347 17.4035C6.13667 17.2045 6.48819 16.8798 6.72008 16.4737C6.95199 16.0675 7.05296 15.5998 7.00921 15.1342L7.02095 15.1453C6.98808 14.7561 7.0406 14.3645 7.17475 13.9976C7.30885 13.6308 7.52148 13.2976 7.79763 13.0214C8.07385 12.7453 8.40698 12.5326 8.77378 12.3986C9.14065 12.2644 9.5323 12.2119 9.92154 12.2447Z" fill="#7A7B85"/>
<path d="M5.78015 11.0047C6.01436 10.7691 6.19367 10.4847 6.3053 10.1719C6.41692 9.85902 6.4581 9.52533 6.42589 9.19474L6.43763 9.20586C6.40475 8.81656 6.45725 8.42473 6.59147 8.0578C6.7257 7.69087 6.93841 7.35768 7.21475 7.08146C7.49109 6.80526 7.82434 6.59269 8.19133 6.45863C8.55832 6.32457 8.95016 6.27223 9.33945 6.30528L9.32771 6.29415C9.79314 6.33776 10.2607 6.23673 10.6667 6.00486C11.0726 5.77299 11.3971 5.42155 11.596 4.99849C11.7948 4.57541 11.8583 4.1013 11.7779 3.6408C11.6974 3.18029 11.4768 2.75582 11.1463 2.42526C10.8158 2.09471 10.3912 1.87415 9.93076 1.79368C9.47027 1.71321 8.99613 1.77675 8.57309 1.97561C8.14999 2.17447 7.79857 2.499 7.56672 2.90492C7.33481 3.31084 7.23378 3.7784 7.27741 4.24385L7.26628 4.23272C7.29916 4.62193 7.24663 5.01362 7.11248 5.38045C6.97833 5.74728 6.76577 6.08041 6.48958 6.35661C6.21339 6.6328 5.88025 6.84539 5.51342 6.9795C5.14659 7.11366 4.7549 7.16618 4.3657 7.13331L4.37682 7.14443C3.99652 7.11032 3.61377 7.17279 3.26403 7.32598C2.91429 7.47917 2.60888 7.71818 2.3761 8.02085C2.14331 8.32345 1.9907 8.68 1.93238 9.05731C1.87406 9.43468 1.91193 9.82064 2.04249 10.1794C2.17304 10.5383 2.39205 10.8583 2.67922 11.1099C2.9664 11.3616 3.31244 11.5366 3.68529 11.619C4.05813 11.7012 4.44572 11.688 4.81214 11.5807C5.17855 11.4733 5.51192 11.2752 5.78138 11.0047H5.78015Z" fill="#7A7B85"/>
<path d="M24.9214 4.84131H26.7567V13.7723H24.9214V4.84131Z" fill="#7A7B85"/>
<path d="M27.7965 10.7143C27.7939 10.0725 27.9819 9.44428 28.3366 8.90939C28.6913 8.37451 29.1968 7.95691 29.789 7.70955C30.3812 7.46213 31.0335 7.39607 31.6633 7.51972C32.2931 7.64337 32.8721 7.9511 33.3268 8.40405C33.7815 8.85693 34.0916 9.43464 34.2178 10.0639C34.344 10.6932 34.2805 11.3458 34.0355 11.9391C33.7905 12.5322 33.3749 13.0394 32.8415 13.3962C32.308 13.7531 31.6806 13.9436 31.0388 13.9436C30.6128 13.9485 30.19 13.8683 29.7953 13.7079C29.4006 13.5475 29.0418 13.31 28.7399 13.0094C28.438 12.7087 28.1991 12.3509 28.0372 11.9568C27.8751 11.5627 27.7933 11.1403 27.7965 10.7143ZM32.4458 10.7143C32.4382 10.4376 32.3491 10.1694 32.1899 9.94301C32.0306 9.71673 31.8081 9.54235 31.5503 9.44181C31.2924 9.34121 31.0107 9.31884 30.7403 9.37754C30.4698 9.43625 30.2226 9.5733 30.0296 9.77172C29.8367 9.97008 29.7064 10.221 29.6553 10.493C29.6042 10.7649 29.6343 11.046 29.742 11.3009C29.8497 11.5559 30.0301 11.7734 30.2607 11.9263C30.4914 12.0793 30.7621 12.1608 31.0388 12.1608C31.2283 12.1659 31.4168 12.1316 31.5925 12.0602C31.7681 11.9887 31.9271 11.8817 32.0592 11.7458C32.1914 11.6099 32.294 11.4481 32.3605 11.2705C32.4271 11.093 32.4561 10.9036 32.4458 10.7143Z" fill="#7A7B85"/>
<path d="M41.5954 7.65536V13.4639C41.5954 15.5192 39.9925 16.388 38.3655 16.388C37.7927 16.4309 37.219 16.3152 36.7076 16.0536C36.1962 15.792 35.7667 15.3946 35.4661 14.905L37.032 13.9997C37.1583 14.2549 37.3596 14.4654 37.6088 14.6032C37.8581 14.7408 38.1434 14.7992 38.4267 14.7703C38.6077 14.7954 38.7921 14.7794 38.9662 14.7236C39.1402 14.6678 39.2995 14.5736 39.4322 14.4479C39.565 14.3223 39.6677 14.1684 39.733 13.9976C39.7982 13.8269 39.8241 13.6436 39.809 13.4615V12.9022C39.5941 13.1652 39.3206 13.3741 39.0103 13.5122C38.7 13.6503 38.3618 13.7138 38.0225 13.6975C37.2154 13.6721 36.4498 13.3336 35.8879 12.7536C35.3259 12.1736 35.0117 11.3978 35.0117 10.5902C35.0117 9.78273 35.3259 9.00685 35.8879 8.42692C36.4498 7.84692 37.2154 7.50842 38.0225 7.48296C38.3618 7.46671 38.7 7.53017 39.0103 7.66828C39.3206 7.80639 39.5941 8.01531 39.809 8.27824V7.65413L41.5954 7.65536ZM39.8096 10.5912C39.822 10.2954 39.7455 10.0027 39.5901 9.75078C39.4346 9.49879 39.2074 9.29913 38.9375 9.17746C38.6677 9.05573 38.3676 9.0176 38.0759 9.0679C37.7841 9.1182 37.5142 9.25464 37.3006 9.45973C37.0871 9.66476 36.9399 9.92899 36.8778 10.2184C36.8157 10.5079 36.8417 10.8093 36.9524 11.0838C37.0631 11.3584 37.2534 11.5936 37.4988 11.7591C37.7443 11.9246 38.0337 12.0128 38.3297 12.0124C38.5225 12.0259 38.716 11.9988 38.8977 11.933C39.0795 11.8671 39.2454 11.7638 39.3848 11.63C39.5242 11.4961 39.6341 11.3345 39.7072 11.1555C39.7804 10.9766 39.8153 10.7844 39.8096 10.5912Z" fill="#7A7B85"/>
<path d="M42.6349 10.7143C42.6323 10.0725 42.8202 9.44428 43.175 8.90939C43.5297 8.37451 44.0352 7.95691 44.6274 7.70955C45.2196 7.46213 45.8719 7.39607 46.5017 7.51972C47.1315 7.64337 47.7104 7.9511 48.1652 8.40405C48.6199 8.85693 48.93 9.43464 49.0562 10.0639C49.1824 10.6932 49.1189 11.3458 48.8739 11.9391C48.6289 12.5322 48.2133 13.0394 47.6799 13.3962C47.1463 13.7531 46.519 13.9436 45.8772 13.9436C45.4511 13.9485 45.0284 13.8683 44.6337 13.7079C44.2389 13.5475 43.8802 13.31 43.5783 13.0094C43.2764 12.7087 43.0375 12.3509 42.8755 11.9568C42.7135 11.5627 42.6317 11.1403 42.6349 10.7143ZM47.2842 10.7143C47.2765 10.4376 47.1875 10.1694 47.0282 9.94301C46.8689 9.71673 46.6465 9.54235 46.3887 9.44181C46.1308 9.34121 45.849 9.31884 45.5786 9.37754C45.3082 9.43625 45.061 9.5733 44.868 9.77172C44.6751 9.97008 44.5448 10.221 44.4937 10.493C44.4425 10.7649 44.4727 11.046 44.5804 11.3009C44.6881 11.5559 44.8685 11.7734 45.0991 11.9263C45.3298 12.0793 45.6004 12.1608 45.8772 12.1608C46.0667 12.1659 46.2552 12.1316 46.4308 12.0602C46.6065 11.9887 46.7654 11.8817 46.8976 11.7458C47.0298 11.6099 47.1324 11.4481 47.1989 11.2705C47.2655 11.093 47.2945 10.9036 47.2842 10.7143Z" fill="#7A7B85"/>
<path d="M49.9751 6.0162C49.9751 5.79841 50.0397 5.58551 50.1607 5.40443C50.2817 5.22335 50.4537 5.0822 50.6549 4.99886C50.8561 4.91552 51.0775 4.89371 51.2911 4.9362C51.5047 4.97869 51.7009 5.08356 51.8549 5.23757C52.0089 5.39156 52.1138 5.58777 52.1563 5.80138C52.1987 6.01498 52.1769 6.23638 52.0936 6.43759C52.0103 6.63881 51.8691 6.81078 51.688 6.93179C51.507 7.05279 51.2941 7.11736 51.0763 7.11736C50.7851 7.11446 50.5067 6.99754 50.3008 6.79163C50.095 6.58575 49.978 6.30735 49.9751 6.0162ZM50.1605 7.65558H51.9964V13.7731H50.158L50.1605 7.65558Z" fill="#7A7B85"/>
<path d="M59.921 10.7143C59.9422 11.1186 59.8833 11.5231 59.7476 11.9046C59.6119 12.286 59.4022 12.6369 59.1305 12.937C58.8587 13.2371 58.5303 13.4806 58.1642 13.6533C57.798 13.826 57.4013 13.9247 56.9969 13.9436C56.6568 13.9622 56.3169 13.9048 56.0017 13.7757C55.6865 13.6466 55.404 13.449 55.1746 13.1972V16.2195H53.3394V7.65553H55.1746V8.23021C55.4041 7.97859 55.6866 7.7811 56.0018 7.65213C56.317 7.52311 56.6569 7.46583 56.9969 7.48436C57.4014 7.50321 57.7982 7.60183 58.1644 7.77461C58.5307 7.94738 58.8591 8.19085 59.1309 8.49104C59.4027 8.79123 59.6124 9.14222 59.748 9.5238C59.8835 9.90531 59.9424 10.3099 59.921 10.7143ZM58.0857 10.7143C58.0785 10.428 57.9871 10.1502 57.8228 9.91557C57.6585 9.681 57.4287 9.50007 57.1621 9.39551C56.8954 9.2909 56.6039 9.26723 56.3239 9.32754C56.0439 9.38779 55.788 9.5293 55.588 9.73433C55.3881 9.93942 55.253 10.1988 55.1998 10.4803C55.1466 10.7617 55.1776 11.0525 55.2889 11.3164C55.4001 11.5803 55.5868 11.8055 55.8254 11.9639C56.0641 12.1222 56.3441 12.2067 56.6305 12.2066C56.8271 12.2154 57.0234 12.1825 57.2064 12.11C57.3894 12.0377 57.555 11.9274 57.6924 11.7865C57.8298 11.6455 57.9359 11.4772 58.0037 11.2924C58.0714 11.1077 58.0994 10.9106 58.0857 10.7143Z" fill="#7A7B85"/>
<path d="M65.5843 11.9371C65.5843 13.3441 64.3614 13.9435 63.0402 13.9435C62.5063 13.9918 61.9704 13.879 61.5014 13.6194C61.0325 13.3599 60.6522 12.9656 60.4097 12.4877L61.9996 11.5824C62.0639 11.8033 62.2021 11.9955 62.391 12.1269C62.5799 12.2582 62.8085 12.3208 63.0377 12.3041C63.4777 12.3041 63.6983 12.1694 63.6983 11.9253C63.6983 11.2518 60.6884 11.6071 60.6884 9.49068C60.6884 8.15656 61.8142 7.48425 63.0866 7.48425C63.5648 7.46911 64.0382 7.58256 64.4578 7.81274C64.8773 8.04299 65.2277 8.38149 65.4718 8.79304L63.9059 9.63713C63.8373 9.4769 63.723 9.3404 63.5772 9.24468C63.4314 9.14897 63.2608 9.09829 63.0866 9.09891C62.7683 9.09891 62.5724 9.2225 62.5724 9.44125C62.5749 10.1389 65.5843 9.67359 65.5843 11.9371Z" fill="#7A7B85"/>
<path d="M72.2883 7.65527V13.7728H70.4531V13.1975C70.2411 13.4514 69.9723 13.6514 69.6683 13.7812C69.3643 13.9109 69.0343 13.9667 68.7043 13.944C67.4685 13.944 66.418 13.0634 66.418 11.4105V7.65527H68.2532V11.1417C68.2378 11.2874 68.2545 11.4347 68.302 11.5733C68.349 11.712 68.4263 11.8386 68.5276 11.9445C68.6289 12.0503 68.7519 12.1328 68.8885 12.1863C69.0244 12.2397 69.1709 12.2628 69.3173 12.2539C69.9903 12.2539 70.4549 11.8628 70.4549 10.994V7.65713L72.2883 7.65527Z" fill="#7A7B85"/>
<path d="M82.8115 10.0165V13.7723H80.9762V10.1753C80.9762 9.56359 80.6827 9.17243 80.0956 9.17243C79.4839 9.17243 79.1409 9.60066 79.1409 10.3224V13.7723H77.3063V10.1753C77.3063 9.56359 77.0128 9.17243 76.4251 9.17243C75.8133 9.17243 75.471 9.60066 75.471 10.3224V13.7723H73.6357V7.65479H75.471V8.21711C75.6613 7.96765 75.911 7.76978 76.1971 7.64169C76.4838 7.51353 76.7977 7.45921 77.1104 7.48362C77.4243 7.46823 77.737 7.53454 78.0181 7.67598C78.2987 7.81737 78.5378 8.02919 78.7127 8.29064C78.916 8.01708 79.1854 7.79957 79.4956 7.65843C79.8058 7.5173 80.1469 7.45717 80.4868 7.48362C81.8914 7.48424 82.8115 8.48714 82.8115 10.0165Z" fill="#7A7B85"/>
<path d="M84.3639 7.6179C85.1159 7.6179 85.7258 7.00812 85.7258 6.25597C85.7258 5.5038 85.1159 4.89404 84.3639 4.89404C83.6119 4.89404 83.002 5.5038 83.002 6.25597C83.002 7.00812 83.6119 7.6179 84.3639 7.6179Z" fill="#7A7B85"/>
</svg>
