<svg width="13" height="9" viewBox="0 0 13 9" fill="none" xmlns="http://www.w3.org/2000/svg">
<path d="M3.50124 5.01266C3.50255 5.03879 3.49853 5.06491 3.48942 5.08944C3.48032 5.11396 3.46632 5.13638 3.44827 5.15532C3.43023 5.17427 3.40852 5.18934 3.38447 5.19964C3.36042 5.20993 3.33452 5.21522 3.30836 5.21518H1.18091C1.09384 5.21531 1.00929 5.18599 0.941002 5.13197C0.872716 5.07796 0.824711 5.00243 0.804794 4.91767C0.792393 4.85965 0.792964 4.79961 0.806468 4.74185C0.819973 4.68408 0.846076 4.63001 0.88291 4.5835C1.22325 4.13216 1.67482 3.77678 2.19352 3.55208C1.96579 3.34445 1.79113 3.08527 1.68417 2.79626C1.5772 2.50724 1.54104 2.1968 1.57873 1.89094C1.61641 1.58508 1.72683 1.2927 1.90075 1.03829C2.07467 0.783875 2.30701 0.574841 2.57833 0.428692C2.84964 0.282542 3.15203 0.203532 3.46016 0.198278C3.76829 0.193025 4.07319 0.261681 4.34933 0.398496C4.62547 0.535312 4.86481 0.736304 5.0473 0.984638C5.22979 1.23297 5.35012 1.52142 5.3982 1.82582C5.40441 1.86675 5.39708 1.9086 5.37732 1.94498C5.35756 1.98136 5.32646 2.0103 5.28874 2.02738C4.75369 2.27473 4.30056 2.66997 3.98281 3.16646C3.66506 3.66295 3.49596 4.23996 3.49545 4.82942C3.49545 4.89115 3.49545 4.9519 3.50124 5.01266ZM12.2772 4.58302C11.9377 4.1322 11.4871 3.77702 10.9695 3.55208C11.1972 3.34445 11.3719 3.08527 11.4789 2.79626C11.5858 2.50724 11.622 2.1968 11.5843 1.89094C11.5466 1.58508 11.4362 1.2927 11.2623 1.03829C11.0884 0.783875 10.856 0.574841 10.5847 0.428692C10.3134 0.282542 10.011 0.203532 9.70287 0.198278C9.39474 0.193025 9.08984 0.261681 8.8137 0.398496C8.53756 0.535312 8.29822 0.736304 8.11573 0.984638C7.93324 1.23297 7.81291 1.52142 7.76483 1.82582C7.75862 1.86675 7.76595 1.9086 7.78571 1.94498C7.80547 1.98136 7.83657 2.0103 7.87429 2.02738C8.40934 2.27473 8.86247 2.66997 9.18022 3.16646C9.49797 3.66295 9.66707 4.23996 9.66758 4.82942C9.66758 4.89115 9.66758 4.9519 9.66179 5.01266C9.66048 5.03879 9.6645 5.06491 9.67361 5.08944C9.68272 5.11396 9.69671 5.13638 9.71476 5.15532C9.7328 5.17427 9.75451 5.18934 9.77856 5.19964C9.80261 5.20993 9.82851 5.21522 9.85467 5.21518H11.9821C12.0692 5.21531 12.1537 5.18599 12.222 5.13197C12.2903 5.07796 12.3383 5.00243 12.3582 4.91767C12.3707 4.85955 12.3701 4.79938 12.3565 4.74151C12.343 4.68364 12.3167 4.62951 12.2796 4.58302H12.2772ZM7.98567 6.66515C8.36977 6.37099 8.65203 5.96387 8.79279 5.50101C8.93355 5.03815 8.92574 4.54281 8.77044 4.08462C8.61514 3.62643 8.32018 3.22842 7.92699 2.94653C7.53381 2.66463 7.06217 2.51304 6.57838 2.51304C6.09459 2.51304 5.62296 2.66463 5.22977 2.94653C4.83659 3.22842 4.54162 3.62643 4.38632 4.08462C4.23102 4.54281 4.22321 5.03815 4.36397 5.50101C4.50473 5.96387 4.78699 6.37099 5.17109 6.66515C4.48952 6.96046 3.9204 7.46622 3.54705 8.10837C3.51319 8.16701 3.49536 8.23354 3.49537 8.30127C3.49537 8.36899 3.5132 8.43552 3.54707 8.49416C3.58094 8.55281 3.62965 8.6015 3.6883 8.63535C3.74696 8.6692 3.81349 8.68702 3.88121 8.687H9.28182C9.34954 8.68702 9.41607 8.6692 9.47473 8.63535C9.53338 8.6015 9.58209 8.55281 9.61596 8.49416C9.64983 8.43552 9.66766 8.36899 9.66766 8.30127C9.66767 8.23354 9.64984 8.16701 9.61598 8.10837C9.24183 7.4658 8.67165 6.96 7.98905 6.66515H7.98567Z" fill="#96EA63"/>
</svg>
