<svg width="11" height="14" viewBox="0 0 11 14" fill="none" xmlns="http://www.w3.org/2000/svg">
<path d="M10.7956 4.35162L7.38692 0.94297C7.34167 0.897765 7.28795 0.861918 7.22883 0.837479C7.16972 0.81304 7.10637 0.800487 7.04241 0.800537H1.199C0.940704 0.800537 0.692988 0.903144 0.510347 1.08579C0.327705 1.26843 0.225098 1.51614 0.225098 1.77444V12.4873C0.225098 12.7456 0.327705 12.9934 0.510347 13.176C0.692988 13.3586 0.940704 13.4613 1.199 13.4613H9.96411C10.2224 13.4613 10.4701 13.3586 10.6528 13.176C10.8354 12.9934 10.938 12.7456 10.938 12.4873V4.69614C10.9381 4.63218 10.9255 4.56883 10.9011 4.50971C10.8766 4.4506 10.8408 4.39688 10.7956 4.35162ZM7.52936 10.0526H3.63375C3.5046 10.0526 3.38075 10.0013 3.28943 9.90997C3.1981 9.81865 3.1468 9.69479 3.1468 9.56565C3.1468 9.4365 3.1981 9.31264 3.28943 9.22132C3.38075 9.13 3.5046 9.0787 3.63375 9.0787H7.52936C7.6585 9.0787 7.78236 9.13 7.87368 9.22132C7.965 9.31264 8.01631 9.4365 8.01631 9.56565C8.01631 9.69479 7.965 9.81865 7.87368 9.90997C7.78236 10.0013 7.6585 10.0526 7.52936 10.0526ZM7.52936 8.10479H3.63375C3.5046 8.10479 3.38075 8.05349 3.28943 7.96217C3.1981 7.87085 3.1468 7.74699 3.1468 7.61784C3.1468 7.4887 3.1981 7.36484 3.28943 7.27352C3.38075 7.1822 3.5046 7.13089 3.63375 7.13089H7.52936C7.6585 7.13089 7.78236 7.1822 7.87368 7.27352C7.965 7.36484 8.01631 7.4887 8.01631 7.61784C8.01631 7.74699 7.965 7.87085 7.87368 7.96217C7.78236 8.05349 7.6585 8.10479 7.52936 8.10479ZM7.04241 4.69614V2.01791L9.72063 4.69614H7.04241Z" fill="#96EA63"/>
</svg>
