<svg width="15" height="12" viewBox="0 0 15 12" fill="none" xmlns="http://www.w3.org/2000/svg">
<path d="M4.06609 3.98351L1.67717 5.97428L4.06609 7.96505C4.11493 8.00415 4.15548 8.05259 4.18538 8.10755C4.21527 8.16251 4.2339 8.22288 4.24018 8.28512C4.24646 8.34737 4.24026 8.41024 4.22195 8.47006C4.20363 8.52989 4.17357 8.58545 4.13353 8.63352C4.09348 8.68158 4.04425 8.72118 3.98871 8.74999C3.93318 8.7788 3.87246 8.79624 3.8101 8.8013C3.74775 8.80636 3.68501 8.79893 3.62555 8.77945C3.5661 8.75996 3.51113 8.72882 3.46386 8.68784L0.640915 6.33538C0.587945 6.29123 0.545329 6.23597 0.516084 6.17352C0.486839 6.11106 0.47168 6.04295 0.47168 5.97399C0.47168 5.90503 0.486839 5.83691 0.516084 5.77446C0.545329 5.71201 0.587945 5.65675 0.640915 5.61259L3.46386 3.26013C3.55979 3.18027 3.68351 3.14179 3.80781 3.15315C3.93211 3.16451 4.04681 3.22478 4.12667 3.32071C4.20653 3.41664 4.24501 3.54036 4.23365 3.66466C4.22229 3.78896 4.16202 3.90365 4.06609 3.98351ZM14.4169 5.61259L11.594 3.26013C11.5465 3.22059 11.4916 3.19079 11.4326 3.17243C11.3736 3.15408 11.3116 3.14753 11.25 3.15315C11.1885 3.15878 11.1286 3.17647 11.0739 3.20522C11.0192 3.23397 10.9707 3.27321 10.9312 3.32071C10.8513 3.41664 10.8128 3.54036 10.8242 3.66466C10.8355 3.78896 10.8958 3.90365 10.9917 3.98351L13.3806 5.97428L10.9917 7.96505C10.9429 8.00415 10.9023 8.05259 10.8724 8.10755C10.8426 8.16251 10.8239 8.22288 10.8176 8.28512C10.8114 8.34737 10.8176 8.41024 10.8359 8.47006C10.8542 8.52989 10.8842 8.58545 10.9243 8.63352C10.9643 8.68158 11.0136 8.72118 11.0691 8.74999C11.1246 8.7788 11.1854 8.79624 11.2477 8.8013C11.3101 8.80636 11.3728 8.79893 11.4323 8.77945C11.4917 8.75996 11.5467 8.72882 11.594 8.68784L14.4169 6.33538C14.4699 6.29123 14.5125 6.23597 14.5417 6.17352C14.571 6.11106 14.5861 6.04295 14.5861 5.97399C14.5861 5.90503 14.571 5.83691 14.5417 5.77446C14.5125 5.71201 14.4699 5.65675 14.4169 5.61259ZM9.57143 0.356614C9.51335 0.335528 9.45169 0.326088 9.38996 0.328834C9.32823 0.331579 9.26765 0.346456 9.21168 0.372616C9.1557 0.398775 9.10542 0.435703 9.06372 0.481293C9.02201 0.526883 8.9897 0.580241 8.96861 0.638321L5.20468 10.9891C5.18351 11.0472 5.174 11.109 5.1767 11.1708C5.1794 11.2325 5.19425 11.2932 5.22042 11.3492C5.24658 11.4053 5.28354 11.4556 5.32918 11.4974C5.37482 11.5391 5.42824 11.5715 5.48639 11.5925C5.53793 11.6109 5.59224 11.6202 5.64694 11.6202C5.74357 11.6202 5.83785 11.5904 5.91697 11.535C5.9961 11.4795 6.05623 11.4011 6.08921 11.3102L9.85314 0.959431C9.87422 0.901353 9.88366 0.83969 9.88092 0.777963C9.87817 0.716236 9.86329 0.655654 9.83714 0.599677C9.81098 0.5437 9.77405 0.493424 9.72846 0.451719C9.68287 0.410014 9.62951 0.377697 9.57143 0.356614Z" fill="#E8E9EA"/>
</svg>
