<svg width="5" height="8" viewBox="0 0 5 8" fill="none" xmlns="http://www.w3.org/2000/svg">
<path d="M4.0656 4.11321L0.717817 7.46099C0.686712 7.4921 0.649786 7.51677 0.609146 7.53361C0.568506 7.55044 0.524949 7.5591 0.480961 7.5591C0.436972 7.5591 0.393415 7.55044 0.352775 7.53361C0.312135 7.51677 0.275209 7.4921 0.244105 7.46099C0.213 7.42989 0.188327 7.39296 0.171494 7.35232C0.15466 7.31168 0.145996 7.26813 0.145996 7.22414C0.145996 7.18015 0.15466 7.13659 0.171494 7.09595C0.188327 7.05531 0.213 7.01839 0.244105 6.98728L3.35545 3.87635L0.244105 0.765424C0.181287 0.702606 0.145996 0.617406 0.145996 0.528568C0.145996 0.43973 0.181287 0.35453 0.244105 0.291712C0.306923 0.228894 0.392123 0.193604 0.480961 0.193604C0.569799 0.193604 0.654999 0.228894 0.717817 0.291712L4.0656 3.6395C4.09673 3.67059 4.12142 3.70751 4.13827 3.74815C4.15512 3.78879 4.16379 3.83236 4.16379 3.87635C4.16379 3.92035 4.15512 3.96391 4.13827 4.00455C4.12142 4.04519 4.09673 4.08212 4.0656 4.11321Z" fill="#1E2F14"/>
</svg>
