<svg width="13" height="13" viewBox="0 0 13 13" fill="none" xmlns="http://www.w3.org/2000/svg">
<path d="M12.3193 1.57566C12.3054 1.34625 12.2079 1.12988 12.0454 0.967361C11.8829 0.804846 11.6665 0.707427 11.4371 0.693486C10.6973 0.649377 8.80648 0.71701 7.2374 2.28551L6.95804 2.56839H3.52757C3.40352 2.5677 3.28058 2.59167 3.16588 2.63892C3.05118 2.68617 2.94703 2.75576 2.85947 2.84363L0.84224 4.86204C0.718529 4.98567 0.63172 5.14132 0.591556 5.31154C0.551391 5.48176 0.559461 5.65981 0.614859 5.8257C0.670257 5.99159 0.770791 6.13876 0.905178 6.25068C1.03957 6.36261 1.20249 6.43487 1.37566 6.45936L3.63814 6.77518L6.23819 9.37523L6.55401 11.6389C6.57829 11.8121 6.65053 11.975 6.76257 12.1093C6.8746 12.2435 7.02196 12.3438 7.18799 12.3987C7.2847 12.431 7.38598 12.4475 7.48793 12.4475C7.61138 12.4478 7.73366 12.4236 7.84772 12.3763C7.96178 12.3291 8.06536 12.2598 8.1525 12.1723L10.1709 10.1551C10.2588 10.0675 10.3284 9.96336 10.3756 9.84866C10.4229 9.73396 10.4468 9.61102 10.4461 9.48697V6.0565L10.7267 5.77597C12.2958 4.20688 12.3634 2.31609 12.3193 1.57566ZM3.52757 3.50938H6.01706L3.69224 5.8336L1.50681 5.52896L3.52757 3.50938ZM7.90373 2.95361C8.35583 2.49872 8.89979 2.14554 9.49927 1.91766C10.0988 1.68977 10.74 1.59242 11.3801 1.63212C11.4213 2.27256 11.325 2.91441 11.0975 3.51453C10.8701 4.11465 10.5169 4.65914 10.0615 5.1114L6.68222 8.48953L4.52501 6.33233L7.90373 2.95361ZM9.50516 9.48697L7.48617 11.5077L7.18094 9.32171L9.50516 6.99748V9.48697ZM5.14371 10.0457C4.87906 10.6256 3.99394 11.9782 1.50681 11.9782C1.38203 11.9782 1.26236 11.9287 1.17412 11.8404C1.08589 11.7522 1.03632 11.6325 1.03632 11.5077C1.03632 9.0206 2.38898 8.13548 2.96886 7.87024C3.02509 7.8446 3.08581 7.83029 3.14757 7.82811C3.20933 7.82594 3.27091 7.83595 3.3288 7.85758C3.38668 7.87921 3.43975 7.91202 3.48495 7.95416C3.53016 7.99629 3.56662 8.04691 3.59226 8.10314C3.6179 8.15936 3.63222 8.22009 3.63439 8.28185C3.63657 8.3436 3.62655 8.40518 3.60493 8.46307C3.5833 8.52096 3.55048 8.57402 3.50835 8.61923C3.46622 8.66443 3.41559 8.7009 3.35937 8.72654C2.98121 8.89886 2.14668 9.45345 1.99965 11.0149C3.56109 10.8679 4.11686 10.0333 4.288 9.65517C4.31364 9.59895 4.35011 9.54832 4.39531 9.50619C4.44052 9.46406 4.49358 9.43124 4.55147 9.40961C4.60936 9.38799 4.67094 9.37798 4.7327 9.38015C4.79445 9.38232 4.85518 9.39664 4.9114 9.42228C4.96763 9.44792 5.01825 9.48438 5.06039 9.52959C5.10252 9.57479 5.13533 9.62786 5.15696 9.68574C5.17859 9.74363 5.1886 9.80521 5.18643 9.86697C5.18425 9.92873 5.16994 9.98945 5.1443 10.0457H5.14371Z" fill="#96EA63"/>
</svg>
