<svg width="15" height="13" viewBox="0 0 15 13" fill="none" xmlns="http://www.w3.org/2000/svg">
<path d="M4.26336 4.57604L1.87444 6.56681L4.26336 8.55758C4.3122 8.59668 4.35275 8.64512 4.38264 8.70008C4.41253 8.75504 4.43116 8.81541 4.43744 8.87765C4.44372 8.9399 4.43752 9.00277 4.41921 9.06259C4.4009 9.12241 4.37084 9.17798 4.33079 9.22605C4.29075 9.27411 4.24151 9.31371 4.18598 9.34252C4.13045 9.37132 4.06972 9.38877 4.00737 9.39383C3.94501 9.39888 3.88227 9.39146 3.82282 9.37197C3.76337 9.35249 3.7084 9.32135 3.66113 9.28037L0.838181 6.92791C0.785211 6.88376 0.742595 6.8285 0.71335 6.76605C0.684105 6.70359 0.668945 6.63548 0.668945 6.56652C0.668945 6.49756 0.684105 6.42944 0.71335 6.36699C0.742595 6.30454 0.785211 6.24928 0.838181 6.20512L3.66113 3.85266C3.75706 3.7728 3.88078 3.73432 4.00508 3.74568C4.12938 3.75704 4.24407 3.81731 4.32393 3.91324C4.40379 4.00917 4.44228 4.13289 4.43092 4.25719C4.41956 4.38149 4.35928 4.49618 4.26336 4.57604ZM14.6142 6.20512L11.7912 3.85266C11.7437 3.81312 11.6889 3.78332 11.6299 3.76496C11.5709 3.74661 11.5088 3.74006 11.4473 3.74568C11.3857 3.75131 11.3259 3.769 11.2712 3.79775C11.2165 3.8265 11.168 3.86574 11.1284 3.91324C11.0486 4.00917 11.0101 4.13289 11.0214 4.25719C11.0328 4.38149 11.0931 4.49618 11.189 4.57604L13.5779 6.56681L11.189 8.55758C11.1402 8.59668 11.0996 8.64512 11.0697 8.70008C11.0398 8.75504 11.0212 8.81541 11.0149 8.87765C11.0086 8.9399 11.0148 9.00277 11.0331 9.06259C11.0515 9.12241 11.0815 9.17798 11.1216 9.22605C11.1616 9.27411 11.2108 9.31371 11.2664 9.34252C11.3219 9.37132 11.3826 9.38877 11.445 9.39383C11.5073 9.39888 11.5701 9.39146 11.6295 9.37197C11.689 9.35249 11.7439 9.32135 11.7912 9.28037L14.6142 6.92791C14.6671 6.88376 14.7098 6.8285 14.739 6.76605C14.7682 6.70359 14.7834 6.63548 14.7834 6.56652C14.7834 6.49756 14.7682 6.42944 14.739 6.36699C14.7098 6.30454 14.6671 6.24928 14.6142 6.20512ZM9.7687 0.949143C9.71062 0.928057 9.64895 0.918618 9.58723 0.921363C9.5255 0.924109 9.46492 0.938986 9.40894 0.965145C9.35296 0.991304 9.30269 1.02823 9.26098 1.07382C9.21928 1.11941 9.18696 1.17277 9.16588 1.23085L5.40195 11.5817C5.38077 11.6398 5.37126 11.7015 5.37396 11.7633C5.37666 11.8251 5.39152 11.8857 5.41769 11.9418C5.44385 11.9978 5.48081 12.0482 5.52645 12.0899C5.57208 12.1316 5.62551 12.164 5.68365 12.1851C5.7352 12.2034 5.78951 12.2127 5.84421 12.2127C5.94083 12.2127 6.03511 12.183 6.11424 12.1275C6.19336 12.0721 6.2535 11.9936 6.28647 11.9028L10.0504 1.55196C10.0715 1.49388 10.0809 1.43222 10.0782 1.37049C10.0754 1.30877 10.0606 1.24818 10.0344 1.19221C10.0082 1.13623 9.97131 1.08595 9.92572 1.04425C9.88013 1.00254 9.82678 0.970227 9.7687 0.949143Z" fill="#96EA63"/>
</svg>
