<svg width="15" height="10" viewBox="0 0 15 10" fill="none" xmlns="http://www.w3.org/2000/svg">
<path d="M6.79405 6.73185C7.42462 6.31205 7.90336 5.70047 8.15947 4.98754C8.41558 4.27461 8.43546 3.49818 8.21617 2.77308C7.99688 2.04798 7.55007 1.4127 6.9418 0.961175C6.33353 0.509654 5.5961 0.265869 4.83857 0.265869C4.08103 0.265869 3.3436 0.509654 2.73534 0.961175C2.12707 1.4127 1.68025 2.04798 1.46096 2.77308C1.24167 3.49818 1.26155 4.27461 1.51766 4.98754C1.77377 5.70047 2.25251 6.31205 2.88309 6.73185C1.74243 7.15226 0.76829 7.93021 0.106011 8.94963C0.071204 9.00137 0.0470269 9.0595 0.0348853 9.12066C0.0227436 9.18182 0.0228796 9.24478 0.0352852 9.30588C0.0476908 9.36699 0.0721187 9.42502 0.107149 9.4766C0.142179 9.52818 0.187113 9.57229 0.239338 9.60635C0.291563 9.64042 0.350039 9.66376 0.411365 9.67502C0.472691 9.68629 0.535645 9.68525 0.596567 9.67198C0.657489 9.6587 0.715163 9.63344 0.766239 9.59768C0.817314 9.56191 0.860772 9.51635 0.894084 9.46364C1.32128 8.80659 1.90585 8.26667 2.5947 7.8929C3.28354 7.51912 4.05485 7.32335 4.83857 7.32335C5.62228 7.32335 6.39359 7.51912 7.08244 7.8929C7.77128 8.26667 8.35585 8.80659 8.78305 9.46364C8.85206 9.56621 8.95865 9.63749 9.0798 9.66209C9.20094 9.68668 9.3269 9.66261 9.43044 9.59508C9.53398 9.52754 9.60678 9.42198 9.63311 9.3012C9.65943 9.18042 9.63717 9.05413 9.57112 8.94963C8.90884 7.93021 7.9347 7.15226 6.79405 6.73185ZM2.25086 3.79599C2.25086 3.28419 2.40263 2.78388 2.68697 2.35834C2.97131 1.93279 3.37545 1.60112 3.8483 1.40526C4.32114 1.2094 4.84144 1.15816 5.3434 1.25801C5.84537 1.35785 6.30645 1.60431 6.66835 1.9662C7.03025 2.3281 7.2767 2.78919 7.37655 3.29115C7.47639 3.79312 7.42515 4.31342 7.22929 4.78626C7.03343 5.2591 6.70176 5.66324 6.27622 5.94758C5.85067 6.23192 5.35037 6.38369 4.83857 6.38369C4.1525 6.38291 3.49476 6.11003 3.00964 5.62491C2.52452 5.13979 2.25164 4.48205 2.25086 3.79599ZM14.6095 9.60067C14.505 9.66882 14.3777 9.69267 14.2556 9.66698C14.1335 9.64128 14.0266 9.56814 13.9585 9.46364C13.5318 8.8062 12.9473 8.26604 12.2583 7.89242C11.5693 7.51881 10.7977 7.32362 10.014 7.32467C9.88919 7.32467 9.76952 7.2751 9.68128 7.18687C9.59305 7.09863 9.54348 6.97896 9.54348 6.85418C9.54348 6.7294 9.59305 6.60973 9.68128 6.52149C9.76952 6.43326 9.88919 6.38369 10.014 6.38369C10.3951 6.38333 10.7713 6.29881 11.116 6.13616C11.4606 5.97351 11.7651 5.73676 12.0076 5.44281C12.2501 5.14886 12.4247 4.80497 12.5189 4.43572C12.6131 4.06647 12.6246 3.68097 12.5526 3.30676C12.4805 2.93255 12.3267 2.57888 12.1021 2.271C11.8776 1.96313 11.5878 1.70866 11.2534 1.52577C10.9191 1.34288 10.5485 1.23609 10.1681 1.21303C9.78775 1.18997 9.40697 1.2512 9.05299 1.39236C8.99528 1.41731 8.93315 1.43044 8.87028 1.43097C8.8074 1.4315 8.74506 1.41943 8.68693 1.39546C8.62881 1.37149 8.57607 1.33611 8.53185 1.29141C8.48763 1.24672 8.45281 1.19361 8.42946 1.13523C8.40611 1.07686 8.3947 1.01439 8.3959 0.951524C8.39709 0.88866 8.41088 0.826674 8.43644 0.769228C8.462 0.711783 8.49882 0.660043 8.54471 0.617067C8.59061 0.574091 8.64466 0.54075 8.70365 0.519014C9.51376 0.195934 10.4148 0.184308 11.233 0.486377C12.0512 0.788447 12.7285 1.38281 13.1343 2.1548C13.5401 2.9268 13.6456 3.82172 13.4305 4.66693C13.2154 5.51215 12.6949 6.24776 11.9695 6.73185C13.1101 7.15226 14.0842 7.93021 14.7465 8.94963C14.8147 9.05414 14.8385 9.18144 14.8128 9.30353C14.7871 9.42562 14.714 9.5325 14.6095 9.60067Z" fill="#E8E9EA"/>
</svg>
