<svg width="6" height="10" viewBox="0 0 6 10" fill="none" xmlns="http://www.w3.org/2000/svg">
<path d="M4.89974 5.67623L1.0737 9.50227C0.965888 9.61009 0.81966 9.67066 0.667187 9.67066C0.514713 9.67066 0.368485 9.61009 0.26067 9.50227C0.152855 9.39446 0.0922852 9.24823 0.0922852 9.09576C0.0922852 8.94328 0.152855 8.79705 0.26067 8.68924L3.68067 5.27019L0.261627 1.85019C0.208242 1.79681 0.165895 1.73343 0.137003 1.66368C0.108112 1.59393 0.0932415 1.51917 0.0932415 1.44368C0.0932415 1.36818 0.108112 1.29342 0.137003 1.22367C0.165895 1.15392 0.208242 1.09054 0.261627 1.03716C0.315011 0.983775 0.378388 0.941428 0.448138 0.912536C0.517888 0.883645 0.592646 0.868774 0.668143 0.868774C0.74364 0.868774 0.818398 0.883645 0.888148 0.912536C0.957899 0.941428 1.02128 0.983775 1.07466 1.03716L4.9007 4.8632C4.95414 4.91658 4.99652 4.97998 5.0254 5.04978C5.05429 5.11957 5.06911 5.19438 5.06902 5.26991C5.06893 5.34545 5.05393 5.42022 5.02488 5.48995C4.99584 5.55967 4.95331 5.62298 4.89974 5.67623Z" fill="#E8E9EA"/>
</svg>
