<svg width="15" height="11" viewBox="0 0 15 11" fill="none" xmlns="http://www.w3.org/2000/svg">
<path d="M13.4022 6.53308C13.0529 5.17437 12.2135 3.99278 11.0456 3.21552H14.5155C14.6403 3.21552 14.76 3.16595 14.8482 3.07772C14.9364 2.98948 14.986 2.86981 14.986 2.74503C14.986 2.62025 14.9364 2.50058 14.8482 2.41234C14.76 2.32411 14.6403 2.27454 14.5155 2.27454H9.75179C9.64814 1.86972 9.41271 1.51091 9.08261 1.25468C8.75251 0.998453 8.34652 0.859375 7.92864 0.859375C7.51076 0.859375 7.10477 0.998453 6.77467 1.25468C6.44457 1.51091 6.20913 1.86972 6.10548 2.27454H1.34176C1.21698 2.27454 1.0973 2.32411 1.00907 2.41234C0.920836 2.50058 0.871267 2.62025 0.871267 2.74503C0.871267 2.86981 0.920836 2.98948 1.00907 3.07772C1.0973 3.16595 1.21698 3.21552 1.34176 3.21552H4.81163C3.64373 3.99278 2.80441 5.17437 2.45506 6.53308C2.00331 6.60516 1.59329 6.83931 1.30165 7.19176C1.01001 7.54421 0.856736 7.99081 0.870479 8.44807C0.884222 8.90532 1.06404 9.34192 1.37632 9.67622C1.68859 10.0105 2.11194 10.2196 2.5672 10.2644C3.02246 10.3093 3.47846 10.1867 3.84994 9.91975C4.22141 9.65277 4.48292 9.25962 4.58557 8.81383C4.68822 8.36803 4.62498 7.90011 4.40767 7.49755C4.19037 7.095 3.83388 6.78538 3.40486 6.62659C3.60687 5.93009 3.96599 5.28924 4.45457 4.75334C4.94316 4.21744 5.5482 3.80079 6.22311 3.53546C6.37411 3.86105 6.61507 4.13668 6.91757 4.32984C7.22007 4.523 7.57149 4.62563 7.9304 4.62563C8.28931 4.62563 8.64074 4.523 8.94324 4.32984C9.24574 4.13668 9.4867 3.86105 9.6377 3.53546C10.312 3.80124 10.9163 4.21808 11.4042 4.75396C11.8922 5.28983 12.2508 5.93045 12.4524 6.62659C12.0232 6.78484 11.6663 7.09402 11.4485 7.49631C11.2307 7.89859 11.1669 8.36644 11.269 8.81237C11.3711 9.2583 11.6321 9.65177 12.0032 9.91921C12.3744 10.1867 12.8302 10.3098 13.2856 10.2655C13.7409 10.2212 14.1645 10.0126 14.4772 9.67871C14.7899 9.34479 14.9702 8.90841 14.9845 8.45117C14.9988 7.99392 14.8461 7.54713 14.5548 7.19432C14.2636 6.84152 13.8539 6.60687 13.4022 6.53425V6.53308ZM3.69422 8.39093C3.69422 8.57704 3.63903 8.75897 3.53563 8.91371C3.43223 9.06845 3.28527 9.18906 3.11333 9.26028C2.94139 9.3315 2.75219 9.35014 2.56966 9.31383C2.38712 9.27752 2.21946 9.1879 2.08786 9.0563C1.95626 8.9247 1.86664 8.75704 1.83033 8.5745C1.79402 8.39197 1.81266 8.20277 1.88388 8.03083C1.9551 7.85889 2.07571 7.71193 2.23045 7.60853C2.38519 7.50513 2.56712 7.44995 2.75323 7.44995C3.0028 7.44995 3.24214 7.54908 3.41861 7.72555C3.59508 7.90202 3.69422 8.14136 3.69422 8.39093ZM7.92864 3.68601C7.74253 3.68601 7.5606 3.63083 7.40586 3.52743C7.25111 3.42403 7.1305 3.27707 7.05928 3.10513C6.98806 2.93319 6.96943 2.74399 7.00574 2.56145C7.04204 2.37892 7.13166 2.21125 7.26326 2.07966C7.39486 1.94806 7.56253 1.85844 7.74506 1.82213C7.92759 1.78582 8.1168 1.80446 8.28874 1.87568C8.46068 1.9469 8.60764 2.06751 8.71104 2.22225C8.81443 2.37699 8.86962 2.55892 8.86962 2.74503C8.86962 2.9946 8.77048 3.23394 8.59401 3.41041C8.41754 3.58687 8.1782 3.68601 7.92864 3.68601ZM13.104 9.33191C12.9179 9.33191 12.736 9.27672 12.5813 9.17333C12.4265 9.06993 12.3059 8.92297 12.2347 8.75103C12.1635 8.57908 12.1448 8.38988 12.1811 8.20735C12.2175 8.02482 12.3071 7.85715 12.4387 7.72555C12.5703 7.59395 12.7379 7.50433 12.9205 7.46803C13.103 7.43172 13.2922 7.45035 13.4641 7.52157C13.6361 7.59279 13.783 7.7134 13.8864 7.86815C13.9898 8.02289 14.045 8.20482 14.045 8.39093C14.045 8.64049 13.9459 8.87984 13.7694 9.0563C13.593 9.23277 13.3536 9.33191 13.104 9.33191Z" fill="#E8E9EA"/>
</svg>
