<svg width="15" height="15" viewBox="0 0 15 15" fill="none" xmlns="http://www.w3.org/2000/svg">
<path d="M7.5816 0.415161C6.16091 0.415161 4.77212 0.836446 3.59085 1.62574C2.40959 2.41504 1.4889 3.5369 0.945227 4.84945C0.40155 6.162 0.259299 7.60629 0.536463 8.99969C0.813627 10.3931 1.49776 11.673 2.50234 12.6776C3.50692 13.6822 4.78684 14.3663 6.18024 14.6435C7.57364 14.9206 9.01793 14.7784 10.3305 14.2347C11.643 13.691 12.7649 12.7703 13.5542 11.5891C14.3435 10.4078 14.7648 9.01902 14.7648 7.59833C14.7628 5.69385 14.0053 3.86795 12.6586 2.52128C11.312 1.17461 9.48608 0.417172 7.5816 0.415161ZM2.91255 3.71113L4.09155 4.89013C3.60343 5.51462 3.29319 6.25943 3.19366 7.04577H1.5291C1.64015 5.81934 2.12279 4.65599 2.91255 3.71113ZM1.5291 8.15088H3.19711C3.29664 8.93722 3.60689 9.68203 4.09501 10.3065L2.91255 11.4855C2.12279 10.5407 1.64015 9.37731 1.5291 8.15088ZM7.02905 13.6508C5.80285 13.5404 4.63952 13.0585 3.69441 12.2695L4.87341 11.0904C5.49849 11.5766 6.24326 11.8849 7.02905 11.9828V13.6508ZM7.02905 3.21383C6.24271 3.31337 5.4979 3.62361 4.87341 4.11173L3.69441 2.92927C4.63952 2.14026 5.80285 1.65835 7.02905 1.54789V3.21383ZM13.6341 7.04577H11.9661C11.8676 6.25978 11.5585 5.51499 11.0717 4.89013L12.2507 3.71113C13.0404 4.65599 13.5231 5.81934 13.6341 7.04577ZM8.13416 1.54582C9.36036 1.65628 10.5237 2.13819 11.4688 2.9272L10.2898 4.10827C9.66531 3.62015 8.9205 3.30991 8.13416 3.21038V1.54582ZM8.13416 13.6508V11.9828C8.92016 11.8843 9.66494 11.5753 10.2898 11.0884L11.4688 12.2674C10.5239 13.0571 9.36059 13.5398 8.13416 13.6508ZM12.2507 11.4855L11.0717 10.3065C11.5585 9.68166 11.8676 8.93688 11.9661 8.15088H13.6341C13.5231 9.37731 13.0404 10.5407 12.2507 11.4855Z" fill="#96EA63"/>
</svg>
