<svg width="6" height="9" viewBox="0 0 6 9" fill="none" xmlns="http://www.w3.org/2000/svg">
<path d="M4.89974 4.84591L1.0737 8.67195C0.965888 8.77976 0.81966 8.84033 0.667187 8.84033C0.514713 8.84033 0.368485 8.77976 0.26067 8.67195C0.152855 8.56413 0.0922852 8.41791 0.0922852 8.26543C0.0922852 8.11296 0.152855 7.96673 0.26067 7.85892L3.68067 4.43987L0.261627 1.01987C0.208242 0.966486 0.165895 0.903109 0.137003 0.833359C0.108112 0.763609 0.0932415 0.688851 0.0932415 0.613354C0.0932415 0.537857 0.108112 0.463099 0.137003 0.393348C0.165895 0.323598 0.208242 0.260222 0.261627 0.206837C0.315011 0.153452 0.378388 0.111105 0.448138 0.082214C0.517888 0.0533225 0.592646 0.0384521 0.668143 0.0384521C0.74364 0.0384521 0.818398 0.0533225 0.888148 0.082214C0.957899 0.111105 1.02128 0.153452 1.07466 0.206837L4.9007 4.03288C4.95414 4.08626 4.99652 4.14966 5.0254 4.21946C5.05429 4.28925 5.06911 4.36406 5.06902 4.43959C5.06893 4.51513 5.05393 4.5899 5.02488 4.65962C4.99584 4.72935 4.95331 4.79266 4.89974 4.84591Z" fill="#1E2F14"/>
</svg>
