<svg width="86" height="14" viewBox="0 0 86 14" fill="none" xmlns="http://www.w3.org/2000/svg">
<path d="M8.61619 10.663H9.17932L9.57896 9.64571L13.8297 0.29054H17.0994L11.1412 13.0063H6.65433L0.732422 0.29054H4.00219L8.21656 9.64571L8.61619 10.663Z" fill="white"/>
<path d="M18.5275 13.0063V0.29054H31.8064V2.6702H21.216V5.48584H31.2251V7.8655H21.216V10.6266H31.8791V13.0063H18.5275Z" fill="white"/>
<path d="M38.872 12.9881V2.87002H33.0046V0.272375H47.5551V2.87002H41.6877V12.9881H38.872Z" fill="white"/>
<path d="M51.9618 2.7792V6.13979H58.6103C60.0817 6.13979 60.7175 5.74015 60.7175 4.37775C60.7175 3.1425 60.227 2.7792 58.6103 2.7792H51.9618ZM63.9872 13.1153H60.5176L58.7556 9.46405C58.4105 8.71927 57.8655 8.44679 56.8119 8.44679H51.9618V13.0063H49.1461V0.29054H58.9917C62.316 0.29054 63.8056 1.38046 63.8056 3.77829C63.8056 5.93997 62.6067 7.15705 60.2997 7.32054V7.53852C61.1716 7.75651 61.7166 8.26514 62.2433 9.39139L63.9872 13.1153Z" fill="white"/>
<path d="M65.502 13.0063V0.29054H68.3177V13.0063H65.502Z" fill="white"/>
<path d="M82.5643 7.88367H85.5434C85.5798 11.2261 82.8549 13.188 78.0593 13.188C72.755 13.188 69.9575 10.7901 69.9575 6.68475C69.9575 2.45222 72.9003 0.108887 78.0775 0.108887C82.8549 0.108887 85.5979 2.10708 85.5979 5.48584H82.528C82.419 3.45132 81.2927 2.74287 78.0956 2.74287C74.2627 2.74287 73.0456 3.65113 73.0456 6.68475C73.0456 9.2824 74.0084 10.554 78.023 10.554C81.2201 10.554 82.5643 9.7002 82.5643 7.88367Z" fill="white"/>
</svg>
