<svg width="13" height="13" viewBox="0 0 13 13" fill="none" xmlns="http://www.w3.org/2000/svg">
<path d="M10.1318 3.53503V8.66553C10.1318 8.7702 10.0902 8.87058 10.0162 8.9446C9.94222 9.01861 9.84183 9.06019 9.73717 9.06019C9.6325 9.06019 9.53211 9.01861 9.4581 8.9446C9.38409 8.87058 9.34251 8.7702 9.34251 8.66553V4.48763L3.70192 10.1287C3.62787 10.2028 3.52743 10.2444 3.42271 10.2444C3.31798 10.2444 3.21754 10.2028 3.14349 10.1287C3.06943 10.0547 3.02783 9.95422 3.02783 9.84949C3.02783 9.74477 3.06943 9.64433 3.14349 9.57028L8.78457 3.92969H4.60667C4.502 3.92969 4.40162 3.88811 4.3276 3.8141C4.25359 3.74008 4.21201 3.6397 4.21201 3.53503C4.21201 3.43037 4.25359 3.32998 4.3276 3.25597C4.40162 3.18196 4.502 3.14038 4.60667 3.14038H9.73717C9.84183 3.14038 9.94222 3.18196 10.0162 3.25597C10.0902 3.32998 10.1318 3.43037 10.1318 3.53503Z" fill="black"></path>
</svg>
