<svg width="11" height="11" viewBox="0 0 11 11" fill="none" xmlns="http://www.w3.org/2000/svg">
<path d="M8.30754 2.79917V6.94224C8.30754 7.02676 8.27397 7.10783 8.2142 7.16759C8.15443 7.22736 8.07337 7.26094 7.98884 7.26094C7.90432 7.26094 7.82326 7.22736 7.76349 7.16759C7.70372 7.10783 7.67015 7.02676 7.67015 6.94224V3.56842L3.11515 8.12381C3.05535 8.18361 2.97425 8.21721 2.88968 8.21721C2.80511 8.21721 2.724 8.18361 2.6642 8.12381C2.6044 8.06401 2.5708 7.98291 2.5708 7.89833C2.5708 7.81376 2.6044 7.73266 2.6642 7.67286L7.21959 3.11786H3.84577C3.76125 3.11786 3.68018 3.08429 3.62042 3.02452C3.56065 2.96475 3.52707 2.88369 3.52707 2.79917C3.52707 2.71464 3.56065 2.63358 3.62042 2.57381C3.68018 2.51405 3.76125 2.48047 3.84577 2.48047H7.98884C8.07337 2.48047 8.15443 2.51405 8.2142 2.57381C8.27397 2.63358 8.30754 2.71464 8.30754 2.79917Z" fill="black"></path>
</svg>
