<svg width="15" height="15" viewBox="0 0 15 15" fill="none" xmlns="http://www.w3.org/2000/svg">
<path d="M12.5325 2.1814H2.18171C1.93214 2.1814 1.6928 2.28054 1.51633 2.457C1.33986 2.63347 1.24072 2.87282 1.24072 3.12238V11.1207C1.24072 11.3703 1.33986 11.6096 1.51633 11.7861C1.6928 11.9626 1.93214 12.0617 2.18171 12.0617H3.12269V13.0027C3.12269 13.1275 3.17226 13.2472 3.26049 13.3354C3.34873 13.4236 3.4684 13.4732 3.59318 13.4732C3.71796 13.4732 3.83763 13.4236 3.92587 13.3354C4.0141 13.2472 4.06367 13.1275 4.06367 13.0027V12.0617H10.6506V13.0027C10.6506 13.1275 10.7001 13.2472 10.7884 13.3354C10.8766 13.4236 10.9963 13.4732 11.121 13.4732C11.2458 13.4732 11.3655 13.4236 11.4537 13.3354C11.542 13.2472 11.5915 13.1275 11.5915 13.0027V12.0617H12.5325C12.7821 12.0617 13.0214 11.9626 13.1979 11.7861C13.3744 11.6096 13.4735 11.3703 13.4735 11.1207V3.12238C13.4735 2.87282 13.3744 2.63347 13.1979 2.457C13.0214 2.28054 12.7821 2.1814 12.5325 2.1814ZM12.5325 11.1207H2.18171V3.12238H12.5325V6.88631H11.5515C11.4336 6.18838 11.0577 5.56024 10.4985 5.12637C9.9392 4.69249 9.23735 4.48455 8.532 4.54374C7.82666 4.60293 7.16929 4.92495 6.69016 5.44596C6.21104 5.96698 5.94513 6.64898 5.94513 7.3568C5.94513 8.06463 6.21104 8.74663 6.69016 9.26764C7.16929 9.78866 7.82666 10.1107 8.532 10.1699C9.23735 10.2291 9.9392 10.0211 10.4985 9.58723C11.0577 9.15336 11.4336 8.52522 11.5515 7.82729H12.5325V11.1207ZM9.58253 6.88631C9.47896 6.70692 9.31909 6.56672 9.12772 6.48745C8.93634 6.40818 8.72416 6.39427 8.52408 6.44788C8.32399 6.50149 8.14719 6.61963 8.02109 6.78397C7.89499 6.94831 7.82664 7.14966 7.82664 7.3568C7.82664 7.56394 7.89499 7.7653 8.02109 7.92964C8.14719 8.09397 8.32399 8.21211 8.52408 8.26572C8.72416 8.31933 8.93634 8.30543 9.12772 8.22616C9.31909 8.14689 9.47896 8.00668 9.58253 7.82729H10.5917C10.4772 8.27081 10.2049 8.65733 9.82578 8.91441C9.44666 9.17149 8.98681 9.28149 8.5324 9.22377C8.07799 9.16605 7.66023 8.94459 7.35743 8.60089C7.05463 8.25719 6.88757 7.81486 6.88757 7.3568C6.88757 6.89874 7.05463 6.45641 7.35743 6.11271C7.66023 5.76902 8.07799 5.54755 8.5324 5.48984C8.98681 5.43212 9.44666 5.54211 9.82578 5.79919C10.2049 6.05627 10.4772 6.4428 10.5917 6.88631H9.58253Z" fill="#E8E9EA"></path>
</svg>
