<svg width="15" height="16" viewBox="0 0 15 16" fill="none" xmlns="http://www.w3.org/2000/svg">
<path d="M12.6883 2.58911H2.33747C2.0879 2.58911 1.84856 2.68825 1.67209 2.86472C1.49562 3.04119 1.39648 3.28053 1.39648 3.53009V11.5284C1.39648 11.778 1.49562 12.0174 1.67209 12.1938C1.84856 12.3703 2.0879 12.4694 2.33747 12.4694H3.27845V13.4104C3.27845 13.5352 3.32802 13.6549 3.41625 13.7431C3.50449 13.8313 3.62416 13.8809 3.74894 13.8809C3.87372 13.8809 3.99339 13.8313 4.08163 13.7431C4.16986 13.6549 4.21943 13.5352 4.21943 13.4104V12.4694H10.8063V13.4104C10.8063 13.5352 10.8559 13.6549 10.9441 13.7431C11.0324 13.8313 11.152 13.8809 11.2768 13.8809C11.4016 13.8809 11.5213 13.8313 11.6095 13.7431C11.6977 13.6549 11.7473 13.5352 11.7473 13.4104V12.4694H12.6883C12.9378 12.4694 13.1772 12.3703 13.3537 12.1938C13.5301 12.0174 13.6293 11.778 13.6293 11.5284V3.53009C13.6293 3.28053 13.5301 3.04119 13.3537 2.86472C13.1772 2.68825 12.9378 2.58911 12.6883 2.58911ZM12.6883 11.5284H2.33747V3.53009H12.6883V7.29403H11.7073C11.5893 6.5961 11.2135 5.96796 10.6542 5.53408C10.095 5.10021 9.39311 4.89226 8.68777 4.95146C7.98242 5.01065 7.32505 5.33266 6.84592 5.85368C6.3668 6.37469 6.10089 7.05669 6.10089 7.76452C6.10089 8.47234 6.3668 9.15434 6.84592 9.67536C7.32505 10.1964 7.98242 10.5184 8.68777 10.5776C9.39311 10.6368 10.095 10.4288 10.6542 9.99495C11.2135 9.56107 11.5893 8.93293 11.7073 8.23501H12.6883V11.5284ZM9.7383 7.29403C9.63473 7.11463 9.47485 6.97443 9.28348 6.89516C9.09211 6.81589 8.87992 6.80198 8.67984 6.8556C8.47975 6.90921 8.30295 7.02735 8.17685 7.19168C8.05075 7.35602 7.9824 7.55737 7.9824 7.76452C7.9824 7.97166 8.05075 8.17301 8.17685 8.33735C8.30295 8.50169 8.47975 8.61982 8.67984 8.67344C8.87992 8.72705 9.09211 8.71314 9.28348 8.63387C9.47485 8.5546 9.63473 8.4144 9.7383 8.23501H10.7475C10.633 8.67852 10.3606 9.06504 9.98154 9.32213C9.60243 9.57921 9.14257 9.6892 8.68816 9.63148C8.23375 9.57377 7.81599 9.3523 7.51319 9.00861C7.21039 8.66491 7.04333 8.22257 7.04333 7.76452C7.04333 7.30646 7.21039 6.86412 7.51319 6.52043C7.81599 6.17673 8.23375 5.95527 8.68816 5.89755C9.14257 5.83983 9.60243 5.94982 9.98154 6.20691C10.3606 6.46399 10.633 6.85051 10.7475 7.29403H9.7383Z" fill="#E8E9EA"></path>
</svg>
