<svg width="15" height="15" viewBox="0 0 15 15" fill="none" xmlns="http://www.w3.org/2000/svg">
<path d="M12.8475 3.15674H2.49665C2.24708 3.15674 2.00774 3.25588 1.83127 3.43235C1.6548 3.60881 1.55566 3.84816 1.55566 4.09772V12.5666C1.55566 12.8161 1.6548 13.0555 1.83127 13.2319C2.00774 13.4084 2.24708 13.5075 2.49665 13.5075H12.8475C13.097 13.5075 13.3364 13.4084 13.5128 13.2319C13.6893 13.0555 13.7884 12.8161 13.7884 12.5666V4.09772C13.7884 3.84816 13.6893 3.60881 13.5128 3.43235C13.3364 3.25588 13.097 3.15674 12.8475 3.15674ZM12.8475 12.5666H2.49665V4.09772H12.8475V12.5666ZM4.8491 5.74444C4.8491 5.88402 4.80771 6.02047 4.73017 6.13653C4.65262 6.25259 4.5424 6.34304 4.41344 6.39646C4.28448 6.44987 4.14258 6.46385 4.00568 6.43662C3.86878 6.40939 3.74303 6.34217 3.64434 6.24347C3.54564 6.14477 3.47842 6.01902 3.45119 5.88212C3.42396 5.74522 3.43794 5.60332 3.49135 5.47437C3.54477 5.34541 3.63522 5.23519 3.75128 5.15764C3.86734 5.08009 4.00379 5.0387 4.14337 5.0387C4.33054 5.0387 4.51005 5.11306 4.6424 5.24541C4.77475 5.37776 4.8491 5.55727 4.8491 5.74444ZM7.20156 5.74444C7.20156 5.88402 7.16017 6.02047 7.08262 6.13653C7.00508 6.25259 6.89485 6.34304 6.7659 6.39646C6.63694 6.44987 6.49504 6.46385 6.35814 6.43662C6.22124 6.40939 6.09549 6.34217 5.99679 6.24347C5.89809 6.14477 5.83088 6.01902 5.80365 5.88212C5.77642 5.74522 5.79039 5.60332 5.84381 5.47437C5.89722 5.34541 5.98768 5.23519 6.10374 5.15764C6.2198 5.08009 6.35624 5.0387 6.49582 5.0387C6.683 5.0387 6.8625 5.11306 6.99486 5.24541C7.12721 5.37776 7.20156 5.55727 7.20156 5.74444Z" fill="#E8E9EA"></path>
</svg>
