<svg width="15" height="15" viewBox="0 0 15 15" fill="none" xmlns="http://www.w3.org/2000/svg">
<path d="M13.0272 3.02148H2.40921C2.29188 3.02148 2.17935 3.0681 2.09638 3.15107C2.01341 3.23403 1.9668 3.34656 1.9668 3.4639V10.985C1.9668 11.2196 2.06002 11.4447 2.22596 11.6106C2.3919 11.7766 2.61696 11.8698 2.85163 11.8698H12.5848C12.8194 11.8698 13.0445 11.7766 13.2104 11.6106C13.3764 11.4447 13.4696 11.2196 13.4696 10.985V3.4639C13.4696 3.34656 13.423 3.23403 13.34 3.15107C13.2571 3.0681 13.1445 3.02148 13.0272 3.02148ZM11.8896 3.90632L7.7182 7.73045L3.54677 3.90632H11.8896ZM12.5848 10.985H2.85163V4.46984L7.41902 8.65675C7.50064 8.73168 7.6074 8.77325 7.7182 8.77325C7.829 8.77325 7.93576 8.73168 8.01739 8.65675L12.5848 4.46984V10.985Z" fill="#96EA63"></path>
</svg>
