<svg width="11" height="13" viewBox="0 0 11 13" fill="none" xmlns="http://www.w3.org/2000/svg">
<g clip-path="url('#clip0_1083_790')">
<path d="M10.1767 1.07959H0.905258C0.480428 1.07959 0.135254 1.42959 0.135254 1.85925V11.1138C0.135254 11.5434 0.480428 11.8934 0.905258 11.8934H10.1767C10.6015 11.8934 10.9491 11.5434 10.9491 11.1138V1.85925C10.9491 1.42959 10.6015 1.07959 10.1767 1.07959ZM3.40355 10.3486H1.80078V5.18789H3.40596V10.3486H3.40355ZM2.60216 4.48306C2.08802 4.48306 1.67285 4.06547 1.67285 3.55374C1.67285 3.04202 2.08802 2.62443 2.60216 2.62443C3.11389 2.62443 3.53148 3.04202 3.53148 3.55374C3.53148 4.06788 3.11631 4.48306 2.60216 4.48306ZM9.41152 10.3486H7.80875V7.83825C7.80875 7.23963 7.79668 6.46962 6.97598 6.46962C6.14081 6.46962 6.01288 7.12135 6.01288 7.7948V10.3486H4.41011V5.18789H5.9477V5.89272H5.96943C6.18426 5.4872 6.70805 5.05996 7.48771 5.05996C9.10979 5.05996 9.41152 6.12927 9.41152 7.51963V10.3486Z" fill="#7A7B85"></path>
</g>
<defs>
<clipPath id="clip0_1083_790">
<rect width="10.8139" height="12.3587" fill="white" transform="translate(0.135254 0.307373)"></rect>
</clipPath>
</defs>
</svg>
