<svg width="18" height="18" viewBox="0 0 18 18" fill="none" xmlns="http://www.w3.org/2000/svg">
<g clip-path="url('#clip0_1083_31')">
<path d="M17.2399 5.32257C17.2399 3.84296 16.1516 2.65271 14.8068 2.65271C12.9852 2.56755 11.1275 2.53467 9.22903 2.53467H8.63719C6.7433 2.53467 4.88229 2.56755 3.06074 2.65304C1.71923 2.65304 0.630905 3.84987 0.630905 5.32947C0.548705 6.49967 0.513852 7.6702 0.515825 8.84073C0.512537 10.0113 0.549801 11.1829 0.627617 12.3556C0.627617 13.8352 1.71595 15.0353 3.05745 15.0353C4.97107 15.1241 6.93401 15.1636 8.92982 15.1603C10.9289 15.1668 12.8864 15.1252 14.8022 15.0353C16.147 15.0353 17.2353 13.8352 17.2353 12.3556C17.3142 11.1818 17.3504 10.0113 17.3471 8.83744C17.3546 7.66691 17.3188 6.49529 17.2399 5.32257ZM7.32199 12.0663V5.60533L12.0896 8.83415L7.32199 12.0663Z" fill="#7A7B85"></path>
</g>
<defs>
<clipPath id="clip0_1083_31">
<rect width="16.8346" height="16.8346" fill="white" transform="translate(0.516113 0.430664)"></rect>
</clipPath>
</defs>
</svg>
