<svg width="91" height="19" viewBox="0 0 91 19" fill="none" xmlns="http://www.w3.org/2000/svg">
<g clip-path="url('#clip0_1083_357')">
<path fill-rule="evenodd" clip-rule="evenodd" d="M11.86 5.69547C11.126 5.20503 10.2631 4.94326 9.38029 4.94326V0.479919C11.1458 0.479919 12.8717 1.00346 14.3397 1.98434C15.8077 2.96521 16.9518 4.35937 17.6275 5.99049C18.3031 7.62162 18.4799 9.41651 18.1355 11.1481C17.791 12.8797 16.9408 14.4703 15.6924 15.7187C14.444 16.9671 12.8534 17.8173 11.1218 18.1618C9.3902 18.5062 7.59532 18.3294 5.96419 17.6538C4.33306 16.9781 2.9389 15.834 1.95803 14.366C0.977154 12.898 0.453613 11.1721 0.453613 9.4066H4.91695C4.91695 10.2894 5.17873 11.1523 5.66916 11.8863C6.15959 12.6203 6.85668 13.1924 7.67226 13.5302C8.48781 13.868 9.38525 13.9564 10.251 13.7842C11.1168 13.612 11.9121 13.1869 12.5364 12.5627C13.1606 11.9384 13.5857 11.1432 13.7578 10.2774C13.9301 9.41155 13.8417 8.51411 13.5039 7.69857C13.1661 6.88298 12.594 6.1859 11.86 5.69547Z" fill="#7A7B85"></path>
<path fill-rule="evenodd" clip-rule="evenodd" d="M4.91695 0.479922C4.91695 1.06606 4.80151 1.64645 4.5772 2.18797C4.3529 2.72949 4.02413 3.22152 3.60967 3.63598C3.19521 4.05044 2.70318 4.37921 2.16166 4.60351C1.62014 4.82781 1.03975 4.94326 0.453613 4.94326L0.453613 9.4066C1.62588 9.4066 2.78667 9.17571 3.86971 8.7271C4.95275 8.27849 5.93682 7.62095 6.76571 6.79202C7.59464 5.96314 8.25218 4.97906 8.70079 3.89601C9.1494 2.81298 9.38029 1.65219 9.38029 0.479919L4.91695 0.479922Z" fill="#7A7B85"></path>
<path d="M56.5216 6.93054H54.356V13.8096H56.5216V6.93054Z" fill="#7A7B85"></path>
<path d="M54.5968 5.64248C54.8231 5.86895 55.1061 5.98218 55.4457 5.98218C55.7854 5.98218 56.0639 5.86895 56.2808 5.64248C56.4982 5.40659 56.6067 5.12348 56.6067 4.79322C56.6067 4.45352 56.4982 4.17042 56.2808 3.94396C56.0639 3.71748 55.7854 3.60425 55.4457 3.60425C55.1061 3.60425 54.8231 3.71748 54.5968 3.94396C54.3795 4.17042 54.271 4.45352 54.271 4.79322C54.271 5.12348 54.3795 5.40659 54.5968 5.64248Z" fill="#7A7B85"></path>
<path d="M23.2861 13.8096V3.81659H25.5084V11.8563H29.9387V13.8096H23.2861Z" fill="#7A7B85"></path>
<path fill-rule="evenodd" clip-rule="evenodd" d="M33.9408 13.9653C33.2331 13.9653 32.5915 13.8096 32.0158 13.4982C31.4497 13.1774 31.0015 12.7433 30.6712 12.196C30.3409 11.6487 30.1758 11.0353 30.1758 10.3559C30.1758 9.6765 30.3409 9.06788 30.6712 8.53001C31.0015 7.99213 31.4497 7.56749 32.0158 7.25612C32.582 6.93525 33.2237 6.77484 33.9408 6.77484C34.658 6.77484 35.2997 6.93057 35.8658 7.24193C36.432 7.55334 36.8803 7.98271 37.2105 8.53001C37.5408 9.06788 37.7059 9.6765 37.7059 10.3559C37.7059 11.0353 37.5408 11.6487 37.2105 12.196C36.8803 12.7433 36.432 13.1774 35.8658 13.4982C35.2997 13.8096 34.658 13.9653 33.9408 13.9653ZM33.9408 11.9978C34.2522 11.9978 34.5259 11.9318 34.7618 11.7997C34.9977 11.6581 35.177 11.4647 35.2997 11.2193C35.4318 10.9646 35.4978 10.6767 35.4978 10.3559C35.4978 10.0351 35.4318 9.75671 35.2997 9.52082C35.1675 9.27547 34.9836 9.08676 34.7476 8.95465C34.5212 8.81307 34.2522 8.74233 33.9408 8.74233C33.6389 8.74233 33.37 8.81307 33.134 8.95465C32.8982 9.08676 32.7141 9.27547 32.582 9.52082C32.4499 9.76617 32.3839 10.0492 32.3839 10.3701C32.3839 10.6815 32.4499 10.9646 32.582 11.2193C32.7141 11.4647 32.8982 11.6581 33.134 11.7997C33.37 11.9318 33.6389 11.9978 33.9408 11.9978Z" fill="#7A7B85"></path>
<path fill-rule="evenodd" clip-rule="evenodd" d="M39.4213 16.4989C39.9969 16.7631 40.6622 16.8952 41.4171 16.8952C42.1531 16.8952 42.8089 16.7489 43.3845 16.4564C43.9602 16.1639 44.4131 15.7582 44.7434 15.2392C45.0736 14.7202 45.239 14.1068 45.239 13.3991V6.93052H43.1156V7.3927C42.9577 7.25978 42.7783 7.14819 42.5777 7.0579C42.2097 6.87861 41.7898 6.78894 41.318 6.78894C40.6858 6.78894 40.1243 6.93994 39.6336 7.24188C39.1429 7.53441 38.756 7.94017 38.4729 8.45917C38.1898 8.96875 38.0483 9.54434 38.0483 10.186C38.0483 10.8183 38.1898 11.3939 38.4729 11.9129C38.756 12.4319 39.1429 12.8423 39.6336 13.1443C40.1243 13.4462 40.6858 13.5972 41.318 13.5972C41.7804 13.5972 42.2003 13.5076 42.5777 13.3283C42.7606 13.2415 42.9257 13.1391 43.0731 13.0212V13.4557C43.0731 13.9369 42.9174 14.3097 42.606 14.5739C42.3041 14.8381 41.8842 14.9702 41.3463 14.9702C40.9122 14.9702 40.5395 14.8947 40.2281 14.7437C39.9262 14.5928 39.6525 14.371 39.4071 14.0785L38.0766 15.409C38.4069 15.8808 38.8551 16.2441 39.4213 16.4989ZM42.507 11.4741C42.2899 11.6062 42.0304 11.6722 41.7285 11.6722C41.4265 11.6722 41.1623 11.6062 40.9358 11.4741C40.7188 11.3419 40.5489 11.1627 40.4263 10.9362C40.3036 10.7003 40.2422 10.4502 40.2422 10.186C40.2422 9.90292 40.3036 9.64816 40.4263 9.42169C40.5489 9.19522 40.7235 9.01592 40.95 8.88381C41.1764 8.75169 41.4359 8.68564 41.7285 8.68564C42.0304 8.68564 42.2899 8.75169 42.507 8.88381C42.7334 9.01592 42.9033 9.19522 43.0165 9.42169C43.1392 9.64816 43.2005 9.90292 43.2005 10.186C43.2005 10.4691 43.1392 10.7239 43.0165 10.9503C42.9033 11.1674 42.7334 11.3419 42.507 11.4741Z" fill="#7A7B85"></path>
<path fill-rule="evenodd" clip-rule="evenodd" d="M49.796 13.9653C49.0882 13.9653 48.4463 13.8096 47.871 13.4982C47.3046 13.1774 46.8565 12.7433 46.5262 12.196C46.1959 11.6487 46.0308 11.0353 46.0308 10.3559C46.0308 9.6765 46.1959 9.06788 46.5262 8.53001C46.8565 7.99213 47.3046 7.56749 47.871 7.25612C48.4369 6.93525 49.0788 6.77484 49.796 6.77484C50.5129 6.77484 51.1547 6.93057 51.7206 7.24193C52.287 7.55334 52.7351 7.98271 53.0654 8.53001C53.3957 9.06788 53.5609 9.6765 53.5609 10.3559C53.5609 11.0353 53.3957 11.6487 53.0654 12.196C52.7351 12.7433 52.287 13.1774 51.7206 13.4982C51.1547 13.8096 50.5129 13.9653 49.796 13.9653ZM49.796 11.9978C50.1071 11.9978 50.3807 11.9318 50.6168 11.7997C50.8525 11.6581 51.0319 11.4647 51.1547 11.2193C51.2868 10.9646 51.3529 10.6767 51.3529 10.3559C51.3529 10.0351 51.2868 9.75671 51.1547 9.52082C51.0226 9.27547 50.8387 9.08676 50.6026 8.95465C50.3763 8.81307 50.1071 8.74233 49.796 8.74233C49.4939 8.74233 49.2247 8.81307 48.9891 8.95465C48.753 9.08676 48.5691 9.27547 48.4369 9.52082C48.3048 9.76617 48.2388 10.0492 48.2388 10.3701C48.2388 10.6815 48.3048 10.9646 48.4369 11.2193C48.5691 11.4647 48.753 11.6581 48.9891 11.7997C49.2247 11.9318 49.4939 11.9978 49.796 11.9978Z" fill="#7A7B85"></path>
<path fill-rule="evenodd" clip-rule="evenodd" d="M61.7272 13.9511C61.2652 13.9511 60.8403 13.8615 60.4533 13.6822C60.2498 13.5878 60.0659 13.4752 59.9017 13.3442V16.7112H57.7642V6.93052H59.9298V7.40528C60.0869 7.27678 60.2614 7.16569 60.4533 7.07205C60.8403 6.8833 61.2652 6.78894 61.7272 6.78894C62.3784 6.78894 62.9541 6.94467 63.454 7.25607C63.9637 7.56744 64.3601 7.99208 64.6431 8.52996C64.9359 9.06783 65.0818 9.68119 65.0818 10.37C65.0818 11.0589 64.9359 11.6722 64.6431 12.2101C64.3601 12.748 63.9637 13.1726 63.454 13.484C62.9541 13.7954 62.3784 13.9511 61.7272 13.9511ZM61.3313 11.9978C61.6424 11.9978 61.9115 11.927 62.1378 11.7855C62.3739 11.6439 62.5578 11.4505 62.6899 11.2051C62.822 10.9598 62.8881 10.6814 62.8881 10.37C62.8881 10.0492 62.822 9.76612 62.6899 9.52077C62.5578 9.27542 62.3739 9.08671 62.1378 8.9546C61.9115 8.81302 61.6473 8.74228 61.3451 8.74228C61.0434 8.74228 60.7742 8.81302 60.5386 8.9546C60.3118 9.08671 60.1329 9.27542 60.0007 9.52077C59.8686 9.76612 59.8026 10.0492 59.8026 10.37C59.8026 10.6814 59.8637 10.9598 59.9865 11.2051C60.1186 11.4505 60.3025 11.6439 60.5386 11.7855C60.7742 11.927 61.0385 11.9978 61.3313 11.9978Z" fill="#7A7B85"></path>
<path d="M67.201 13.8237C67.5974 13.9275 67.9982 13.9794 68.4039 13.9794C69.2627 13.9794 69.942 13.7813 70.4423 13.3849C70.9516 12.9886 71.2064 12.4555 71.2064 11.7855C71.2064 11.3514 71.1265 11.0023 70.9659 10.7381C70.8056 10.4644 70.5981 10.2474 70.3432 10.087C70.0884 9.92655 69.8192 9.79912 69.5363 9.70477C69.2533 9.61041 68.9841 9.53021 68.7297 9.46415C68.4749 9.39809 68.2673 9.32262 68.1066 9.23768C67.9464 9.15274 67.8661 9.03951 67.8661 8.89797C67.8661 8.76586 67.9277 8.66677 68.05 8.60072C68.1727 8.52524 68.3566 8.48753 68.6021 8.48753C68.8569 8.48753 69.1163 8.53939 69.3805 8.64321C69.6541 8.74698 69.8996 8.92632 70.1165 9.18108L71.3479 7.9355C71.0368 7.53915 70.6311 7.2419 70.1308 7.04377C69.6403 6.83618 69.1024 6.73236 68.5173 6.73236C67.9607 6.73236 67.4746 6.82672 67.0596 7.01543C66.644 7.20418 66.3231 7.46368 66.0968 7.79392C65.8705 8.11475 65.7571 8.49694 65.7571 8.94046C65.7571 9.35564 65.8375 9.70008 65.9977 9.97373C66.158 10.2379 66.3659 10.4455 66.6204 10.5965C66.8752 10.7475 67.1444 10.8655 67.4273 10.9504C67.7103 11.0353 67.9794 11.1155 68.2343 11.191C68.4887 11.2571 68.6967 11.3373 68.8569 11.4316C69.027 11.5166 69.1118 11.644 69.1118 11.8138C69.1118 11.9459 69.0408 12.0497 68.8993 12.1252C68.7672 12.2007 68.574 12.2384 68.3191 12.2384C67.9509 12.2384 67.6112 12.1724 67.3001 12.0403C66.9886 11.8987 66.7194 11.7053 66.4932 11.4599L65.2617 12.7055C65.4978 12.9603 65.7808 13.1868 66.1111 13.3849C66.4508 13.5736 66.8141 13.7199 67.201 13.8237Z" fill="#7A7B85"></path>
<path d="M75.1557 13.9653C74.5237 13.9653 73.9622 13.8379 73.4717 13.5831C72.9901 13.3189 72.6129 12.9603 72.3393 12.5074C72.0653 12.045 71.9287 11.5166 71.9287 10.9221V6.93054H74.0943V10.8938C74.0943 11.1297 74.1318 11.3326 74.2077 11.5024C74.2925 11.6723 74.4152 11.8044 74.5755 11.8987C74.7361 11.9931 74.9294 12.0403 75.1557 12.0403C75.4766 12.0403 75.7315 11.9412 75.9203 11.743C76.1091 11.5354 76.2033 11.2524 76.2033 10.8938V6.93054H78.3689V10.9079C78.3689 11.5118 78.2323 12.045 77.9582 12.5074C77.6846 12.9603 77.3075 13.3189 76.8259 13.5831C76.3447 13.8379 75.7882 13.9653 75.1557 13.9653Z" fill="#7A7B85"></path>
<path d="M81.6109 6.93052H79.4453V13.8096H81.6109V9.78969C81.6109 9.5538 81.6582 9.35563 81.7524 9.19522C81.8564 9.0348 81.9934 8.91211 82.163 8.82721C82.3331 8.73281 82.5264 8.68564 82.7433 8.68564C83.0548 8.68564 83.3141 8.78472 83.5217 8.9829C83.739 9.17161 83.8475 9.44057 83.8475 9.78969V13.8096H86.0131V9.78969C86.0131 9.5538 86.0604 9.35563 86.1546 9.19522C86.2586 9.0348 86.3952 8.91211 86.5652 8.82721C86.7348 8.73281 86.9285 8.68564 87.1455 8.68564C87.457 8.68564 87.7163 8.78472 87.9239 8.9829C88.1408 9.17161 88.2492 9.44057 88.2492 9.78969V13.8096H90.4153V9.54907C90.4153 8.97348 90.2926 8.48278 90.0471 8.07702C89.811 7.66179 89.4856 7.3457 89.0705 7.12869C88.6648 6.90218 88.1975 6.78894 87.669 6.78894C87.1312 6.78894 86.6451 6.90691 86.2113 7.14284C85.9292 7.29312 85.6828 7.4871 85.4717 7.72472C85.2749 7.47616 85.0356 7.27277 84.7531 7.1145C84.376 6.89749 83.9466 6.78894 83.4654 6.78894C82.9557 6.78894 82.4982 6.89749 82.0925 7.1145C81.9158 7.20479 81.7555 7.31294 81.6109 7.43894V6.93052Z" fill="#7A7B85"></path>
</g>
<defs>
<clipPath id="clip0_1083_357">
<rect width="90.1595" height="17.8534" fill="white" transform="translate(0.453613 0.479919)"></rect>
</clipPath>
</defs>
</svg>
