<svg width="72" height="15" viewBox="0 0 72 15" fill="none" xmlns="http://www.w3.org/2000/svg">
<g clip-path="url('#clip0_1083_408')">
<path d="M17.6895 1.28052H19.4724V11.0057H22.4062V12.6266H17.6895V1.28052Z" fill="#7A7B85"></path>
<path d="M25.7752 12.7887C24.8999 12.7887 24.23 12.5402 23.7653 12.0431C23.3007 11.546 23.0684 10.8437 23.0684 9.93598V3.9712C23.0684 3.06351 23.3007 2.36114 23.7653 1.86407C24.23 1.367 24.8999 1.11847 25.7752 1.11847C26.6505 1.11847 27.3204 1.367 27.7851 1.86407C28.2497 2.36114 28.482 3.06351 28.482 3.9712V9.93598C28.482 10.8437 28.2497 11.546 27.7851 12.0431C27.3204 12.5402 26.6505 12.7887 25.7752 12.7887ZM25.7752 11.1679C26.3911 11.1679 26.6991 10.795 26.6991 10.0494V3.85774C26.6991 3.11214 26.3911 2.73934 25.7752 2.73934C25.1593 2.73934 24.8513 3.11214 24.8513 3.85774V10.0494C24.8513 10.795 25.1593 11.1679 25.7752 11.1679Z" fill="#7A7B85"></path>
<path d="M32.2163 12.7887C31.3519 12.7887 30.6927 12.5456 30.2389 12.0593C29.785 11.5623 29.5581 10.8545 29.5581 9.93598V3.9712C29.5581 3.05271 29.785 2.35033 30.2389 1.86407C30.6927 1.367 31.3519 1.11847 32.2163 1.11847C33.0808 1.11847 33.7399 1.367 34.1938 1.86407C34.6477 2.35033 34.8746 3.05271 34.8746 3.9712V4.94372H33.1889V3.85774C33.1889 3.11214 32.8809 2.73934 32.2649 2.73934C31.649 2.73934 31.3411 3.11214 31.3411 3.85774V10.0657C31.3411 10.8005 31.649 11.1679 32.2649 11.1679C32.8809 11.1679 33.1889 10.8005 33.1889 10.0657V7.84508H32.2974V6.22422H34.8746V9.93598C34.8746 10.8545 34.6477 11.5623 34.1938 12.0593C33.7399 12.5456 33.0808 12.7887 32.2163 12.7887Z" fill="#7A7B85"></path>
<path d="M38.5965 12.7887C37.7212 12.7887 37.0513 12.5402 36.5866 12.0431C36.122 11.546 35.8896 10.8437 35.8896 9.93598V3.9712C35.8896 3.06351 36.122 2.36114 36.5866 1.86407C37.0513 1.367 37.7212 1.11847 38.5965 1.11847C39.4718 1.11847 40.1417 1.367 40.6064 1.86407C41.0711 2.36114 41.3034 3.06351 41.3034 3.9712V9.93598C41.3034 10.8437 41.0711 11.546 40.6064 12.0431C40.1417 12.5402 39.4718 12.7887 38.5965 12.7887ZM38.5965 11.1679C39.2124 11.1679 39.5204 10.795 39.5204 10.0494V3.85774C39.5204 3.11214 39.2124 2.73934 38.5965 2.73934C37.9806 2.73934 37.6726 3.11214 37.6726 3.85774V10.0494C37.6726 10.795 37.9806 11.1679 38.5965 11.1679Z" fill="#7A7B85"></path>
<path d="M42.5122 1.28052H44.2952V12.6266H42.5122V1.28052Z" fill="#7A7B85"></path>
<path d="M45.6309 1.28052H48.2566C49.1426 1.28052 49.8072 1.51824 50.2504 1.9937C50.6936 2.46915 50.915 3.16613 50.915 4.08462V5.20301C50.915 6.12152 50.6936 6.81847 50.2504 7.29395C49.8072 7.76939 49.1426 8.00711 48.2566 8.00711H47.414V12.6266H45.6309V1.28052ZM48.2566 6.38624C48.5485 6.38624 48.7646 6.30519 48.9052 6.14313C49.0565 5.98102 49.1319 5.7055 49.1319 5.31647V3.97116C49.1319 3.58215 49.0565 3.3066 48.9052 3.14452C48.7646 2.98243 48.5485 2.90139 48.2566 2.90139H47.414V6.38624H48.2566Z" fill="#7A7B85"></path>
<path d="M54.2645 12.7887C53.4004 12.7887 52.7465 12.5456 52.3033 12.0593C51.8605 11.5623 51.6387 10.8545 51.6387 9.93598V9.28763H53.3245V10.0657C53.3245 10.8005 53.6324 11.1679 54.2484 11.1679C54.551 11.1679 54.7777 11.0814 54.929 10.9085C55.0911 10.7248 55.1723 10.4331 55.1723 10.0332C55.1723 9.5578 55.0643 9.14177 54.8483 8.78519C54.6322 8.41777 54.2323 7.98014 53.6485 7.47226C52.9138 6.82391 52.4006 6.24042 52.1087 5.72174C51.8172 5.19225 51.6713 4.59793 51.6713 3.93878C51.6713 3.0419 51.898 2.35033 52.3519 1.86407C52.8058 1.367 53.4651 1.11847 54.3296 1.11847C55.183 1.11847 55.8262 1.367 56.2582 1.86407C56.7014 2.35033 56.9228 3.05271 56.9228 3.9712V4.44125H55.237V3.85774C55.237 3.46873 55.1616 3.18778 55.0103 3.01489C54.859 2.83119 54.6376 2.73934 54.3457 2.73934C53.7512 2.73934 53.4544 3.10133 53.4544 3.82532C53.4544 4.23594 53.5624 4.61955 53.7784 4.97614C54.0051 5.33271 54.4104 5.76494 54.9942 6.27282C55.7396 6.92117 56.2529 7.51011 56.5341 8.03959C56.8148 8.56908 56.9554 9.19038 56.9554 9.90357C56.9554 10.8329 56.7229 11.546 56.2582 12.0431C55.8043 12.5402 55.1397 12.7887 54.2645 12.7887Z" fill="#7A7B85"></path>
<path d="M60.571 12.7887C59.7064 12.7887 59.0472 12.5456 58.5933 12.0593C58.1393 11.5622 57.9126 10.8545 57.9126 9.93594V1.28052H59.6957V10.0656C59.6957 10.4546 59.7711 10.7356 59.9224 10.9085C60.0845 11.0814 60.3116 11.1678 60.6031 11.1678C60.895 11.1678 61.1164 11.0814 61.2677 10.9085C61.4297 10.7356 61.5109 10.4546 61.5109 10.0656V1.28052H63.2289V9.93594C63.2289 10.8545 63.0021 11.5622 62.5482 12.0593C62.0943 12.5456 61.4351 12.7887 60.571 12.7887Z" fill="#7A7B85"></path>
<path d="M64.4985 1.28052H67.0435L68.1781 9.40105H68.2102L69.3453 1.28052H71.8898V12.6266H70.204V4.036H70.1719L68.8748 12.6266H67.3836L66.087 4.036H66.0549V12.6266H64.4985V1.28052Z" fill="#7A7B85"></path>
<path d="M0.476562 12.6266C2.67006 12.6266 4.44823 10.8484 4.44823 8.65497C4.44823 6.46147 2.67006 4.68329 0.476562 4.68329V7.46344C1.13461 7.46344 1.66806 7.9969 1.66806 8.65497C1.66806 9.313 1.13461 9.84646 0.476562 9.84646V12.6266Z" fill="#7A7B85"></path>
<path d="M13.7155 6.00721C13.0368 5.79221 12.314 5.67621 11.5641 5.67621C7.63411 5.67621 4.44824 8.86214 4.44824 12.7921C4.44824 13.1866 4.48034 13.5736 4.54205 13.9505H8.96338C8.80556 13.5967 8.71781 13.2047 8.71781 12.7921C8.71781 11.2201 9.99214 9.94575 11.5641 9.94575C12.4233 9.94575 13.1936 10.3264 13.7155 10.9283V6.00721Z" fill="#7A7B85"></path>
<path d="M1.1748 0.711609C1.50408 3.69033 4.02946 6.00718 7.09596 6.00718C10.1624 6.00718 12.6878 3.69033 13.0171 0.711609H8.75659C8.49356 1.37098 7.84915 1.83691 7.09596 1.83691C6.34272 1.83691 5.69835 1.37098 5.43528 0.711609H1.1748Z" fill="#7A7B85"></path>
</g>
<defs>
<clipPath id="clip0_1083_408">
<rect width="71.4135" height="13.39" fill="white" transform="translate(0.476562 0.711609)"></rect>
</clipPath>
</defs>
</svg>
