<svg width="70" height="19" viewBox="0 0 70 19" fill="none" xmlns="http://www.w3.org/2000/svg">
<g clip-path="url('#clip0_1083_421')">
<path d="M23.4269 5.07001H21.8281V12.2842H26.2542V10.8707H23.4269V5.07001Z" fill="#7A7B85"></path>
<path d="M26.4072 9.83699C26.4072 11.3773 27.4406 12.401 29.0004 12.401C30.5505 12.401 31.5839 11.3773 31.5839 9.83699C31.5839 8.29664 30.5505 7.26324 29.0004 7.26324C27.4406 7.26324 26.4072 8.29664 26.4072 9.83699ZM27.9183 9.82721C27.9183 9.09607 28.3473 8.60863 29.0004 8.60863C29.6439 8.60863 30.0728 9.09607 30.0728 9.82721C30.0728 10.5682 29.6439 11.0556 29.0004 11.0556C28.3473 11.0556 27.9183 10.5682 27.9183 9.82721Z" fill="#7A7B85"></path>
<path d="M31.8252 9.75924C31.8252 11.2313 32.7806 12.2257 34.1357 12.2257C34.7889 12.2257 35.3543 11.9917 35.637 11.6115V12.2842C35.637 12.9569 35.2178 13.4053 34.4769 13.4053C33.8139 13.4053 33.3557 13.0934 33.3265 12.5377H31.8057C31.9422 13.8733 32.9756 14.7701 34.3891 14.7701C36.0562 14.7701 37.1091 13.6881 37.1091 11.9722V7.40974H35.754L35.676 7.90691C35.403 7.50722 34.8278 7.24402 34.1649 7.24402C32.8001 7.24402 31.8252 8.26764 31.8252 9.75924ZM33.346 9.72024C33.346 9.01829 33.8139 8.55035 34.4086 8.55035C35.1008 8.55035 35.6078 9.00856 35.6078 9.72024C35.6078 10.4319 35.1105 10.9194 34.4184 10.9194C33.8237 10.9194 33.346 10.4319 33.346 9.72024Z" fill="#7A7B85"></path>
<path d="M37.5469 9.83699C37.5469 11.3773 38.5803 12.401 40.1401 12.401C41.6902 12.401 42.7235 11.3773 42.7235 9.83699C42.7235 8.29664 41.6902 7.26324 40.1401 7.26324C38.5803 7.26324 37.5469 8.29664 37.5469 9.83699ZM39.058 9.82721C39.058 9.09607 39.4869 8.60863 40.1401 8.60863C40.7835 8.60863 41.2125 9.09607 41.2125 9.82721C41.2125 10.5682 40.7835 11.0556 40.1401 11.0556C39.4869 11.0556 39.058 10.5682 39.058 9.82721Z" fill="#7A7B85"></path>
<path d="M44.0181 6.64937C44.486 6.64937 44.8662 6.26913 44.8662 5.79147C44.8662 5.31376 44.486 4.9433 44.0181 4.9433C43.5403 4.9433 43.1602 5.31376 43.1602 5.79147C43.1602 6.26913 43.5403 6.64937 44.0181 6.64937ZM43.2576 12.2842H44.7687V7.40979H43.2576V12.2842Z" fill="#7A7B85"></path>
<path d="M45.6484 14.6239H47.1303V11.7967C47.4128 12.1672 48.0564 12.4207 48.729 12.4207C50.1814 12.4207 51.0589 11.3093 51.0201 9.76895C50.9808 8.19937 50.0743 7.25372 48.7192 7.25372C48.027 7.25372 47.374 7.55594 47.1008 8.00441L47.0227 7.40972H45.6484V14.6239ZM47.1593 9.84692C47.1593 9.11578 47.6467 8.62834 48.3488 8.62834C49.0602 8.62834 49.5088 9.12551 49.5088 9.84692C49.5088 10.5684 49.0602 11.0655 48.3488 11.0655C47.6467 11.0655 47.1593 10.5781 47.1593 9.84692Z" fill="#7A7B85"></path>
<path d="M51.1797 10.7438C51.2185 11.7285 51.9987 12.4109 53.227 12.4109C54.4067 12.4109 55.2257 11.787 55.2257 10.7828C55.2257 10.0614 54.7968 9.58372 53.9969 9.38872L53.1297 9.17425C52.8177 9.09628 52.6227 9.01826 52.6227 8.76479C52.6227 8.51131 52.8271 8.34559 53.1297 8.34559C53.4707 8.34559 53.6948 8.56983 53.6854 8.90128H55.0405C55.0012 7.88738 54.2313 7.25372 53.1587 7.25372C52.0768 7.25372 51.2676 7.89716 51.2676 8.87204C51.2676 9.52521 51.6283 10.0614 52.5932 10.3149L53.4511 10.5391C53.7046 10.6073 53.8117 10.7243 53.8117 10.8901C53.8117 11.1338 53.5877 11.2898 53.2074 11.2898C52.7686 11.2898 52.5348 11.0851 52.5348 10.7438H51.1797Z" fill="#7A7B85"></path>
<path d="M57.5238 12.4109C58.1188 12.4109 58.7133 12.1379 59.0154 11.7382L59.1132 12.2842H60.5267V7.40973H59.0253V9.94446C59.0253 10.6756 58.811 11.0753 58.1188 11.0753C57.5823 11.0753 57.2314 10.8316 57.2314 9.92496V7.40973H55.73V10.4709C55.73 11.631 56.3736 12.4109 57.5238 12.4109Z" fill="#7A7B85"></path>
<path d="M62.9073 12.2842V9.62276C62.9073 8.80382 63.346 8.56985 63.775 8.56985C64.2525 8.56985 64.5645 8.86234 64.5645 9.46676V12.2842H66.0464V9.62276C66.0464 8.79409 66.4753 8.56012 66.9042 8.56012C67.3818 8.56012 67.7036 8.85256 67.7036 9.46676V12.2842H69.1662V9.0963C69.1662 7.98493 68.5811 7.24402 67.3233 7.24402C66.6217 7.24402 66.0464 7.5852 65.7928 8.11165C65.5005 7.5852 64.9935 7.24402 64.1842 7.24402C63.6482 7.24402 63.151 7.48772 62.8586 7.87768L62.8002 7.40974H61.396V12.2842H62.9073Z" fill="#7A7B85"></path>
<path d="M0.404297 9.4066C0.404297 5.19852 0.404297 3.09448 1.71158 1.7872C3.01886 0.479919 5.1229 0.479919 9.33098 0.479919C13.5391 0.479919 15.6431 0.479919 16.9504 1.7872C18.2577 3.09448 18.2577 5.19852 18.2577 9.4066C18.2577 13.6147 18.2577 15.7187 16.9504 17.026C15.6431 18.3333 13.5391 18.3333 9.33098 18.3333C5.1229 18.3333 3.01886 18.3333 1.71158 17.026C0.404297 15.7187 0.404297 13.6147 0.404297 9.4066Z" fill="#7A7B85"></path>
<path d="M11.1165 12.0846C11.363 12.0846 11.5674 12.2864 11.5184 12.528C11.4319 12.9547 11.2217 13.3502 10.9092 13.6626C10.4907 14.0811 9.92309 14.3163 9.3312 14.3163C8.73932 14.3163 8.17172 14.0811 7.75319 13.6626C7.44076 13.3502 7.23053 12.9547 7.14403 12.528C7.09503 12.2864 7.29936 12.0846 7.54587 12.0846H11.1165Z" fill="#07070A"></path>
<path d="M12.0546 8.41414C11.8164 8.47792 11.6706 8.72702 11.7914 8.94193C11.9184 9.16813 12.0942 9.36555 12.308 9.51877C12.6438 9.75935 13.0525 9.87611 13.4647 9.84906C13.8768 9.82206 14.2669 9.65299 14.5684 9.37063C14.8699 9.08828 15.0641 8.7101 15.118 8.30059C15.1719 7.89108 15.0822 7.47554 14.864 7.12477C14.6459 6.77404 14.3129 6.50977 13.9218 6.37698C13.5307 6.2442 13.1056 6.25116 12.7191 6.39667C12.4729 6.48932 12.252 6.63452 12.0707 6.8201C11.8985 6.99645 11.9748 7.27483 12.1883 7.39806L12.4147 7.52879C12.7591 7.72763 12.6912 8.24355 12.3071 8.34648L12.0546 8.41414Z" fill="#07070A"></path>
<path d="M6.6075 8.41414C6.84562 8.47792 6.99144 8.72702 6.87071 8.94193C6.74364 9.16813 6.56787 9.36555 6.35408 9.51877C6.01834 9.75935 5.60955 9.87611 5.1974 9.84906C4.78522 9.82206 4.39517 9.65299 4.09371 9.37063C3.79224 9.08828 3.598 8.7101 3.54409 8.30059C3.49017 7.89108 3.57992 7.47554 3.79804 7.12477C4.01615 6.77404 4.34914 6.50977 4.74027 6.37698C5.13139 6.2442 5.55648 6.25116 5.94305 6.39667C6.1892 6.48932 6.41009 6.63452 6.59139 6.8201C6.76363 6.99645 6.68722 7.27483 6.47374 7.39806L6.24731 7.52879C5.90297 7.72763 5.9709 8.24355 6.35497 8.34648L6.6075 8.41414Z" fill="#07070A"></path>
</g>
<defs>
<clipPath id="clip0_1083_421">
<rect width="69.1818" height="17.8534" fill="white" transform="translate(0.404297 0.479919)"></rect>
</clipPath>
</defs>
</svg>
