<svg width="100" height="20" viewBox="0 0 100 20" fill="none" xmlns="http://www.w3.org/2000/svg">
<g clip-path="url('#clip0_1083_890')">
<path d="M24.2046 1.51672H26.6731V14.9809H30.7347V17.225H24.2046V1.51672Z" fill="#7A7B85"></path>
<path d="M35.3989 17.4494C34.1871 17.4494 33.2596 17.1053 32.6163 16.4171C31.973 15.7289 31.6514 14.7565 31.6514 13.4998V5.24181C31.6514 3.98515 31.973 3.01273 32.6163 2.32456C33.2596 1.63638 34.1871 1.2923 35.3989 1.2923C36.6107 1.2923 37.5382 1.63638 38.1815 2.32456C38.8248 3.01273 39.1464 3.98515 39.1464 5.24181V13.4998C39.1464 14.7565 38.8248 15.7289 38.1815 16.4171C37.5382 17.1053 36.6107 17.4494 35.3989 17.4494ZM35.3989 15.2053C36.2516 15.2053 36.678 14.6892 36.678 13.6569V5.08472C36.678 4.05246 36.2516 3.53633 35.3989 3.53633C34.5461 3.53633 34.1198 4.05246 34.1198 5.08472V13.6569C34.1198 14.6892 34.5461 15.2053 35.3989 15.2053Z" fill="#7A7B85"></path>
<path d="M44.3165 17.4494C43.1197 17.4494 42.2071 17.1128 41.5787 16.4395C40.9504 15.7514 40.6362 14.7715 40.6362 13.4998V5.24181C40.6362 3.97019 40.9504 2.99777 41.5787 2.32456C42.2071 1.63638 43.1197 1.2923 44.3165 1.2923C45.5133 1.2923 46.4258 1.63638 47.0542 2.32456C47.6825 2.99777 47.9967 3.97019 47.9967 5.24181V6.58823H45.6629V5.08472C45.6629 4.05246 45.2365 3.53633 44.3838 3.53633C43.5311 3.53633 43.1047 4.05246 43.1047 5.08472V13.6794C43.1047 14.6967 43.5311 15.2053 44.3838 15.2053C45.2365 15.2053 45.6629 14.6967 45.6629 13.6794V10.6051H44.4287V8.36104H47.9967V13.4998C47.9967 14.7715 47.6825 15.7514 47.0542 16.4395C46.4258 17.1128 45.5133 17.4494 44.3165 17.4494Z" fill="#7A7B85"></path>
<path d="M53.1494 17.4494C51.9376 17.4494 51.0101 17.1053 50.3668 16.4171C49.7235 15.7289 49.4019 14.7565 49.4019 13.4998V5.24181C49.4019 3.98515 49.7235 3.01273 50.3668 2.32456C51.0101 1.63638 51.9376 1.2923 53.1494 1.2923C54.3612 1.2923 55.2887 1.63638 55.932 2.32456C56.5753 3.01273 56.897 3.98515 56.897 5.24181V13.4998C56.897 14.7565 56.5753 15.7289 55.932 16.4171C55.2887 17.1053 54.3612 17.4494 53.1494 17.4494ZM53.1494 15.2053C54.0021 15.2053 54.4285 14.6892 54.4285 13.6569V5.08472C54.4285 4.05246 54.0021 3.53633 53.1494 3.53633C52.2967 3.53633 51.8703 4.05246 51.8703 5.08472V13.6569C51.8703 14.6892 52.2967 15.2053 53.1494 15.2053Z" fill="#7A7B85"></path>
<path d="M58.5713 1.51672H61.0398V17.225H58.5713V1.51672Z" fill="#7A7B85"></path>
<path d="M62.8882 1.51672H66.5235C67.7501 1.51672 68.6702 1.84585 69.2838 2.5041C69.8974 3.16235 70.2039 4.12729 70.2039 5.39891V6.94729C70.2039 8.21894 69.8974 9.18384 69.2838 9.84213C68.6702 10.5004 67.7501 10.8295 66.5235 10.8295H65.3568V17.225H62.8882V1.51672ZM66.5235 8.58543C66.9276 8.58543 67.2267 8.47322 67.4214 8.24884C67.6308 8.02441 67.7353 7.64296 67.7353 7.10437V5.24183C67.7353 4.70326 67.6308 4.32177 67.4214 4.09737C67.2267 3.87296 66.9276 3.76077 66.5235 3.76077H65.3568V8.58543H66.5235Z" fill="#7A7B85"></path>
<path d="M74.8409 17.4494C73.6446 17.4494 72.7393 17.1128 72.1257 16.4395C71.5127 15.7514 71.2056 14.7715 71.2056 13.4998V12.6022H73.5395V13.6794C73.5395 14.6967 73.9659 15.2053 74.8186 15.2053C75.2376 15.2053 75.5515 15.0857 75.761 14.8463C75.9853 14.592 76.0978 14.188 76.0978 13.6345C76.0978 12.9763 75.9482 12.4003 75.6491 11.9066C75.3501 11.3979 74.7964 10.7921 73.9881 10.0889C72.971 9.1913 72.2604 8.38347 71.8563 7.66537C71.4527 6.93231 71.2507 6.1095 71.2507 5.19693C71.2507 3.95523 71.5646 2.99777 72.193 2.32456C72.8215 1.63638 73.7342 1.2923 74.9311 1.2923C76.1126 1.2923 77.003 1.63638 77.6012 2.32456C78.2148 2.99777 78.5213 3.97019 78.5213 5.24181V5.89258H76.1874V5.08472C76.1874 4.54616 76.0829 4.15719 75.8734 3.91782C75.664 3.6635 75.3575 3.53633 74.9533 3.53633C74.1303 3.53633 73.7193 4.0375 73.7193 5.03984C73.7193 5.60833 73.8689 6.13942 74.1679 6.63311C74.4819 7.12678 75.0429 7.72518 75.8512 8.42833C76.8831 9.32594 77.5938 10.1413 77.9831 10.8744C78.3718 11.6074 78.5664 12.4676 78.5664 13.455C78.5664 14.7416 78.2445 15.7289 77.6012 16.4171C76.9728 17.1053 76.0526 17.4494 74.8409 17.4494Z" fill="#7A7B85"></path>
<path d="M83.5725 17.4494C82.3756 17.4494 81.4629 17.1128 80.8344 16.4396C80.206 15.7514 79.8921 14.7715 79.8921 13.4999V1.51672H82.3607V13.6794C82.3607 14.218 82.4652 14.607 82.6746 14.8463C82.899 15.0857 83.2135 15.2054 83.617 15.2054C84.0211 15.2054 84.3276 15.0857 84.5371 14.8463C84.7614 14.607 84.8739 14.218 84.8739 13.6794V1.51672H87.2523V13.4999C87.2523 14.7715 86.9384 15.7514 86.31 16.4396C85.6815 17.1128 84.7688 17.4494 83.5725 17.4494Z" fill="#7A7B85"></path>
<path d="M89.0103 1.51672H92.5337L94.1045 12.7593H94.149L95.7204 1.51672H99.2433V17.225H96.9093V5.33159H96.8648L95.0691 17.225H93.0046L91.2095 5.33159H91.165V17.225H89.0103V1.51672Z" fill="#7A7B85"></path>
<path d="M0.373535 17.225C3.41036 17.225 5.87217 14.7632 5.87217 11.7264C5.87217 8.68955 3.41036 6.22772 0.373535 6.22772V10.0768C1.28457 10.0768 2.02312 10.8153 2.02312 11.7264C2.02312 12.6374 1.28457 13.376 0.373535 13.376V17.225Z" fill="#7A7B85"></path>
<path d="M18.7022 8.06062C17.7626 7.76296 16.762 7.60236 15.7238 7.60236C10.2828 7.60236 5.87207 12.0132 5.87207 17.4541C5.87207 18.0002 5.91651 18.536 6.00195 19.0579H12.1231C11.9046 18.568 11.7831 18.0252 11.7831 17.4541C11.7831 15.2777 13.5474 13.5134 15.7238 13.5134C16.9133 13.5134 17.9797 14.0404 18.7022 14.8737V8.06062Z" fill="#7A7B85"></path>
<path d="M1.34033 0.729065C1.79621 4.853 5.29251 8.06061 9.53797 8.06061C13.7834 8.06061 17.2797 4.853 17.7356 0.729065H11.8371C11.4729 1.64194 10.5807 2.28701 9.53797 2.28701C8.49514 2.28701 7.60303 1.64194 7.23882 0.729065H1.34033Z" fill="#7A7B85"></path>
</g>
<defs>
<clipPath id="clip0_1083_890">
<rect width="98.8696" height="18.538" fill="white" transform="translate(0.373535 0.729065)"></rect>
</clipPath>
</defs>
</svg>
