<svg width="98" height="19" viewBox="0 0 98 19" fill="none" xmlns="http://www.w3.org/2000/svg">
<g clip-path="url('#clip0_1083_396')">
<path d="M55.272 13.6574H57.3532V5.80699H55.272V13.6574ZM55.272 4.58277H57.3532V2.71582H55.272V4.58277Z" fill="#7A7B85"></path>
<path d="M58.6948 16.2283H60.7761V12.7698H60.8064C61.2501 13.4432 61.9696 13.887 63.0711 13.887C65.0912 13.887 66.4686 12.2802 66.4686 9.73989C66.4686 7.29139 65.1372 5.59277 63.056 5.59277C61.9848 5.59277 61.2501 6.0978 60.7453 6.7864H60.6993V5.80701H58.6948V16.2283ZM62.6275 12.1577C61.388 12.1577 60.7301 11.2243 60.7301 9.80108C60.7301 8.39321 61.2501 7.27612 62.5512 7.27612C63.8366 7.27612 64.3566 8.31671 64.3566 9.80108C64.3566 11.2855 63.6835 12.1577 62.6275 12.1577Z" fill="#7A7B85"></path>
<path d="M70.6202 13.887C72.5792 13.887 73.9257 12.9382 73.9257 11.362C73.9257 9.52565 72.472 9.15836 71.1558 8.88293C70.0386 8.65338 68.9982 8.59214 68.9982 7.91884C68.9982 7.35262 69.5338 7.04657 70.3448 7.04657C71.2326 7.04657 71.7682 7.35262 71.8597 8.19428H73.7419C73.5892 6.61809 72.4412 5.59277 70.3756 5.59277C68.5849 5.59277 67.1772 6.40385 67.1772 8.10247C67.1772 9.81639 68.5546 10.1989 69.9623 10.4744C71.0335 10.6887 72.0279 10.7652 72.0279 11.515C72.0279 12.0659 71.508 12.4179 70.5898 12.4179C69.6561 12.4179 69.0134 12.02 68.8759 11.1171H66.9478C67.07 12.7851 68.3403 13.887 70.6202 13.887Z" fill="#7A7B85"></path>
<path d="M81.8267 13.6574V5.80701H79.7454V10.3367C79.7454 11.3773 79.1487 12.1118 78.1694 12.1118C77.2817 12.1118 76.8688 11.6068 76.8688 10.6887V5.80701H74.8027V11.0406C74.8027 12.7545 75.782 13.8716 77.5267 13.8716C78.6287 13.8716 79.2406 13.4585 79.7762 12.7392H79.8222V13.6574H81.8267Z" fill="#7A7B85"></path>
<path d="M83.1729 13.6574H85.2541V9.09717C85.2541 8.05654 85.8205 7.38324 86.6623 7.38324C87.4273 7.38324 87.871 7.8423 87.871 8.72988V13.6574H89.9522V9.09717C89.9522 8.05654 90.4878 7.38324 91.36 7.38324C92.1254 7.38324 92.5691 7.8423 92.5691 8.72988V13.6574H94.6503V8.3779C94.6503 6.66398 93.7166 5.59277 92.0638 5.59277C91.0694 5.59277 90.2428 6.11307 89.7072 6.97003H89.6768C89.2943 6.14368 88.4985 5.59277 87.5036 5.59277C86.4173 5.59277 85.6522 6.14368 85.2238 6.86291H85.1778V5.80701H83.1729V13.6574Z" fill="#7A7B85"></path>
<path d="M1.0293 13.6574H3.11049V2.71582H1.0293V13.6574Z" fill="#7A7B85"></path>
<path d="M8.19885 13.887C10.632 13.887 12.3 12.0812 12.3 9.73989C12.3 7.39851 10.632 5.59277 8.19885 5.59277C5.76566 5.59277 4.09766 7.39851 4.09766 9.73989C4.09766 12.0812 5.76566 13.887 8.19885 13.887ZM8.19885 12.2955C6.91341 12.2955 6.20945 11.2701 6.20945 9.73989C6.20945 8.20959 6.91341 7.169 8.19885 7.169C9.46898 7.169 10.1882 8.20959 10.1882 9.73989C10.1882 11.2701 9.46898 12.2955 8.19885 12.2955Z" fill="#7A7B85"></path>
<path d="M16.7258 16.3354C17.8888 16.3354 18.8988 16.06 19.5568 15.4478C20.1383 14.9122 20.4903 14.1624 20.4903 13.0606V5.80701H18.4856V6.6334H18.455C17.9806 5.97537 17.2614 5.59277 16.282 5.59277C14.2926 5.59277 12.8848 7.09246 12.8848 9.43379C12.8848 11.8057 14.5987 13.183 16.3432 13.183C17.3379 13.183 17.9347 12.7851 18.3938 12.2648H18.4397V13.1218C18.4397 14.193 17.8735 14.7592 16.6952 14.7592C15.7311 14.7592 15.2873 14.3766 15.119 13.887H13.0531C13.2673 15.4173 14.5834 16.3354 16.7258 16.3354ZM16.6952 11.515C15.624 11.515 14.92 10.7345 14.92 9.40322C14.92 8.08716 15.624 7.26081 16.6799 7.26081C17.9347 7.26081 18.5468 8.2402 18.5468 9.38791C18.5468 10.5509 18.0112 11.515 16.6952 11.515Z" fill="#7A7B85"></path>
<path d="M25.5489 13.887C27.9821 13.887 29.6501 12.0812 29.6501 9.73989C29.6501 7.39851 27.9821 5.59277 25.5489 5.59277C23.1158 5.59277 21.4478 7.39851 21.4478 9.73989C21.4478 12.0812 23.1158 13.887 25.5489 13.887ZM25.5489 12.2955C24.2635 12.2955 23.5596 11.2701 23.5596 9.73989C23.5596 8.20959 24.2635 7.169 25.5489 7.169C26.8191 7.169 27.5383 8.20959 27.5383 9.73989C27.5383 11.2701 26.8191 12.2955 25.5489 12.2955Z" fill="#7A7B85"></path>
<path d="M95.4067 4.51817C95.4067 4.16602 95.6924 3.88055 96.0446 3.88055H97.3197C97.6719 3.88055 97.9575 4.16602 97.9575 4.51817C97.9575 4.87032 97.6719 5.1558 97.3197 5.1558H96.0446C95.6924 5.1558 95.4067 4.87032 95.4067 4.51817Z" fill="#7A7B85"></path>
<path fill-rule="evenodd" clip-rule="evenodd" d="M42.2714 0.479919C47.2013 0.479919 51.1982 4.47653 51.1982 9.4066C51.1982 14.3367 47.2013 18.3333 42.2714 18.3333C37.3413 18.3333 33.3447 14.3367 33.3447 9.4066C33.3447 4.47653 37.3413 0.479919 42.2714 0.479919ZM41.9488 1.1479C40.9304 1.29122 39.9606 2.10952 39.2079 3.47812C38.9896 3.87511 38.7925 4.31369 38.6209 4.78724C39.6444 4.53003 40.7688 4.37839 41.9488 4.35493V1.1479ZM37.8664 5.00164C38.0799 4.33159 38.3411 3.71513 38.6425 3.16714C39.0156 2.48869 39.4585 1.90281 39.9574 1.45283C37.2442 2.24081 35.1056 4.37945 34.3176 7.09267C34.7676 6.59371 35.3535 6.15086 36.0319 5.77773C36.5799 5.47632 37.1964 5.21512 37.8664 5.00164ZM37.652 5.75608C37.3948 6.77961 37.2432 7.90397 37.2197 9.08395H34.0127C34.156 8.06555 34.9743 7.09584 36.3429 6.34314C36.7399 6.1248 37.1785 5.92778 37.652 5.75608ZM37.8652 9.08395C37.8918 7.79623 38.0772 6.58729 38.3839 5.51912C39.4521 5.2124 40.661 5.02699 41.9488 5.00035V6.3942C41.4684 7.62403 40.4886 8.60373 39.2587 9.08395H37.8652ZM37.2197 9.72926H34.0127C34.156 10.7477 34.9743 11.7173 36.3429 12.4701C36.7399 12.6884 37.1785 12.8854 37.652 13.0571C37.3948 12.0336 37.2432 10.9092 37.2197 9.72926ZM38.3839 13.2941C38.0772 12.2259 37.8918 11.017 37.8652 9.72926H39.2587C40.4886 10.2095 41.4684 11.1892 41.9488 12.419V13.8129C40.661 13.7862 39.4521 13.6008 38.3839 13.2941ZM37.8664 13.8116C37.1964 13.5981 36.5799 13.3369 36.0319 13.0355C35.3535 12.6623 34.7676 12.2195 34.3176 11.7205C35.1056 14.4338 37.2442 16.5724 39.9574 17.3604C39.4585 16.9104 39.0156 16.3245 38.6425 15.646C38.3411 15.0981 38.0799 14.4816 37.8664 13.8116ZM41.9488 17.6653C40.9304 17.522 39.9606 16.7037 39.2079 15.3351C38.9896 14.9381 38.7925 14.4995 38.6209 14.026C39.6444 14.2832 40.7688 14.4348 41.9488 14.4583V17.6653ZM44.5853 17.3604C45.0843 16.9104 45.5271 16.3245 45.9002 15.646C46.2015 15.0981 46.4631 14.4816 46.6764 13.8116C47.3464 13.5981 47.9627 13.3369 48.5108 13.0355C49.1893 12.6623 49.7753 12.2195 50.2252 11.7205C49.437 14.4338 47.2986 16.5724 44.5853 17.3604ZM45.9221 14.026C45.7503 14.4995 45.553 14.9381 45.3347 15.3351C44.5821 16.7037 43.6124 17.522 42.594 17.6653V14.4583C43.774 14.4348 44.8984 14.2832 45.9221 14.026ZM46.8907 13.0571C47.3642 12.8854 47.803 12.6884 48.1998 12.4701C49.5687 11.7174 50.3868 10.7477 50.5301 9.72926H47.3232C47.2995 10.9092 47.1477 12.0336 46.8907 13.0571ZM46.6778 9.72926C46.651 11.017 46.4657 12.2259 46.1587 13.2941C45.0907 13.6008 43.8817 13.7862 42.594 13.8129V12.42C43.0743 11.1897 44.0543 10.2096 45.2845 9.72926H46.6778ZM47.3232 9.08395H50.5301C50.3868 8.06555 49.5687 7.09584 48.1998 6.34314C47.803 6.1248 47.3642 5.92778 46.8907 5.75608C47.1477 6.77961 47.2995 7.90397 47.3232 9.08395ZM46.1587 5.51912C46.4657 6.58729 46.651 7.79623 46.6778 9.08395H45.2845C44.0543 8.6036 43.0743 7.62345 42.594 6.39318V5.00035C43.8817 5.02699 45.0907 5.2124 46.1587 5.51912ZM46.6764 5.00164C47.3464 5.21512 47.9627 5.47632 48.5108 5.77773C49.1893 6.15086 49.7753 6.59371 50.2252 7.09267C49.437 4.37945 47.2986 2.24081 44.5853 1.45283C45.0843 1.90281 45.5271 2.48869 45.9002 3.16714C46.2015 3.71513 46.4631 4.33159 46.6764 5.00164ZM42.594 1.1479C43.6124 1.29122 44.5821 2.10952 45.3347 3.47812C45.553 3.87511 45.7503 4.31369 45.9221 4.78724C44.8984 4.53003 43.774 4.37839 42.594 4.35493V1.1479Z" fill="#7A7B85"></path>
</g>
<defs>
<clipPath id="clip0_1083_396">
<rect width="97.3008" height="17.8534" fill="white" transform="translate(0.661133 0.479919)"></rect>
</clipPath>
</defs>
</svg>
