<svg width="15" height="15" viewBox="0 0 15 15" fill="none" xmlns="http://www.w3.org/2000/svg">
<g clip-path="url('#clip0_1096_4560')">
<path d="M14.2116 4.68383C14.2116 3.48899 13.3327 2.52782 12.2467 2.52782C10.7758 2.45905 9.27557 2.4325 7.74247 2.4325H7.26453C5.73514 2.4325 4.23231 2.45905 2.76133 2.52808C1.67802 2.52808 0.799148 3.49457 0.799148 4.6894C0.732768 5.63439 0.704623 6.57963 0.706216 7.52488C0.703561 8.47013 0.733653 9.41626 0.796493 10.3633C0.796493 11.5581 1.67536 12.5273 2.75868 12.5273C4.304 12.5989 5.88914 12.6308 7.50084 12.6282C9.1152 12.6335 10.6959 12.5998 12.243 12.5273C13.329 12.5273 14.2078 11.5581 14.2078 10.3633C14.2716 9.41537 14.3008 8.47013 14.2981 7.52223C14.3041 6.57698 14.2753 5.63085 14.2116 4.68383ZM6.20246 10.1296V4.91218L10.0525 7.51957L6.20246 10.1296Z" fill="#7A7B85"></path>
</g>
<defs>
<clipPath id="clip0_1096_4560">
<rect width="13.5946" height="13.5946" fill="white" transform="translate(0.706055 0.733154)"></rect>
</clipPath>
</defs>
</svg>
