<svg width="17" height="18" viewBox="0 0 17 18" fill="none" xmlns="http://www.w3.org/2000/svg">
<path d="M11.6555 2.71032C12.4687 2.71275 13.2479 3.03687 13.8229 3.6119C14.398 4.18693 14.7221 4.96614 14.7245 5.77934V11.9167C14.7221 12.7299 14.398 13.5091 13.8229 14.0842C13.2479 14.6592 12.4687 14.9833 11.6555 14.9858H5.51811C4.70491 14.9833 3.9257 14.6592 3.35067 14.0842C2.77564 13.5091 2.45152 12.7299 2.44909 11.9167V5.77934C2.45152 4.96614 2.77564 4.18693 3.35067 3.6119C3.9257 3.03687 4.70491 2.71275 5.51811 2.71032H11.6555ZM11.6555 1.48291H5.51811C3.15503 1.48291 1.22168 3.41626 1.22168 5.77934V11.9167C1.22168 14.2798 3.15503 16.2132 5.51811 16.2132H11.6555C14.0186 16.2132 15.9519 14.2798 15.9519 11.9167V5.77934C15.9519 3.41626 14.0186 1.48291 11.6555 1.48291Z" fill="#7A7B85"></path>
<path d="M12.5762 5.77927C12.3941 5.77927 12.2161 5.72528 12.0647 5.62411C11.9133 5.52295 11.7953 5.37917 11.7256 5.21094C11.656 5.04272 11.6377 4.85761 11.6732 4.67902C11.7088 4.50043 11.7965 4.33639 11.9252 4.20764C12.054 4.07888 12.218 3.9912 12.3966 3.95568C12.5752 3.92016 12.7603 3.93839 12.9285 4.00807C13.0967 4.07775 13.2405 4.19575 13.3417 4.34715C13.4428 4.49855 13.4968 4.67654 13.4968 4.85863C13.4971 4.9796 13.4735 5.09944 13.4273 5.21125C13.3811 5.32307 13.3133 5.42466 13.2278 5.5102C13.1422 5.59574 13.0406 5.66355 12.9288 5.70972C12.817 5.75589 12.6972 5.77953 12.5762 5.77927ZM8.58686 6.39281C9.07244 6.39281 9.54712 6.5368 9.95087 6.80658C10.3546 7.07635 10.6693 7.4598 10.8551 7.90842C11.041 8.35704 11.0896 8.85069 10.9948 9.32694C10.9001 9.80319 10.6663 10.2407 10.3229 10.584C9.97956 10.9274 9.54209 11.1612 9.06584 11.2559C8.58959 11.3507 8.09594 11.3021 7.64732 11.1162C7.1987 10.9304 6.81525 10.6157 6.54548 10.212C6.2757 9.80822 6.13171 9.33355 6.13171 8.84796C6.13241 8.19703 6.3913 7.57296 6.85158 7.11268C7.31186 6.6524 7.93593 6.39351 8.58686 6.39281ZM8.58686 5.1654C7.85852 5.1654 7.14653 5.38138 6.54094 5.78602C5.93534 6.19067 5.46334 6.76581 5.18462 7.43871C4.90589 8.11161 4.83297 8.85205 4.97506 9.5664C5.11715 10.2807 5.46788 10.9369 5.9829 11.4519C6.49791 11.9669 7.15408 12.3177 7.86843 12.4598C8.58278 12.6019 9.32322 12.5289 9.99612 12.2502C10.669 11.9715 11.2442 11.4995 11.6488 10.8939C12.0534 10.2883 12.2694 9.5763 12.2694 8.84796C12.2694 7.87129 11.8814 6.93461 11.1908 6.244C10.5002 5.55338 9.56354 5.1654 8.58686 5.1654Z" fill="#7A7B85"></path>
</svg>
