<svg width="18" height="13" viewBox="0 0 18 13" fill="none" xmlns="http://www.w3.org/2000/svg">
<path d="M17.1255 6.16489C17.1255 6.34551 17.0537 6.51873 16.926 6.64645C16.7983 6.77417 16.6251 6.84592 16.4445 6.84592H1.46179C1.28117 6.84592 1.10795 6.77417 0.980231 6.64645C0.852513 6.51873 0.780762 6.34551 0.780762 6.16489C0.780762 5.98427 0.852513 5.81105 0.980231 5.68333C1.10795 5.55561 1.28117 5.48386 1.46179 5.48386H16.4445C16.6251 5.48386 16.7983 5.55561 16.926 5.68333C17.0537 5.81105 17.1255 5.98427 17.1255 6.16489ZM1.46179 1.39768H16.4445C16.6251 1.39768 16.7983 1.32592 16.926 1.19821C17.0537 1.07049 17.1255 0.897265 17.1255 0.716645C17.1255 0.536024 17.0537 0.362801 16.926 0.235083C16.7983 0.107365 16.6251 0.035614 16.4445 0.035614H1.46179C1.28117 0.035614 1.10795 0.107365 0.980231 0.235083C0.852513 0.362801 0.780762 0.536024 0.780762 0.716645C0.780762 0.897265 0.852513 1.07049 0.980231 1.19821C1.10795 1.32592 1.28117 1.39768 1.46179 1.39768ZM16.4445 10.9321H1.46179C1.28117 10.9321 1.10795 11.0039 0.980231 11.1316C0.852513 11.2593 0.780762 11.4325 0.780762 11.6131C0.780762 11.7938 0.852513 11.967 0.980231 12.0947C1.10795 12.2224 1.28117 12.2942 1.46179 12.2942H16.4445C16.6251 12.2942 16.7983 12.2224 16.926 12.0947C17.0537 11.967 17.1255 11.7938 17.1255 11.6131C17.1255 11.4325 17.0537 11.2593 16.926 11.1316C16.7983 11.0039 16.6251 10.9321 16.4445 10.9321Z" fill="#07070A"></path>
</svg>
