<svg width="14" height="14" viewBox="0 0 14 14" fill="none" xmlns="http://www.w3.org/2000/svg">
<path d="M12.6522 3.33691L7.47675 0.505144C7.33837 0.429056 7.183 0.38916 7.02508 0.38916C6.86716 0.38916 6.71179 0.429056 6.57341 0.505144L1.398 3.33868C1.2502 3.41955 1.12682 3.53861 1.04075 3.68345C0.954682 3.82828 0.909074 3.99356 0.908691 4.16204V9.78676C0.909074 9.95524 0.954682 10.1205 1.04075 10.2654C1.12682 10.4102 1.2502 10.5293 1.398 10.6101L6.57341 13.4431C6.71169 13.5195 6.86709 13.5596 7.02508 13.5596C7.18307 13.5596 7.33847 13.5195 7.47675 13.4431L12.6522 10.6101C12.8 10.5293 12.9233 10.4102 13.0094 10.2654C13.0955 10.1205 13.1411 9.95524 13.1415 9.78676V4.16204C13.1414 3.99326 13.0959 3.82761 13.0099 3.68244C12.9238 3.53727 12.8002 3.41793 12.6522 3.33691ZM9.37754 8.38588V11.3317L7.49557 12.3621V7.25317L12.2005 4.67723V6.55919L9.62219 7.97067C9.54777 8.01139 9.48574 8.07148 9.44267 8.14457C9.3996 8.21766 9.37709 8.30104 9.37754 8.38588ZM4.42797 7.9742L1.84967 6.56272V4.68076L6.55459 7.2567V12.3656L4.67262 11.3317V8.38588C4.67243 8.30164 4.64963 8.21899 4.60659 8.14658C4.56356 8.07416 4.50187 8.01463 4.42797 7.9742ZM4.3868 2.77468L6.79807 4.09499C6.86731 4.13288 6.94497 4.15274 7.0239 4.15274C7.10283 4.15274 7.1805 4.13288 7.24974 4.09499L9.66101 2.77468L11.6888 3.88445L7.02508 6.43804L2.35898 3.88327L4.3868 2.77468ZM7.02508 1.3285L8.68356 2.23655L7.02508 3.14519L5.3666 2.23714L7.02508 1.3285ZM1.84967 7.63427L3.73164 8.66464V10.8166L1.84967 9.78676V7.63427ZM10.3185 10.8166V8.66464L12.2005 7.63427V9.78676L10.3185 10.8166Z" fill="#96EA63"></path>
</svg>
