<svg width="11" height="12" viewBox="0 0 11 12" fill="none" xmlns="http://www.w3.org/2000/svg">
<path d="M5.50217 0.951224C2.63326 0.995012 0.288785 3.32455 0.226451 6.19295C0.20471 7.1577 0.445255 8.11027 0.922428 8.94904C0.941144 8.98187 0.968527 9.00892 1.00158 9.02723C1.03464 9.04555 1.0721 9.05442 1.10986 9.05288C1.14761 9.05133 1.18422 9.03944 1.21567 9.01849C1.24713 8.99754 1.27221 8.96834 1.28819 8.9341C1.67525 8.11309 1.87564 7.21653 1.87495 6.30886C1.87459 5.41232 2.19928 4.54605 2.78884 3.87062C2.85549 3.79124 2.94893 3.73907 3.05147 3.72397C3.154 3.70888 3.25852 3.73191 3.34521 3.78871C3.39352 3.82176 3.43423 3.86472 3.46464 3.91473C3.49505 3.96474 3.51446 4.02065 3.52158 4.07875C3.52869 4.13684 3.52335 4.19579 3.50591 4.25166C3.48847 4.30753 3.45933 4.35905 3.42042 4.40278C2.9558 4.92904 2.69933 5.60684 2.6992 6.30886C2.70075 7.54542 2.37286 8.76008 1.74926 9.82789C1.72613 9.86716 1.71668 9.91297 1.72236 9.95818C1.72805 10.0034 1.74856 10.0454 1.78068 10.0777C1.98521 10.2851 2.20625 10.4755 2.44163 10.647C2.46491 10.6641 2.49152 10.6761 2.51974 10.6822C2.54795 10.6883 2.57714 10.6884 2.60541 10.6826C2.63368 10.6767 2.6604 10.6649 2.68383 10.6481C2.70727 10.6312 2.7269 10.6096 2.74145 10.5847C2.9624 10.2223 3.15495 9.8434 3.31739 9.45131C3.33803 9.40125 3.36832 9.35575 3.40654 9.31739C3.44476 9.27903 3.49016 9.24858 3.54015 9.22777C3.59014 9.20697 3.64374 9.19621 3.69789 9.19611C3.75203 9.19602 3.80567 9.20659 3.85573 9.22722C3.90579 9.24785 3.9513 9.27815 3.98966 9.31637C4.02801 9.35459 4.05846 9.39999 4.07927 9.44998C4.10008 9.49997 4.11084 9.55357 4.11094 9.60772C4.11103 9.66186 4.10046 9.7155 4.07983 9.76556C3.90677 10.1844 3.70272 10.5898 3.46936 10.9782C3.45423 11.0036 3.44473 11.0319 3.44148 11.0612C3.43824 11.0906 3.44134 11.1203 3.45057 11.1483C3.45981 11.1763 3.47496 11.2021 3.495 11.2237C3.51504 11.2454 3.5395 11.2625 3.56673 11.2739C3.97989 11.4424 4.41257 11.5584 4.85462 11.6191C4.89589 11.6252 4.93803 11.6186 4.97547 11.6002C5.0129 11.5818 5.04388 11.5524 5.06429 11.5161C5.8194 10.1595 6.26897 8.6543 6.38155 7.1058C6.38382 7.05064 6.39716 6.9965 6.42076 6.94659C6.44437 6.89668 6.47776 6.85202 6.51895 6.81527C6.56015 6.77851 6.60831 6.75041 6.66058 6.73263C6.71285 6.71485 6.76815 6.70775 6.82322 6.71175C6.87828 6.71575 6.93198 6.73078 6.98112 6.75594C7.03027 6.7811 7.07385 6.81587 7.1093 6.8582C7.14474 6.90053 7.17132 6.94955 7.18746 7.00235C7.20359 7.05515 7.20895 7.11065 7.20322 7.16556C7.09836 8.6099 6.72116 10.0214 6.09151 11.3255C6.07505 11.3588 6.06792 11.396 6.07088 11.4331C6.07384 11.4701 6.08679 11.5057 6.10833 11.536C6.12988 11.5664 6.15924 11.5903 6.19328 11.6053C6.22732 11.6203 6.26479 11.6257 6.3017 11.6212C6.66322 11.5726 7.01881 11.4872 7.36292 11.3662C7.39 11.3565 7.41475 11.3413 7.4356 11.3215C7.45645 11.3017 7.47293 11.2778 7.48398 11.2513C8.12642 9.71399 8.46107 8.06562 8.46896 6.39952C8.4803 4.82108 7.2635 3.48013 5.68712 3.42552C5.40953 3.4159 5.13198 3.44591 4.86286 3.51465C4.8085 3.5286 4.75186 3.53131 4.69642 3.5226C4.64097 3.51389 4.58789 3.49394 4.54043 3.46399C4.49296 3.43404 4.45212 3.3947 4.4204 3.3484C4.38868 3.3021 4.36674 3.24981 4.35595 3.19473C4.33799 3.08798 4.36155 2.97839 4.4218 2.88845C4.48205 2.79851 4.57442 2.73502 4.67998 2.711C5.22704 2.57403 5.79812 2.56351 6.34985 2.68025C6.90158 2.79699 7.41945 3.03791 7.86414 3.38473C8.30884 3.73154 8.66866 4.17513 8.91628 4.6818C9.16389 5.18848 9.2928 5.74491 9.29321 6.30886C9.29444 7.61003 9.10952 8.90468 8.74406 10.1535C8.7313 10.1963 8.73281 10.2421 8.74837 10.284C8.76392 10.3259 8.79268 10.3616 8.83029 10.3857C8.86791 10.4099 8.91235 10.4211 8.95692 10.4178C9.00148 10.4145 9.04375 10.3967 9.07736 10.3673C9.91089 9.64914 10.5031 8.69182 10.7736 7.62538C11.0441 6.55893 10.9797 5.43507 10.5891 4.40651C10.1986 3.37795 9.50085 2.49455 8.59074 1.87637C7.68063 1.25818 6.60227 0.935165 5.50217 0.951224ZM5.58408 4.66035C5.816 4.66055 6.04527 4.7096 6.25696 4.8043C6.46866 4.89901 6.65803 5.03725 6.81273 5.21003C6.85108 5.25291 6.88003 5.30334 6.89771 5.35808C6.9154 5.41282 6.92142 5.47066 6.91541 5.52787C6.90939 5.58508 6.89146 5.6404 6.86278 5.69026C6.83409 5.74013 6.79528 5.78343 6.74885 5.8174C6.66315 5.87642 6.55879 5.90198 6.45551 5.88926C6.35223 5.87654 6.25719 5.82642 6.18836 5.74837C6.08074 5.63236 5.942 5.54979 5.78872 5.51051C5.63543 5.47123 5.47408 5.4769 5.32393 5.52685C5.15679 5.58504 5.01216 5.69428 4.91047 5.83913C4.80879 5.98399 4.75519 6.15713 4.75726 6.3341C4.75582 6.90467 4.7008 7.47384 4.59292 8.03412C4.57522 8.12756 4.52574 8.212 4.45288 8.27313C4.38002 8.33425 4.28826 8.36829 4.19316 8.36948C4.16723 8.36962 4.14135 8.3672 4.11589 8.36227C4.00774 8.33768 3.91339 8.27202 3.85274 8.17917C3.79209 8.08632 3.76989 7.97354 3.79082 7.86463C3.88789 7.35175 3.93636 6.83085 3.93558 6.30886C3.93558 5.87165 4.10926 5.45234 4.41842 5.14319C4.72757 4.83404 5.14687 4.66035 5.58408 4.66035Z" fill="#96EA63"></path>
</svg>
