<svg width="6" height="9" viewBox="0 0 6 9" fill="none" xmlns="http://www.w3.org/2000/svg">
<path d="M5.39974 5.01559L1.5737 8.84163C1.46589 8.94944 1.31966 9.01001 1.16719 9.01001C1.01471 9.01001 0.868485 8.94944 0.76067 8.84163C0.652855 8.73381 0.592285 8.58758 0.592285 8.43511C0.592285 8.28264 0.652855 8.13641 0.76067 8.02859L4.18067 4.60955L0.761627 1.18955C0.708242 1.13616 0.665895 1.07279 0.637003 1.00304C0.608112 0.933286 0.593242 0.858529 0.593242 0.783031C0.593242 0.707534 0.608112 0.632776 0.637003 0.563026C0.665895 0.493276 0.708242 0.429899 0.761627 0.376515C0.815011 0.32313 0.878388 0.280783 0.948138 0.251892C1.01789 0.223 1.09265 0.20813 1.16814 0.20813C1.24364 0.20813 1.3184 0.223 1.38815 0.251892C1.4579 0.280783 1.52128 0.32313 1.57466 0.376515L5.4007 4.20255C5.45414 4.25594 5.49652 4.31934 5.5254 4.38913C5.55429 4.45893 5.56911 4.53374 5.56902 4.60927C5.56893 4.6848 5.55393 4.75958 5.52488 4.8293C5.49584 4.89903 5.45331 4.96233 5.39974 5.01559Z" fill="#E8E9EA"></path>
</svg>
