<svg width="23" height="16" viewBox="0 0 23 16" fill="none" xmlns="http://www.w3.org/2000/svg">
<path d="M18.3335 0.775421C18.3335 1.60602 18.2189 2.37934 18.0184 3.12402C17.7893 3.8687 17.5029 4.55609 17.1305 5.1862C16.7582 5.81631 16.2999 6.38913 15.7557 6.87603C15.2115 7.39158 14.6387 7.79256 14.0086 8.1649C14.6387 8.50859 15.2402 8.93822 15.7557 9.42513C16.2999 9.91203 16.7582 10.4849 17.1305 11.115C17.5029 11.7451 17.8179 12.4325 18.0184 13.1485C18.2475 13.8932 18.3335 14.6665 18.3335 15.4971H15.8417C15.8417 14.7524 15.6985 14.0364 15.412 13.2917C15.1256 12.547 14.7246 11.8883 14.1805 11.3155C13.6649 10.714 13.0062 10.2557 12.2615 9.88338C11.5168 9.51104 10.6576 9.3392 9.74104 9.3392V6.99061C10.6289 6.99061 11.4309 6.81876 12.1756 6.47507C12.9202 6.13137 13.579 5.67311 14.1232 5.10028C14.6674 4.52745 15.097 3.8687 15.3834 3.12402C15.6985 2.37934 15.8417 1.60602 15.8417 0.775421H18.3335ZM22.7442 0.775421C22.7442 1.46281 22.6583 2.17886 22.5151 2.89489C22.3719 3.61093 22.1714 4.26967 21.9136 4.92842C21.6559 5.58718 21.3408 6.16 20.9971 6.73283C20.6534 7.27701 20.2524 7.76392 19.8228 8.1649C20.2811 8.53724 20.6821 9.02415 21.0544 9.56833C21.4267 10.1125 21.7131 10.714 21.9709 11.3727C22.2287 12.0315 22.4005 12.6903 22.5437 13.4063C22.6869 14.1223 22.7442 14.8384 22.7442 15.5544H20.2524C20.1665 13.75 19.8228 12.232 19.1927 11.0577C18.5626 9.88339 17.6747 8.93822 16.5291 8.22218C17.6747 7.44887 18.5626 6.50371 19.1927 5.32941C19.8228 4.15511 20.1665 2.66575 20.2524 0.861342H22.7442V0.775421Z" fill="black"></path>
<path d="M5.31458 0.775422C5.31458 1.60602 5.42915 2.37934 5.62964 3.12402C5.85877 3.8687 6.14518 4.55609 6.51752 5.1862C6.88986 5.81631 7.34812 6.38913 7.89231 6.87604C8.4365 7.39158 9.00932 7.79256 9.63943 8.1649C9.00932 8.50859 8.40785 8.93822 7.89231 9.42513C7.34812 9.91203 6.88986 10.4849 6.51752 11.115C6.14518 11.7451 5.83013 12.4325 5.62964 13.1485C5.40051 13.8932 5.31458 14.6665 5.31458 15.4971H7.80639C7.80639 14.7524 7.94959 14.0364 8.23601 13.2917C8.52242 12.547 8.9234 11.8883 9.46759 11.3155C9.98313 10.714 10.6419 10.2557 11.3866 9.88338C12.1312 9.51104 12.9905 9.3392 13.907 9.3392V6.99061C13.0191 6.99061 12.2172 6.81876 11.4725 6.47507C10.7278 6.13137 10.0691 5.67311 9.52487 5.10028C8.98068 4.52745 8.55106 3.8687 8.26465 3.12402C7.94959 2.37934 7.80638 1.60602 7.80638 0.775422L5.31458 0.775422ZM0.903809 0.775422C0.903809 1.46282 0.989733 2.17886 1.13294 2.89489C1.27615 3.61093 1.47664 4.26967 1.73441 4.92842C1.99218 5.58718 2.30724 6.16 2.65093 6.73283C2.99463 7.27702 3.39561 7.76392 3.82523 8.1649C3.36697 8.53724 2.96599 9.02415 2.59365 9.56833C2.22131 10.1125 1.9349 10.714 1.67713 11.3727C1.41936 12.0315 1.24751 12.6903 1.1043 13.4063C0.961093 14.1223 0.90381 14.8384 0.90381 15.5544H3.39561C3.48154 13.75 3.82523 12.232 4.45534 11.0577C5.08545 9.88339 5.97334 8.93822 7.11899 8.22218C5.97333 7.44887 5.08545 6.50371 4.45534 5.32941C3.82523 4.15511 3.48153 2.66575 3.39561 0.861343L0.903809 0.861343L0.903809 0.775422Z" fill="black"></path>
</svg>
