<svg width="18" height="18" viewBox="0 0 18 18" fill="none" xmlns="http://www.w3.org/2000/svg">
<g filter="url('#filter0_d_1083_204')">
<path d="M12.0517 4.38702H3.11088C2.87376 4.38702 2.64634 4.48122 2.47867 4.6489C2.31099 4.81657 2.2168 5.04398 2.2168 5.28111V8.4104C2.2168 11.3564 3.64286 13.1418 4.83926 14.1208C6.12786 15.1747 7.40975 15.5329 7.46563 15.5474C7.54247 15.5683 7.62349 15.5683 7.70033 15.5474C7.75621 15.5329 9.03643 15.1747 10.3267 14.1208C11.5197 13.1418 12.9458 11.3564 12.9458 8.4104V5.28111C12.9458 5.04398 12.8516 4.81657 12.6839 4.6489C12.5163 4.48122 12.2889 4.38702 12.0517 4.38702ZM7.5813 14.6478C6.79071 14.3717 6.05463 13.9592 5.40644 13.429C4.10723 12.3662 3.35508 10.9809 3.16117 9.30449H7.5813V5.28111H12.0517V8.4104C12.0519 8.70914 12.0351 9.00765 12.0014 9.30449H7.5813V14.6478Z" fill="#96EA63"></path>
</g>
<defs>
<filter id="filter0_d_1083_204" x="0.75984" y="0.0161548" width="16.5568" height="17.0039" filterUnits="userSpaceOnUse" color-interpolation-filters="sRGB">
<feFlood flood-opacity="0" result="BackgroundImageFix"></feFlood>
<feColorMatrix in="SourceAlpha" type="matrix" values="0 0 0 0 0 0 0 0 0 0 0 0 0 0 0 0 0 0 127 0" result="hardAlpha"></feColorMatrix>
<feOffset dx="1.45696" dy="-1.45696"></feOffset>
<feGaussianBlur stdDeviation="1.45696"></feGaussianBlur>
<feColorMatrix type="matrix" values="0 0 0 0 0.654902 0 0 0 0 0.941176 0 0 0 0 0.458824 0 0 0 0.2 0"></feColorMatrix>
<feBlend mode="normal" in2="BackgroundImageFix" result="effect1_dropShadow_1083_204"></feBlend>
<feBlend mode="normal" in="SourceGraphic" in2="effect1_dropShadow_1083_204" result="shape"></feBlend>
</filter>
</defs>
</svg>
