<svg width="12" height="13" viewBox="0 0 12 13" fill="none" xmlns="http://www.w3.org/2000/svg">
<path d="M11.9878 1.30538V4.46186C11.9878 4.60139 11.9324 4.7352 11.8337 4.83386C11.7351 4.93251 11.6013 4.98794 11.4618 4.98794C11.3222 4.98794 11.1884 4.93251 11.0898 4.83386C10.9911 4.7352 10.9357 4.60139 10.9357 4.46186V2.5752L7.62531 5.88622C7.5266 5.98494 7.39271 6.04039 7.25311 6.04039C7.11351 6.04039 6.97962 5.98494 6.88091 5.88622C6.78219 5.78751 6.72674 5.65362 6.72674 5.51402C6.72674 5.37442 6.78219 5.24053 6.88091 5.14182L10.1919 1.83146H8.30527C8.16574 1.83146 8.03193 1.77603 7.93327 1.67737C7.83462 1.57871 7.77919 1.4449 7.77919 1.30538C7.77919 1.16585 7.83462 1.03204 7.93327 0.933382C8.03193 0.834723 8.16574 0.779297 8.30527 0.779297H11.4618C11.6013 0.779297 11.7351 0.834723 11.8337 0.933382C11.9324 1.03204 11.9878 1.16585 11.9878 1.30538ZM4.77658 7.24614L1.46622 10.5572V8.6705C1.46622 8.53098 1.4108 8.39717 1.31214 8.29851C1.21348 8.19985 1.07967 8.14442 0.940143 8.14442C0.800618 8.14442 0.666807 8.19985 0.568148 8.29851C0.469489 8.39717 0.414062 8.53098 0.414062 8.6705V11.827C0.414062 11.9665 0.469489 12.1003 0.568148 12.199C0.666807 12.2976 0.800618 12.3531 0.940143 12.3531H4.09663C4.23615 12.3531 4.36996 12.2976 4.46862 12.199C4.56728 12.1003 4.62271 11.9665 4.62271 11.827C4.62271 11.6875 4.56728 11.5537 4.46862 11.455C4.36996 11.3563 4.23615 11.3009 4.09663 11.3009H2.20997L5.52099 7.99055C5.6197 7.89183 5.67516 7.75795 5.67516 7.61834C5.67516 7.47874 5.6197 7.34486 5.52099 7.24614C5.42228 7.14743 5.28839 7.09197 5.14879 7.09197C5.00918 7.09197 4.8753 7.14743 4.77658 7.24614Z" fill="#E8E9EA"></path>
</svg>
