<svg width="86" height="14" viewBox="0 0 86 14" fill="none" xmlns="http://www.w3.org/2000/svg">
<path d="M8.57615 11.1794H9.13928L9.53892 10.1622L13.7896 0.80702H17.0594L11.1011 13.5228H6.61429L0.692383 0.80702H3.96215L8.17652 10.1622L8.57615 11.1794Z" fill="white"></path>
<path d="M18.4875 13.5228V0.80702H31.7664V3.18668H21.176V6.00232H31.1851V8.38198H21.176V11.1431H31.839V13.5228H18.4875Z" fill="white"></path>
<path d="M38.832 13.5046V3.3865H32.9646V0.788855H47.515V3.3865H41.6476V13.5046H38.832Z" fill="white"></path>
<path d="M51.9217 3.29568V6.65627H58.5702C60.0416 6.65627 60.6774 6.25663 60.6774 4.89423C60.6774 3.65898 60.187 3.29568 58.5702 3.29568H51.9217ZM63.9472 13.6318H60.4776L58.7156 9.98053C58.3704 9.23575 57.8255 8.96327 56.7719 8.96327H51.9217V13.5228H49.1061V0.80702H58.9517C62.276 0.80702 63.7655 1.89694 63.7655 4.29477C63.7655 6.45645 62.5666 7.67353 60.2596 7.83702V8.055C61.1316 8.27299 61.6765 8.78162 62.2033 9.90787L63.9472 13.6318Z" fill="white"></path>
<path d="M65.462 13.5228V0.80702H68.2776V13.5228H65.462Z" fill="white"></path>
<path d="M82.5243 8.40015H85.5034C85.5397 11.7426 82.8149 13.7044 78.0192 13.7044C72.715 13.7044 69.9175 11.3066 69.9175 7.20123C69.9175 2.9687 72.8603 0.625366 78.0374 0.625366C82.8149 0.625366 85.5579 2.62356 85.5579 6.00232H82.4879C82.3789 3.96779 81.2527 3.25935 78.0556 3.25935C74.2227 3.25935 73.0056 4.16761 73.0056 7.20123C73.0056 9.79888 73.9684 11.0705 77.9829 11.0705C81.18 11.0705 82.5243 10.2167 82.5243 8.40015Z" fill="white"></path>
</svg>
